<?xml version="1.0" encoding="utf-8"?>
<!DOCTYPE svg PUBLIC "-//W3C//DTD SVG 20010904//EN" "http://www.w3.org/TR/2001/REC-SVG-20010904/DTD/svg10.dtd">
<svg version="1.0" xmlns="http://www.w3.org/2000/svg" width="1359" height="1107">
  <path d="M280 1105c3-11 2-13-4-16-18-8-7-26 27-43l6-4c3-5-6-10-20-11-10-1-13-3-16-7-2-7 2-11 13-13l8-2 1-6 2-8c2-5 2-5-18-5-38 0-70 2-81 4-10 2-14 2-47 2l-36 1-8 3-15 4-10 2c-3 2-8 1-11-1l-2-3-1-16c0-18 1-23 5-25h4c4 2 4 3 5 16 0 10 0 11 2 12 3 2 10 1 17-2 8-4 21-5 58-5 28 0 30 0 36-2 7-2 23-3 76-4a862 862 0 01163-7c63-1 75-1 97-5 11-1 44-2 137-2h47l5-5c4-4 5-5 8-5 4 0 5 2 6 12a668 668 0 002 25c-2 4-5 6-8 5-4-2-5-5-6-11-1-9 2-8-52-8-71 1-127 3-133 4-11 2-60 3-130 4-66 0-77 0-88 4-8 2-8 2-7 6v8l-1 4h12c12 0 17 1 19 4v5c-3 4-8 5-15 5-6-1-11 0-11 3l5 4c9 5 11 14 7 21-2 4-12 10-18 13-7 2-14 6-19 11-3 3-3 3-2 5h23c23-1 26-1 29 3 3 5-1 9-13 10-8 1-11 3-11 7l-1 5c-2 3 0 4 2 1 4-5 14-3 14 3v2h-27v-7l-2-8c-1-2-6-2-9 0-2 2-2 3-1 9v6h-6c-7 0-7 0-7-2z"/>
  <path d="M448 1091c-3-1-7-7-7-10 0-4 2-6 5-6 8 0 13 10 8 15-2 2-2 2-6 1zM383 1078l-8-3c-7-2-10-3-12-6-3-5-3-10 1-11 2-1 4-1 12 2 5 2 9 3 10 2 2-1 1-12-2-20l-3-16c0-9 0-10 2-14 5-9 15-13 38-14h17c6 2 8 7 3 12-3 2-4 3-12 3-14 1-30 4-32 6v7c3 11 4 17 5 28 0 11 0 13-2 17-3 8-11 11-17 7z"/>
  <path d="M433 1071l-10-2-7-2v-9c1-3 1-4-1-8-3-5-3-7-2-10 2-4 9-2 17 5 5 4 6 7 7 13l3 4c2 2 3 8 1 10-2 1-4 1-8-1zM444 1060c0-3 2-6 4-6 3 0 6 3 6 5s-3 4-7 4c-3 0-3 0-3-3zM1243 1004c-2-1-8-4-12-8-7-6-8-6-13-6l-9 2c-5 3-7 3-12 0-5-4-6-4-17 0-16 7-22 7-28 4-4-2-8-9-8-14 0-4-1-4-6-2l-10 2c-5 0-8 1-12 3-7 3-8 3-14-1-4-3-4-3-12-3-7 1-13 0-14-3-2-2-1-9 1-11s2-2 10 0l8-3c3-2 6-3 10-3s5 0 6 3c2 3 3 4 7 4s7-1 9-6c2-3 4-4 7-5 7-2 9-4 11-9 2-8 7-10 13-6 4 3 5 3 14-4 5-5 7-6 10-6 6 0 11 4 9 9-1 3-7 8-14 12-5 3-8 8-11 14l-4 8c-3 3-3 7 0 8l7-3 8-5c3-2 11-3 17-3l7 2c3 3 5 3 8 3 14-3 15-3 23 2l9 7c6 6 12 6 21 0a377 377 0 0122-14c8-5 13-6 17-2 3 3 3 7 0 10-2 2-10 8-12 8l-21 13c-2 1-14 5-18 5l-7-2zM391 951l-6-4v-11-7c-3-6 0-10 6-10 7 0 10 4 10 12l2 10v6c-1 4-7 5-12 4zM318 946l-7-4-8-5c-7-6-10-13-6-17 3-3 7-2 13 4s9 7 12 5c1-2 1-3-2-14l-2-12 1-9c3-15 5-17 18-21 12-3 12-5-1-5l-19 2c-5 2-15 4-22 4l-18 4c-6 2-9 3-27 4l-16 2-3 7c-3 6-6 9-9 7-4-3-5-6-5-21 0-13 0-15 2-17 2-3 6-3 8 0l3 5c1 5 3 5 12 4l16-1 12-2 21-5 13-2c8-4 16-4 52-5 30-1 39-1 48-3l30-3 26-2 14-3c3 1 5 6 5 13 0 10-5 13-12 7l-4-2h-19a426 426 0 00-56 6c-2 1-2 1 0 5 2 3 2 4 1 6s-7 4-13 4c-9 0-20 2-30 5-13 3-15 6-13 17l2 20c0 13 0 14-2 17-3 4-10 7-15 5z"/>
  <path d="M345 935c-2-1-2-6 0-12v-10c-1-7 0-11 4-12l6 2 8 2c4 0 5 0 7 3v6c-2 4-2 4 0 9 2 4 2 4 1 7-1 2-2 3-8 2-4 0-6 0-9 2-4 2-7 3-9 1zM1094 923l-7-2-10-3c-8-3-10-6-10-12 0-3 0-5 2-6 3-3 5-3 9 1l9 6c7 4 11 4 24 0 9-3 24-10 28-13 10-7 19-6 19 2 0 4-2 6-13 12l-10 6c-5 3-14 6-26 8l-12 2-4-1zM910 890l-12-5-9-4-9-3-12-4c-9-1-13-3-15-8-1-4-1-7 2-9s19-3 25-1c4 1 9 0 10-2l1-9 1-14 2-17c1-14 3-23 5-29l4-17 3-16 3-20 3-20c4-21 5-40 7-101 2-52 0-218-3-255a669 669 0 00-21-132l-3-16a244 244 0 01-8-26 174 174 0 00-25-54c-9-12-25-21-40-23a1510 1510 0 00-110-5l-54-1-76-2-72-1-59-1-60-2-74-1c-27-1-49-1-79 2a1081 1081 0 01-100 5 2815 2815 0 01-69 6l-1 6c0 6-1 10-4 11-4 0-5 0-10-8l-4-8V87c0-21 1-22 7-22 5 0 7 3 6 12 0 7 0 9 2 10 2 2 1 2 28 0l80-5a1231 1231 0 00105-7 11798 11798 0 00287 4l22 2 67 2a1607 1607 0 01172 7l14 4 8 4c9 3 17 9 23 17a119 119 0 0123 40c2 2 4 10 6 16a1854 1854 0 0015 48l3 17 4 20 4 26 3 12c2 4 3 10 4 25l2 23 3 70c1 29 2 41 3 38 2-4 5-26 7-45l4-30c2-7 2-12 2-25l1-18c2-2 9-5 15-6 5 0 6 0 8 2 4 3 4 7-2 11-5 5-7 10-8 22l-3 23-4 32c0 20-3 56-4 67-1 6 0 13 1 30a1098 1098 0 014 61l4 3c5 3 7 6 5 10-5 7-16 3-22-8-1-3-2-8-2-21-1-13-1-19-3-26l-3-8c-1 0-2 13-2 50a1104 1104 0 01-27 244 590 590 0 01-6 45l-2 3c0 3 7 7 15 9 7 2 11 4 11 8s-2 7-5 8c-4 1-3 1-12-1zm29-421l-1-2c-1-1-1 1-1 4s0 4 1 2l1-4zM1127 871l-2-3c0-2 4-5 6-5 3 0 7 3 7 5s-4 5-7 5l-4-2zM1099 867c-3-3-2-8 2-8s5 6 2 8c-2 2-2 2-4 0z"/>
  <path d="M106 850l-15-3c-11-1-12-1-14-4l-3-3v-16a1351 1351 0 002-168l-1-87c0-70-1-93-3-103-3-12-4-27-5-53 0-22-1-30-2-38a615 615 0 01-9-55c-2-4-2-7-3-35v-31l3-7 3-7c0-2-3-2-9-1-7 1-10 1-11-3-1-5 3-9 10-9 3 0 5-1 10-5 2-1 5-2 15-2 15-1 28-2 34-4 10-2 32-3 58-4 28 0 45-1 73-4a584 584 0 0174-6l19-1 18-1 34-2c20-1 28-1 39-3l23-4c16-1 26-2 33-4 6-2 11-2 41-3l43-2c11-2 34-4 50-4 22-1 74 0 78 1s14 10 15 15l1 15a4806 4806 0 003 296l3 23 2 55c0 27 1 44 2 52 3 24 4 41 5 67 2 35 1 35 3 40v9l-2 8-1 24-1 23c0 2-3 6-6 9-7 8-9 9-29 9l-22 2h-41c-25-1-54 0-75 2-23 2-41 3-97 4-89 2-87 2-104 4l-45 3c-23 1-33 1-40 3-17 3-29 4-63 4a446 446 0 00-76 4h-17zm35-11l21-3 21-2c15 0 21-1 22-4 1-2-1-26-2-29-1-4-3-5-9-3l-23 4h-38l-31-1c-14 0-14 0-15 17v13c0 2 4 3 9 4l7 3c3 3 5 3 14 3l24-2zm106-8c22-4 35-5 59-5l27-2c2-1 60-4 101-5l33-2 1-21c0-16-1-19-2-20-2-2-2-2-7-1l-13 2-21 3-40 1a286 286 0 00-52 2c-5 0-9 0-15 2-10 2-27 4-41 4l-17 2a1513 1513 0 00-31 4c-11 1-13 1-14 4v15c0 15 1 17 7 18 5 1 13 0 25-2zm270-14l22-2c19-2 62-3 83-2 26 0 25 1 25-10l1-11v-16c-2-16-2-16-14-15l-16 2c-17 3-28 4-52 4a294 294 0 00-78 8c-10 1-9 0-10 20 0 22 0 22 10 23h11l17-1zm176-5c4 0-1-8-8-13-4-4-5-4-9-3-6 1-7-1-7-8 1-5 1-6-1-9l-2-4c0-2 3-5 6-5s13 9 18 16c6 8 7 9 9 9l6 3 4 2v-19l-1-20c-1-1-6-2-25-1-20 0-23 1-25 2-2 2-3 19-2 30l1 12c-1 8 1 9 20 9l16-1zm-506-24c18-5 16-1 16-37a613 613 0 00-5-100c0-7 0-9-2-10-1-2-8-2-52-2l-52-1c-2-1-3 0-4 4-2 6-2 16 0 21l2 19a1098 1098 0 010 100c-1 10-4 10 44 9h41l12-3zm60-8c12-2 29-4 45-4l19-2c11-3 28-4 79-5a689 689 0 0076-6c2-2 2-8 1-75 0-65-1-72-2-74-2-1-2-1-5 1l-67 2c-65 1-65 1-76 5l-13 2-19 4c-8 3-10 3-26 4a189 189 0 00-35 4c-7 0-11 2-13 5v13l1 22 2 30a764 764 0 013 77c2 2 19 0 31-3zm257-20c4-2 31-4 59-5a281 281 0 0081-9c2-1 2-6 2-69v-67l-2-3c-4-4-8-4-46-4a495 495 0 00-109 7c-9 0-10 1-10 14l1 136 2 1c3 1 19 0 22-1zm204-13c2-1 1-64 0-78l-2-20-2-15v-13l-1-10c-2-3-2-3-11-2l-17-1h-16l-2 2c-1 4 0 133 1 135l3 3c3 1 46 0 47-1zM103 628a3722 3722 0 0193-3v-7a1287 1287 0 01-3-107 896 896 0 01-4-88 953 953 0 01-3-56c-3-3-7-5-13-5a524 524 0 01-50-5c-2-2-7-3-11-3l-12-4c-2-2-6-3-8-3l-10-2h-8c-2 2-1 14 1 27 3 10 3 15 4 39l2 37c3 19 4 40 4 108 1 74 1 75 7 74l11-2zm120-4c6-2 19-4 36-5 13-1 17-1 23-3l18-4 15-2c8-4 13-4 60-4 67 0 84-2 90-8l2-2v-44l1-59c1-22-1-143-3-145-1-2-3-2-15-1l-20 2c-11 2-26 4-44 5-13 0-21 1-27 3-9 2-24 3-59 5a2279 2279 0 00-76 3c-26-1-25-2-24 15l1 29 4 102 4 105c0 8 5 11 14 8zm463-26c13-1 13-1 15-3 2-3 1-50-1-64-3-19-4-40-5-114v-76l-3-3c-2-2-4-3-7-3l-10-1-14-2c-8 0-8 0-9 2v14c5 48 4 46 4 138a3054 3054 0 011 108l2 5 7-1h20zm-163-3c15-3 29-4 75-3 35 1 43 1 45-1 2-1 2-1 2-30l1-67c1-43 0-105-2-116l-2-16c-1-12-4-26-5-28 0-3-2-3-16-3s-55 4-58 5c-2 1-20 3-41 3a96 96 0 00-35 5c-9 2-8-2-7 62v85c-1 58-1 104 1 105 2 3 29 2 42-1zM274 350l39-2c24-1 31-2 43-4l26-3 38-4 31-4c15 0 15-1 15-11l-3-16c-2-9-2-12-3-55 0-41 0-45-2-46-3-2-21-1-31 1-12 3-26 5-42 5a285 285 0 00-47 3l-27 3-36 1a557 557 0 00-96 9c-1 2 1 18 4 25l3 18c1 7 2 16 4 21 3 12 4 20 4 32l1 16c0 6 1 8 4 10l3 3h28l44-2zm-92-2v-15a601 601 0 01-5-40c-2-5-2-10-3-20l-2-18c-2-6-4-15-4-21 0-9-1-9-19-9a294 294 0 00-64 5l-19 3c-3 1-4 3-1 4 4 2 5 5 2 10-3 4-3 4-2 34 0 34 1 39 7 48 1 3 3 5 4 5h9c8 0 10 1 14 3l14 4 16 4c6 2 12 2 22 3 24 1 30 1 31-1zm311-19a489 489 0 0163-4 525 525 0 0180-5c2-1 2-3 2-11l-1-13-3-13c-2-8-2-15-3-50 0-36 0-41-2-42-2-2-28-1-39 0-15 3-41 5-69 6-27 1-45 3-48 6-2 2-2 4-2 15a922 922 0 009 111 461 461 0 0113 0zm197-7l4-4a1377 1377 0 000-122l-4-4c-4-2-13-3-28-3-12 0-16 0-18 2l-2 1v18a7949 7949 0 015 79l3 17c0 11 2 16 5 16h10l11 1c6 1 12 1 14-1z"/>
  <path d="M589 727c-3-2-2-6 0-9 4-3 4-6-1-12-3-4-4-6-7-6-4-1-6-3-6-7s1-6 4-8c6-2 9-1 14 4 3 3 6 7 6 10 1 2 3 6 5 7 3 3 4 4 4 8 0 6-2 9-9 12-5 2-8 3-10 1zM525 707v-11l5-6c5-4 4-9-2-17-3-4-4-5-1-7 2-3 5-2 8 1 5 3 8 4 14 3h6c1 2 1 2-1 6-3 6-2 8 1 13 2 4 3 7 1 10-2 2-6 1-8-3-3-6-9-3-13 5l-3 6h-7zM364 546c-4-3-5-10-1-17 1-2 1-3-1-3l-3-1c-3 0-5-3-5-6 0-8 15-10 22-4 3 3 3 9 0 15l-2 9-1 7c-1 1-6 1-9-1zM291 512c-3-3-1-8 3-15 6-9 5-10-4-19-8-8-9-12-5-14 3-2 6 0 13 6l11 8c5 1 8 4 8 7l4 8c6 12 3 17-8 9l-4-3c-2 0-8 7-10 10-2 5-5 7-8 3zM157 322c-4-4 0-10 4-7 2 2 1 7-1 8-1 1-2 0-4-1zM106 322c-2-2-1-7 1-10 2-1 3-5 4-9 2-8 1-12-3-15-5-4-7-10-5-14 3-4 9-2 12 5 2 6 6 7 10 1 4-4 7-4 9-1 3 3 2 5 0 9-5 5-5 6 2 14 7 7 9 10 5 13-3 3-6 2-11-3-5-4-6-5-8-4l-6 8c-5 6-7 8-10 6zM1138 845c-2-1-4-3-4-5l5-8c12-12 20-22 24-29 4-8 7-11 11-11s9 5 9 9c1 6-1 9-14 25-6 8-9 11-14 13l-9 5c-3 2-5 2-8 1zM1078 844a133 133 0 01-25-47c0-8 3-12 9-12 5 0 8 2 11 8l11 30 4 10c4 5 4 8 1 10-2 2-8 3-11 1zM1185 597c-4-1-9-4-9-7 0-2 4-5 8-7l7-5c3-3 3-3 3-14l-1-27c-4-37-6-82-6-144l-1-45-7-2c-9-1-12-5-9-10 1-3 8-5 14-5s12 4 15 8a4034 4034 0 0010 227c1 13-2 20-10 27-4 4-9 5-14 4zM977 552c-3-2-4-7-4-14 0-8 2-14 4-16 3-2 5-1 9 2 2 2 3 2 6 1 5 0 7 1 7 6s-1 6-7 6c-4 0-5 1-5 8s-6 10-10 7zM1020 539c-3-3-4-7-2-12 2-4 2-4 6-4 7 0 10 6 7 13-2 2-6 5-8 5l-4-2zM996 516v-6c2-2 8-3 10-1 3 3-1 11-6 11-2 0-3-1-4-4zM971 511c-2-3-3-8 0-10 3-3 11-2 13 1s1 7-2 9c-3 3-8 3-11 0z"/>
  <path d="M1165 495c-3-2-4-7-3-11 3-9 11-10 14-2 2 4 1 8-2 11-2 2-7 4-9 2zM1033 488l-16-1c-28 0-40-3-44-9s-2-13 5-20l23-18c9-5 8-10-4-16-6-3-10-8-10-13 0-6 7-12 16-13 5-1 6-3 3-6-1-2-2-2-7-1-7 0-8-1-8-8 1-9 7-15 13-13 4 1 10 8 14 16 5 9 4 9 14 9 7 1 10 4 10 9-1 6-11 10-22 9-9-2-10 1-4 6 5 3 7 7 7 14 0 9-1 10-21 25l-10 8c-4 4-2 5 23 5 22 0 24 0 28 2 8 4 8 12 1 15h-11zM1074 477c-10-3-13-6-12-9 1-4 4-5 14-5 8 0 9 0 10-2 1-3 1-6-1-16-3-9-3-12 0-18l2-8c2-5 3-7 8-12 8-7 11-9 24-11l13-3 12-1c7 0 9 0 11 2 3 2 4 4 1 8-2 4-6 6-14 6l-17 2c-9 2-13 4-17 6-5 4-6 5-8 10l-1 9c4 30 3 37-6 41-7 3-11 3-19 0z"/>
  <path d="M1122 469c-2-1-4-5-4-8l4-5 4-6-3-5c-6-6-6-14-1-15 3-1 6 0 11 6l9 5c5 1 6 4 8 11 1 8 1 11-1 13-2 3-5 2-9 0l-3-2-3 3c-4 3-8 5-12 3zM1162 459c-5-2-5-7 0-9 6-2 11 5 6 8-3 2-3 2-6 1zM1223 351l-6-4c-5-6-5-9 0-17l4-9c0-3-4-5-10-5-6 1-8 0-8-6 0-11 15-15 23-6 4 4 10 16 10 19l-2 6-3 6 4 6c5 4 5 6 2 8-2 2-11 3-14 2zM984 180c-10 0-12-1-14-2-2-3-3-7 0-10 2-2 2-2 20-1 28 2 81-1 90-4 2-1 2-2 2-6l1-17c2-15 1-16-7-4l-8 10c-2 2-9 3-12 2-4-1-9-6-11-10-1-4-1-17 1-22 2-3 8-7 11-7 5 0 6 3 3 10-2 7-2 10-1 12 2 2 6-2 7-6 2-10 4-11 12-11 5 1 5 1 9-3 7-8 12-5 23 11 7 10 8 11 12 11s5 2 5 6c0 9-7 15-13 12l-8-8-7-7c-1 0-2 3-2 12l-2 9c-2 3-2 3 0 4 2 2 6 2 34 0 18-1 24-2 25-3 2-2 2-2-1-6l-7-8c-6-3-7-8-7-20 0-9 0-10 2-14 6-9 12-11 19-6 5 3 7 8 10 17 2 8 0 20-3 27-3 6-4 8-2 8h16c18-2 20-3 20-10 0-10 7-37 10-43 4-4 9-4 15 3 2 2 3 4 4 9 1 7 4 11 8 11 2 0 5-2 20-15 12-10 18-12 21-4 2 4 1 8-3 15-7 9-4 13 5 8l7-2c3 0 8 3 8 5 0 3-2 7-5 9-5 3-20 8-24 8-3 0-9-6-11-11l-4-4-7 5c-10 8-16 7-21-3s-7-9-8 5v11h13l15 1c5 2 7 6 5 10-2 5-7 6-26 8a630 630 0 00-42 3 708 708 0 00-74 4l-25 1h-98z"/>
  <path d="M1012 159l-3-5c0-2-2-5-5-8l-4-5 5-7c4-4 4-4 4-9 0-13 6-24 15-28 8-4 13-4 17 0 2 2 3 4 3 7 0 5-2 6-9 7-8 1-11 3-12 8s1 7 5 8c10 3 13 5 11 9-1 4-4 6-8 6-6 0-8 3-7 9 0 4 0 5-2 8-3 3-8 3-10 0zM1185 152c-3-2-5-7-5-15l-1-12c-2-5-2-6 0-11 2-8 6-11 12-7 2 1 3 6 1 12v12c3 13 2 19-3 22-1 1-2 1-4-1zM1264 85c-3-2-8-2-25-3l-21-2a3119 3119 0 00-241-5l-4-3c-1-3-1-5 2-9 2-2 0-8-6-21-3-8-3-8-11-9-6-2-9-10-6-16l7-6c7-7 18-9 23-5 4 3 4 5 2 10-2 4-2 5-1 8v7c-1 4-1 5 2 13 5 14 10 19 16 18 3-1 3-4-1-8-4-6-5-7-5-17 0-13 2-17 8-17 5 0 6 2 6 12 0 12 2 14 6 6 6-12 13-12 15-1 1 5 0 10-5 14-4 5-6 9-5 10h18c1-1 2-2 2-10 0-17 3-32 9-36 4-3 10-3 14 1l3 4c0 2 4 5 5 5l2-5c1-5 4-7 10-8 6 0 12 1 18 6 5 3 6 5 8 10l3 9c0 4-3 12-7 16-3 3-4 5-2 6l5 2c4 0 5 0 7-2s2-3 1-14c-1-18 2-26 10-31 7-4 19-1 21 5 2 4 1 8-3 15l-4 9 7 7c5 5 7 6 9 6 3 0 3-1 3-10 1-8 2-11 5-18s5-8 7-9c5-2 8-2 11-1l10 12 4 25c0 5 2 6 16 6h11V49c0-11 0-13-2-14h-12c-5 2-7 0-7-5s3-8 12-9l11-4c5-2 10-2 10 1l2 22 1 21 5 3 31 6c5 0 7 1 9 5 2 3 1 5-2 9-3 3-4 3-8 3l-9-2zm-188-25c3 0 2-2 0-6-3-4-3-4-10-4h-9l-3 4-1 3 2 2c2 2 4 2 11 2l10-1zm103-1c3-2 2-5-1-6-3 0-6 3-6 6 1 1 5 2 7 0zm-85-19c2-3 2-4 1-7-1-4-2-4-4-4-3 0-3 0-4 5 0 3 0 6 2 8 2 3 3 2 5-2z"/>
  <path d="M1294 64c-9-3-12-4-16-9-4-6-5-6-7-2-2 3-7 3-10 0-1-2-2-4-2-13 0-13 1-18 5-19 2-1 3-1 6 1 2 1 2 3 3 8l1 6 6-4c4-5 5-5 10-6 5 0 6 0 8 2 4 3 2 8-5 12l-5 3c0 4 7 7 17 7 6 0 8 1 8 6 0 4-2 7-7 9-4 1-6 1-12-1z"/>
</svg>