<svg width="150" height="155" viewBox="0 0 150 155" fill="none" xmlns="http://www.w3.org/2000/svg">
<path d="M111.727 9.66334C100.129 3.09227 86.9845 0 72.6804 0C58.3763 0 45.6185 3.09227 33.634 9.66334C21.6495 16.2344 12.3711 25.5112 5.41235 37.1072C3.09276 40.9726 1.54639 44.8379 0 48.7032C39.8196 43.2918 68.0412 38.2668 71.134 38.2668C92.7835 38.2668 110.18 55.6609 110.18 77.3067C110.18 98.9526 92.7835 116.347 71.134 116.347C68.0412 116.347 39.8196 111.322 0 105.91C1.54639 109.776 3.09276 113.641 5.41235 117.506C12.3711 129.102 21.6495 138.379 33.634 144.95C45.6185 151.521 58.3763 155 72.6804 155C86.9845 155 99.7422 151.521 111.727 144.95C123.711 138.379 132.99 129.102 139.562 117.506C146.521 105.91 150 92.3816 150 77.6933C150 63.005 146.521 49.4763 139.562 37.8803C132.603 25.5112 123.325 16.2344 111.727 9.66334Z" fill="#9451EB"/>
<path d="M68 100C80.7025 100 91 89.7025 91 77C91 64.2975 80.7025 54 68 54C55.2975 54 45 64.2975 45 77C45 89.7025 55.2975 100 68 100Z" fill="#02E2AC"/>
</svg>
