<svg width="990" height="1522" viewBox="0 0 990 1522" fill="none" xmlns="http://www.w3.org/2000/svg">
  <g clip-path="url(#clip0)">
    <g filter="url(#filter0_df)">
      <path d="M694 1176c172 0 261.667 231 285 346.5H-13c0-243.6 216.333-345.5 324.5-366-9.333-1-36.4-30.9-70-142.5-42-139.5 42-324.5 25-380s-19.5-204 17-257-5.5-170.5 0-218 36-70 72.5-70 67 8.5 70 70 58 106 72 176-27.5 156.5-13.5 162 73-14 89.5-36.5 58.5-39 137-30.5 118 226 142.5 329.5C876 863 722 977.5 694 1014c-22.4 29.2-9.333 120.17 0 162z" fill="#110F4C"/>
    </g>
    <path d="M522.9 611c6.6 5.7 11 13.2 13.5 20.9 1.3 3.9 2.1 7.8 2.5 11.8.4 4 .4 8 .1 11.8-.6 7.8-2.5 15.2-4.8 22.2-1.2 3.5-2.5 6.9-3.8 10.2-1.4 3.3-2.8 6.6-4.2 9.8-5.8 13-12.1 25.6-19.1 38-3.5 6.2-7.2 12.3-11.2 18.2-4 6-8.3 11.8-13.4 17.3l-.1.1c-2.4 2.6-6.5 2.8-9.1.3-1.5-1.4-2.2-3.4-2-5.3 1.2-14.4 2.8-28.7 4.3-42.9s2.8-28.4 3.7-42.6c.4-7.1.7-14.1.8-21.2 0-7.1 0-14-2.1-19.2-.5-1.3-1.2-2.5-2-3.5-.8-1.1-1.8-2.1-2.9-3.1-2.3-2-5.1-3.7-8.1-5.5-1.5-.9-3.1-1.8-4.7-2.8-1.6-.9-3.1-1.9-4.7-2.9-3.1-1.9-6.1-4-9.1-6.1-12-8.4-23.1-18.2-32.8-29.2-4.9-5.5-9.4-11.3-13.5-17.4-1-1.5-2.1-3.1-3-4.6-1-1.6-1.9-3.1-2.8-4.7-.9-1.6-1.7-3.3-2.6-4.9l-1.3-2.5-1.2-2.5c-1.6-3.3-2.9-6.8-4.3-10.2l-1.8-5.2c-.6-1.7-1-3.5-1.5-5.3-1.9-7.1-3.3-14.4-4-21.7-1.4-14.7-.5-29.5 2.9-43.8.8-3.6 1.8-7.1 2.8-10.6 1.1-3.4 2.1-6.8 3.1-10.2 2-6.8 3.9-13.7 5.6-20.6 3.5-13.8 6.5-27.8 8.8-41.8 2.2-14.1 3.8-28.2 3.8-42.4-.1-14.1-1.5-28.4-7.2-41.4-5.3-13.4-10-27-14-40.8-4-13.8-7.3-27.8-9.5-42-2.1-14.2-3.3-28.6-1.9-43 .7-7.1 2-14.3 4.4-21.1 2.4-6.8 5.8-13.2 10.6-18.6-4.7 5.5-8 11.9-10.2 18.7-2.3 6.8-3.4 13.9-4 21-1 14.3.3 28.6 2.7 42.7 2.4 14.1 6 28 10.2 41.6 4.2 13.6 9.1 27.1 14.6 40.3 1.4 3.2 2.9 6.7 3.8 10.2 1.1 3.5 1.8 7.1 2.5 10.7 1.3 7.2 1.8 14.4 1.9 21.7.3 14.5-1 28.9-3 43.2-2 14.3-4.8 28.4-8.1 42.4-1.6 7-3.4 14-5.3 20.9-1 3.5-1.9 6.9-2.9 10.4-.9 3.4-1.9 6.8-2.5 10.2-3 13.7-3.5 27.8-2 41.6.8 6.9 2.2 13.8 4.2 20.4.5 1.7 1 3.3 1.5 5l1.8 4.9c1.3 3.2 2.6 6.4 4.2 9.5l1.1 2.3 1.2 2.3c.9 1.5 1.6 3.1 2.5 4.5.9 1.5 1.8 3 2.8 4.4.9 1.5 1.9 2.9 2.9 4.3 4 5.7 8.4 11.1 13.1 16.3 9.4 10.3 20.2 19.4 31.8 27.2 2.9 2 5.8 3.9 8.8 5.7l4.5 2.7c1.5.9 3 1.7 4.6 2.6 3.2 1.8 6.6 3.7 9.8 6.4 1.6 1.3 3.1 2.9 4.5 4.6 1.4 1.8 2.5 3.8 3.4 5.8 1.7 4 2.4 8.1 2.8 12 .4 3.9.4 7.5.5 11.2.1 7.3-.1 14.6-.4 21.8-1.3 28.9-4.5 57.5-6.4 85.9l-11.2-4.8c4.3-4.8 8.2-10.3 11.9-15.9 3.7-5.7 7.1-11.6 10.4-17.6 6.5-12 12.5-24.4 17.8-37.1 1.3-3.2 2.6-6.3 3.8-9.5 1.2-3.2 2.4-6.3 3.3-9.4 2-6.3 3.4-12.5 3.7-18.7.2-3.1.1-6.1-.2-9-.4-2.9-1-5.8-2-8.6-1.9-5.5-5-10.3-9.1-13.7-3.4-2.8-3.8-7.9-1-11.3 2.8-3.4 7.9-3.8 11.3-1 .1.2.2.2.2.2z" fill="#EBBB51"/>
    <path d="M416.2 284.7c-2.9 7.6-10.1 12.4-14 14.6-1.4.8-3.2.1-3.7-1.4-1.5-4.2-3.8-12.5-.9-20.2 2.9-7.6 10.1-12.4 14-14.6 1.4-.8 3.2-.1 3.7 1.4 1.5 4.2 3.8 12.6.9 20.2zM377.3 299c7.2 3.8 15.8 2.7 20.1 1.7 1.6-.4 2.5-2 1.9-3.5-1.6-4.1-5.5-11.9-12.7-15.7-7.2-3.8-15.8-2.7-20.1-1.7-1.6.4-2.5 2-1.9 3.5 1.7 4.1 5.5 11.9 12.7 15.7zm24-64.3c-.5-1.3-2-1.9-3.2-1.2-3.4 1.8-9.6 6-12 12.6-2.5 6.6-.5 13.8.8 17.4.5 1.3 2 1.9 3.2 1.2 3.4-1.8 9.6-6 12-12.6 2.4-6.6.5-13.8-.8-17.4zm-32.8 29.7c6.2 3.3 13.6 2.3 17.3 1.5 1.4-.3 2.1-1.7 1.6-3-1.4-3.6-4.7-10.3-10.9-13.5-6.2-3.3-13.6-2.3-17.3-1.5-1.4.3-2.1 1.7-1.6 3 1.4 3.5 4.7 10.2 10.9 13.5zm22.4-60.7c-.3-1.1-1.6-1.7-2.6-1.2-2.9 1.4-8.3 4.6-10.7 10-2.4 5.4-1.1 11.5-.2 14.6.3 1.1 1.6 1.7 2.6 1.2 2.9-1.4 8.3-4.6 10.7-10 2.4-5.3 1.2-11.5.2-14.6zm-28.8 23.4c5 3.1 11.3 2.6 14.5 2.1 1.2-.2 1.9-1.4 1.5-2.5-1-3.1-3.5-8.8-8.5-11.9-5-3.1-11.3-2.6-14.5-2.1-1.2.2-1.9 1.4-1.5 2.5 1 3.1 3.4 8.8 8.5 11.9zm25.3-47.7c-.1-1-1.1-1.6-2-1.3-2.6.7-7.4 2.6-10.1 6.7-2.7 4.1-2.5 9.3-2.1 11.9.1 1 1.1 1.6 2 1.3 2.6-.7 7.4-2.6 10.1-6.7 2.6-4.1 2.4-9.3 2.1-11.9zm-27.8 15.1c3.7 3.2 8.9 3.7 11.5 3.7 1 0 1.7-.9 1.6-1.8-.4-2.6-1.6-7.7-5.3-10.9-3.7-3.2-8.9-3.7-11.5-3.7-1 0-1.7.9-1.6 1.8.4 2.6 1.6 7.7 5.3 10.9zm28.3-39.2c.1-.8-.6-1.5-1.4-1.4-2.2.2-6.5.9-9.4 3.7-2.9 2.9-3.6 7.1-3.8 9.4-.1.8.6 1.5 1.4 1.4 2.2-.2 6.5-.9 9.4-3.7 2.9-2.9 3.6-7.2 3.8-9.4zm-24.4 7.8c2.5 3.2 6.6 4.5 8.8 4.9.8.2 1.5-.4 1.6-1.2.1-2.2 0-6.5-2.5-9.8-2.5-3.2-6.6-4.5-8.8-4.9-.8-.2-1.5.4-1.6 1.2-.1 2.3 0 6.6 2.5 9.8zm71 141.9c-.3-1.8-2-2.9-3.7-2.3-4.7 1.5-13.5 5.1-18.2 12.7-4.7 7.6-4.1 17.1-3.4 22 .3 1.8 2 2.9 3.7 2.3 4.7-1.5 13.5-5.1 18.2-12.7 4.8-7.7 4.2-17.2 3.4-22zM380 333.9c6.9 5.7 16.4 6.3 21.3 6.2 1.8 0 3.1-1.6 2.8-3.4-.9-4.8-3.3-14-10.2-19.7-6.9-5.7-16.4-6.3-21.3-6.2-1.8 0-3.1 1.6-2.8 3.4.8 4.8 3.3 14 10.2 19.7zm62 21.8c.2-2-1.5-3.8-3.6-3.6-5.7.4-16.5 2.1-23.9 9.4-7.4 7.3-9.2 18.1-9.7 23.8-.2 2 1.5 3.8 3.6 3.6 5.7-.4 16.5-2.1 23.9-9.4 7.4-7.3 9.3-18.2 9.7-23.8zm-68.2 19.5c6.3 8.2 16.8 11.5 22.3 12.7 2 .4 3.9-1 4-3.1.3-5.7 0-16.7-6.2-24.9-6.3-8.2-16.8-11.5-22.3-12.7-2-.4-3.9 1-4 3.1-.4 5.6-.1 16.6 6.2 24.9zm68.1 42.3c.6-2.4-1-4.9-3.5-5.1-6.9-.7-20.3-1-30.8 6.2s-15 19.8-16.8 26.5c-.6 2.4 1 4.9 3.5 5.1 6.9.7 20.3 1 30.8-6.2 10.4-7.2 15-19.8 16.8-26.5zm-82.6 10.1c5.8 11.3 17.7 17.4 24.1 20.1 2.3 1 4.9-.4 5.5-2.8 1.6-6.7 3.6-20-2.1-31.3-5.8-11.3-17.7-17.4-24.1-20.1-2.3-1-4.9.4-5.5 2.8-1.6 6.7-3.6 20 2.1 31.3zm71.3 43.5c.2-2.8-2.2-5.1-5-4.9-7.7.7-22.5 3.3-32.4 13.5-9.9 10.2-12.1 25-12.6 32.8-.2 2.8 2.2 5.1 5 4.9 7.7-.7 22.5-3.3 32.4-13.5 9.9-10.2 12.1-25 12.6-32.8zM343 499.5c8.8 11.1 23.3 15.3 30.9 16.8 2.8.5 5.3-1.5 5.5-4.3.3-7.7-.4-22.8-9.2-33.9-8.8-11.1-23.3-15.3-30.9-16.8-2.8-.5-5.3 1.5-5.5 4.3-.3 7.8.4 22.8 9.2 33.9zm97.7 16.3c-1.1-2.9-4.6-4.2-7.4-2.6-7.5 4.3-21.4 14-26.6 29-5.3 15-.5 31.2 2.6 39.3 1.1 2.9 4.6 4.2 7.4 2.6 7.5-4.3 21.4-14 26.6-29 5.3-15 .6-31.2-2.6-39.3zm-71.8 76.7c15.4 3.9 31.1-2.2 38.9-6.1 2.8-1.4 3.7-5 1.9-7.6-5-7.1-15.9-20-31.3-23.9-15.4-3.9-31.1 2.2-38.9 6.1-2.8 1.4-3.7 5-1.9 7.6 5.1 7.1 16 20 31.3 23.9z" fill="#02E2AC"/>
    <path d="M407.3 549.2c5.3-15 19.1-24.7 26.6-29 2.7-1.6 6.2-.4 7.4 2.6 1.3 3.3 2.9 8 3.9 13.5-.5-8.7-3-16.6-4.9-21.5-1.1-2.9-4.6-4.2-7.4-2.6-7.5 4.3-21.4 14-26.6 29-3.1 8.8-2.7 18.1-1.3 25.8-.3-5.7.3-11.8 2.3-17.8z" fill="#05AA7B"/>
    <path d="M393.443 486.45l-.003.003c-7.917 8.207-11.033 19.331-12.18 27.493a4.215 4.215 0 01-.561-2.413v-.001c.499-7.778 2.692-22.518 12.458-32.482l.002-.002c9.766-10.062 24.404-12.651 32.081-13.35 2.508-.176 4.638 1.885 4.461 4.365l-.042.559c-.07.926-.145 1.93-.259 2.987-.93-.566-2.011-.895-3.236-.808l-.009.001c-7.727.703-22.682 3.415-32.712 13.648z" stroke="#05AA7B"/>
    <path d="M340.2 568c7.8-3.9 23.5-10 38.9-6.1 13.2 3.4 23.1 13.3 28.8 20.6-.8-2.8-1.6-6-2.2-9.5-5.8-7.1-15.3-16-27.6-19.1-15.4-3.9-31.1 2.2-38.9 6.1-2.8 1.4-3.7 5-1.9 7.6.4.5.8 1.1 1.3 1.7.4-.5.9-1 1.6-1.3zM334.4 472.6c.1-2.8 2.7-4.8 5.5-4.3 7.6 1.5 22.1 5.7 30.9 16.8 4.5 5.7 6.9 12.5 8.1 18.8-.5-8-2.5-18.5-9.1-26.8-8.8-11.1-23.3-15.3-30.9-16.8-2.8-.5-5.3 1.5-5.5 4.3-.2 3.7-.1 9.2 1.1 15.1-.2-2.7-.1-5.1-.1-7.1z" fill="#05AA7B"/>
    <path d="M861.4 1520.8c-34-171.2-185-300.3-366.2-300.3S163 1349.6 129 1520.8" fill="#EBBB51"/>
    <path d="M536.3 1511.7c0-1.1.9-2 2-2h53.4c1.1 0 2 .9 2 2s-.9 2-2 2h-53.4c-1.1 0-2-.9-2-2zm61.1 8.2c0-1.1-.9-2-2-2h-60.8c-1.1 0-2 .9-2 2 0 .7.3 1.3.9 1.7h62.9c.7-.4 1-1 1-1.7zm-99.5-23v-276.6h-4v276.6c0 1.1.9 2 2 2s2-.9 2-2zm16.2 0v-276.1c-1.3-.1-2.7-.1-4-.2v276.3c0 1.1.9 2 2 2s2-.9 2-2zm-8.1 0v-276.4c-1.3 0-2.7-.1-4-.1v276.5c0 1.1.9 2 2 2s2-.9 2-2zm36.5 9h45c1.1 0 2-.9 2-2s-.9-2-2-2h-45c-1.1 0-2 .9-2 2s.9 2 2 2zm25-9v-269.4c-1.3-.3-2.7-.5-4-.8v270.2c0 1.1.9 2 2 2s2-.9 2-2zm8.1 0v-267.7c-1.3-.3-2.7-.6-4-.9v268.6c0 1.1.9 2 2 2s2-.9 2-2zm-24.3 0v-272.3c-1.3-.2-2.7-.4-4-.6v272.9c0 1.1.9 2 2 2s2-.9 2-2zm32.4 0v-265.8c-1.3-.3-2.7-.7-4-1v266.8c0 1.1.9 2 2 2s2-.9 2-2zm-24.3 0v-271c-1.3-.2-2.7-.5-4-.7v271.6c0 1.1.9 2 2 2s2-.8 2-1.9zm-69.6 0v-276.6c-1.3 0-2.7 0-4 .1v276.5c0 1.1.9 2 2 2s2-.9 2-2zm-65.5 0c0 1.1.9 2 2 2s2-.9 2-2v-270.7c-1.3.2-2.7.5-4 .7v270zm-16.2 0c0 1.1.9 2 2 2s2-.9 2-2v-267.5c-1.3.3-2.7.6-4 .9v266.6zm73.6 0v-276.4c-1.3 0-2.7.1-4 .2v276.2c0 1.1.9 2 2 2s2-.9 2-2zm-33.4 5h-45c-1.1 0-2 .9-2 2s.9 2 2 2h45c1.1 0 2-.9 2-2s-.9-2-2-2zm-7.8-5c0 1.1.9 2 2 2s2-.9 2-2v-273.3c-1.3.2-2.7.4-4 .6v272.7zm-8.1 0c0 1.1.9 2 2 2s2-.9 2-2v-272.1c-1.3.2-2.7.4-4 .7v271.4zm-16.2 0c0 1.1.9 2 2 2s2-.9 2-2v-269.2c-1.3.3-2.7.5-4 .8v268.4zm105.9 12.8h-53.4c-1.1 0-2 .9-2 2s.9 2 2 2h53.4c1.1 0 2-.9 2-2s-.9-2-2-2zm-69.6 0h-53.4c-1.1 0-2 .9-2 2s.9 2 2 2h53.4c1.1 0 2-.9 2-2s-.9-2-2-2zm75.3 10.2c0-1.1-.9-2-2-2H465c-1.1 0-2 .9-2 2 0 .7.3 1.3.9 1.7h62.9c.6-.4 1-1 1-1.7zm-69.6 0c0-1.1-.9-2-2-2h-60.8c-1.1 0-2 .9-2 2 0 .7.3 1.3.9 1.7h62.9c.6-.4 1-1 1-1.7zm14.7-14h45c1.1 0 2-.9 2-2s-.9-2-2-2h-45c-1.1 0-2 .9-2 2s.9 2 2 2z" fill="#110F4C"/>
    <path d="M465 1103.5h60.8c1.1 0 2-.9 2-2s-.9-2-2-2H465c-1.1 0-2 .9-2 2s.9 2 2 2zM456.2 1099.5h-60.8c-1.1 0-2 .9-2 2s.9 2 2 2h60.8c1.1 0 2-.9 2-2s-.9-2-2-2zM493.9 1220.6h4v-95.7c0-1.1-.9-2-2-2s-2 .9-2 2v95.7zM510.1 1221c1.3.1 2.7.1 4 .2V1125c0-1.1-.9-2-2-2s-2 .9-2 2v96zM502 1220.7c1.3 0 2.7.1 4 .1v-95.9c0-1.1-.9-2-2-2s-2 .9-2 2v95.8zM399.1 1111.8h53.4c1.1 0 2-.9 2-2s-.9-2-2-2h-53.4c-1.1 0-2 .9-2 2s.9 2 2 2zM432.4 1225.8c1.3-.2 2.7-.4 4-.7v-100.2c0-1.1-.9-2-2-2s-2 .9-2 2v100.9zM428.3 1226.5V1125c0-1.1-.9-2-2-2s-2 .9-2 2v102.3c1.3-.3 2.6-.6 4-.8zM440.5 1224.5c1.3-.2 2.7-.4 4-.6v-99c0-1.1-.9-2-2-2s-2 .9-2 2v99.6zM412.1 1229.7v-104.8c0-1.1-.9-2-2-2s-2 .9-2 2v105.7c1.3-.3 2.7-.6 4-.9zM420.2 1228v-103.1c0-1.1-.9-2-2-2s-2 .9-2 2v103.9c1.3-.2 2.7-.5 4-.8zM401.3 1117.5c0 1.1.9 2 2 2h45c1.1 0 2-.9 2-2s-.9-2-2-2h-45c-1.1 0-2 .9-2 2zM470.9 1117.5c0 1.1.9 2 2 2h45c1.1 0 2-.9 2-2s-.9-2-2-2h-45c-1.1 0-2 .9-2 2zM555.4 1225.6c1.3.2 2.7.4 4 .7V1125c0-1.1-.9-2-2-2s-2 .9-2 2v100.6zM547.3 1224.3c1.3.2 2.7.4 4 .6v-100c0-1.1-.9-2-2-2s-2 .9-2 2v99.4zM538.3 1111.8h53.4c1.1 0 2-.9 2-2s-.9-2-2-2h-53.4c-1.1 0-2 .9-2 2s.9 2 2 2zM540.5 1117.5c0 1.1.9 2 2 2h45c1.1 0 2-.9 2-2s-.9-2-2-2h-45c-1.1 0-2 .9-2 2zM563.5 1227c1.3.2 2.7.5 4 .8V1125c0-1.1-.9-2-2-2s-2 .9-2 2v102zM534.6 1103.5h60.8c1.1 0 2-.9 2-2s-.9-2-2-2h-60.8c-1.1 0-2 .9-2 2s.9 2 2 2zM468.7 1111.8h53.4c1.1 0 2-.9 2-2s-.9-2-2-2h-53.4c-1.1 0-2 .9-2 2s.9 2 2 2zM481.7 1220.9V1125c0-1.1-.9-2-2-2s-2 .9-2 2v96.1c1.4-.1 2.7-.2 4-.2zM583.7 1231.4V1125c0-1.1-.9-2-2-2s-2 .9-2 2v105.4c1.3.3 2.7.6 4 1zM489.8 1220.7V1125c0-1.1-.9-2-2-2s-2 .9-2 2v95.8c1.3-.1 2.7-.1 4-.1zM571.6 1228.6c1.3.3 2.7.6 4 .9V1125c0-1.1-.9-2-2-2s-2 .9-2 2v103.6z" fill="#9451EB"/>
    <path d="M713.8 590.4c-11 1.9-10.1 19.4-8.9 30.5 2.4 22.4 8.7 44.5 8.2 67.1-.7 30.4-18.7 47.7-37.7 71.4-1.7 2.2-3.5 4.4-5.3 6.7-1.4 1.8-4.3.2-3.4-2 26-66 35.6-128.3 32.7-198.5-1.2-29.1-.6-38-10.7-65.3-1.9-5.1-8.3-11.3-15.5-7.5-5.4 2.8-8.4 8-9.2 14.1-5.8 40.9-10.1 81.3-16.2 122.1-3.8 25.2-23.2 66.5-43.5 103.9-1.1 2-4.1.9-3.7-1.3 11.1-63.4 15.6-132.1-2.7-153.9-20.4-24.2-56.4-26.4-87.6-20.7-22.8 4.1-48.1 9.9-61.1 29.1-3.1 4.6-5.3 10.9-2.3 15.5 3.4 5.3 11.1 5.4 17.3 4.2 15.9-3 63-19.2 80.5 1.7 27.1 32.3-18.2 166.8-70.4 182.1-7.3 2.1-14.7-3.3-15.1-10.9-1-19.4 3.2-40 6.9-59.3 6-31.3 8.8-67.7-12.8-91.2-5.8-6.3-13.6-11.4-22.2-11.4s-17.4 6.7-17.5 15.3c0 3.6 1.3 7 2.4 10.4 11.1 35.8-11.6 72.1-28.3 105.6-22 44-35 92.8-34.3 141.9.3 21.8 6.8 72.7 23.5 109.9.3.7.6 1.5.6 2.3 2.4 23.2 9.5 51.4 17.7 81.5.5 1.7 2.1 3 3.9 3h191.3c2.4 0 4.3-2.2 4-4.6-2.1-15.1-3.6-29.5-4.3-43.3-.1-1.3-.1-2.9-.1-4.5 0-34.6 12-68.1 33.7-95 10-12.4 49.9-53.9 63.6-65.2 6-4.9 12.3-9.9 16.4-16.5 4.3-6.8 6-14.8 7.4-22.6l.1-.3c3.3-18.9 10.4-37 20.9-53.1 5.8-8.9 11.1-18.2 15.7-27.8 22.1-46.7-3.9-168.7-34-163.4z" fill="none" stroke="#9451EB" stroke-width="4" stroke-miterlimit="10"/>
    <path d="M682.9 1328.4c-6.1-6.3-12.4-6.5-18.8-.3.1-7.5.2-11.3.3-18.8 6.3-6.1 12.7-6 18.8.3-.1 7.6-.1 11.3-.3 18.8z" stroke="#110F4C" stroke-width="3" stroke-miterlimit="10"/>
    <path d="M368.4 1360.2c-12.5.3-21.9 9.1-34.5 9.4 1.3-11 2.5-22 3.8-32.9 12.5-.3 21.9-9.1 34.5-9.4-1.3 11-2.5 22-3.8 32.9zM635 1401.2c-6.2-9.7-6.8-14.8-2.8-25.5 10.8 4 15.9 3.4 25.5-2.8 6.2 9.7 6.8 14.8 2.8 25.5-10.7-4-15.8-3.4-25.5 2.8z" fill="#110F4C"/>
    <path d="M255.5 1460c2.8-8.4-4.3-15.5-1.5-23.9 8.4 2.8 12.7 4.2 21.1 7-2.8 8.4 4.3 15.5 1.5 23.9-8.4-2.8-12.7-4.2-21.1-7z" stroke="#110F4C" stroke-width="3" stroke-miterlimit="10"/>
    <path d="M353.5 891.1c-.7-49.1 12.3-98 34.3-141.9 16.7-33.5 39.4-69.8 28.3-105.6-1.1-3.4-2.4-6.8-2.4-10.4.1-8.6 8.9-15.2 17.5-15.3 8.6 0 16.4 5.1 22.2 11.4 21.5 23.5 18.7 59.9 12.8 91.2-6 31.3-13.3 65.7 2.2 93.5 8 14.4 21.5 25.3 28.9 40.1 6.4 12.7 7.8 27.3 7.5 41.6-.4 29.4-7.6 58.5-20.4 85-10.1 20.9-30.5 61-56.9 63.3-55 4.6-73.5-116-74-152.9z" stroke="#9451EB" stroke-width="4" stroke-miterlimit="10"/>
  </g>
</svg>