<svg xmlns="http://www.w3.org/2000/svg" xmlns:xlink="http://www.w3.org/1999/xlink" viewBox="0 0 105 25" fill="#fff" fill-rule="evenodd" stroke="#000" stroke-linecap="round" stroke-linejoin="round"><use xlink:href="#A" x=".5" y=".5"/><symbol id="A" overflow="visible"><g stroke="none"><path d="M19.074 11.634a7.63 7.63 0 0 1-1.157 4.041l2.987 3.001c1.463-1.958 2.377-4.407 2.377-7.04s-.914-5.08-2.377-7.04l-2.987 3.001c.765 1.208 1.167 2.611 1.158 4.041z" fill="#b8d3f4"/><path d="M11.641 19.101c-4.084 0-7.437-3.367-7.437-7.468s3.352-7.468 7.437-7.468c1.524 0 2.864.429 4.023 1.224l2.987-3.001C16.69.918 14.263 0 11.641 0 5.241 0 0 5.204 0 11.692s5.243 11.641 11.641 11.641c2.682 0 5.119-.918 7.061-2.387l-2.987-3.001a7.56 7.56 0 0 1-4.084 1.163z" fill="#3385ff"/><path d="M100.602 13.569c-.543.004-1.061-.226-1.422-.632-.02-.039-.02-.078.02-.098l3.318-1.403.968-.415c.039-.02.039-.039.039-.059a2.98 2.98 0 0 0-3.021-2.311c-1.54.059-2.825 1.304-2.883 2.844a2.99 2.99 0 0 0 3.001 3.138c1.244 0 2.311-.77 2.766-1.856.02-.039 0-.078-.039-.078l-.968-.177c-.02 0-.059 0-.059.039-.355.592-.988 1.007-1.718 1.007zm0-3.831a1.87 1.87 0 0 1 1.422.651c.02.039.02.078-.02.098l-3.238 1.373c-.016.007-.033.006-.049-.002s-.026-.021-.031-.038v-.158c-.02-1.086.849-1.935 1.915-1.935zm-3.121-.988h-.947c-.02 0-.039.02-.059.039l-1.54 4.511c-.039.098-.157.098-.196 0l-1.54-4.511c0-.02-.02-.039-.059-.039h-.947c-.039 0-.059.039-.059.078l1.955 5.686c0 .02.02.039.059.039h1.344c.02 0 .039-.02.059-.039l1.955-5.686c.039-.039.02-.078-.02-.078zm-6.237 0h-.968c-.039 0-.059.02-.059.059v5.686c0 .039.02.059.059.059h.968c.039 0 .059-.02.059-.059V8.819c0-.02-.02-.059-.059-.059zm0-1.856h-.968c-.039 0-.059.02-.059.059v.968c0 .039.02.059.059.059h.968c.039 0 .059-.02.059-.059v-.968c0-.039-.02-.059-.059-.059zM89.248 8.75h-1.086c-.02 0-.039-.02-.039-.039V6.243c0-.039-.02-.059-.059-.059h-.959c-.039 0-.059.02-.059.059v2.478c0 .02-.02.039-.039.039h-1.066c-.039 0-.059.02-.059.059v.968c0 .039.02.059.059.059h1.066c.02 0 .039.02.039.039v4.609c0 .039.02.059.059.059h.968c.039 0 .059-.02.059-.059V9.885c0-.02.02-.039.039-.039h1.086c.039 0 .059-.02.059-.059v-.968c0-.02-.039-.059-.059-.059zm-6.339 4.819a1.93 1.93 0 0 1-1.896-2.29c.118-.672.79-1.373 1.471-1.501.681-.156 1.392.071 1.856.592a.06.06 0 0 0 .079 0l.691-.691a.06.06 0 0 0 0-.078 2.99 2.99 0 0 0-2.35-.968 3.05 3.05 0 0 0-2.864 2.844 2.99 2.99 0 0 0 3.001 3.138 3.03 3.03 0 0 0 2.212-.968c.02-.02.02-.039 0-.059l-.691-.691a.06.06 0 0 0-.078 0c-.335.434-.849.672-1.422.672zm-6.457 0c-.543.004-1.061-.226-1.422-.632-.02-.039-.02-.078.02-.098l3.318-1.403.968-.415c.039-.02.039-.039.039-.059a2.98 2.98 0 0 0-3.021-2.311c-1.54.059-2.825 1.304-2.883 2.844a2.99 2.99 0 0 0 3.001 3.138c1.244 0 2.311-.77 2.766-1.856.02-.039 0-.078-.039-.078l-.968-.177c-.02 0-.059 0-.059.039-.355.592-1.007 1.007-1.718 1.007zm0-3.831a1.87 1.87 0 0 1 1.422.651c.02.039.02.078-.02.098l-3.238 1.373c-.016.007-.033.006-.049-.002s-.026-.021-.031-.038v-.158c-.02-1.086.849-1.935 1.915-1.935zM72.64 6.184h-.968c-.039 0-.059.02-.059.059v8.254c0 .039.02.059.059.059h.968c.039 0 .059-.02.059-.059V6.243c0-.039-.039-.059-.059-.059zm-2.114 0h-.978c-.039 0-.059.02-.059.059v8.254c0 .039.02.059.059.059h.968c.039 0 .059-.02.059-.059V6.243c-.02-.039-.039-.059-.059-.059zm-4.739 3.554a1.92 1.92 0 0 1 1.915 1.915 1.93 1.93 0 0 1-1.915 1.915 1.93 1.93 0 0 1-1.915-1.915 1.92 1.92 0 0 1 1.915-1.915zm0-1.086a3 3 0 1 0 2.599 4.502 3 3 0 0 0-2.599-4.502zm-5.508 4.917a1.93 1.93 0 0 1-1.896-2.29c.118-.672.789-1.373 1.471-1.501.681-.156 1.392.071 1.856.592a.06.06 0 0 0 .078 0l.691-.691a.06.06 0 0 0 0-.078 2.99 2.99 0 0 0-2.35-.968 3.05 3.05 0 0 0-2.864 2.844 2.99 2.99 0 0 0 3.001 3.138 3.03 3.03 0 0 0 2.212-.968c.02-.02.02-.039 0-.059l-.691-.691a.06.06 0 0 0-.078 0c-.335.434-.849.672-1.422.672zm-9.815-4.917c-.666.028-1.286.345-1.699.869-.02.039-.098.02-.098-.02V8.81c0-.02-.02-.059-.059-.059h-.968c-.02 0-.059.02-.059.059v5.706c0 .02.02.059.059.059h.968c.02 0 .059-.02.059-.059v-2.853c0-1.086.731-1.856 1.777-1.856 1.373 0 1.797.908 1.797 1.974v2.726c0 .02.02.059.059.059h.968c.02 0 .059-.02.059-.059V11.79c.02-1.667-.77-3.138-2.864-3.138zm-6.378 4.916c-.543.004-1.061-.226-1.422-.631-.02-.039-.02-.079.02-.098l3.318-1.402.968-.415c.039-.02.039-.039.039-.059a2.98 2.98 0 0 0-3.021-2.311c-1.54.059-2.825 1.304-2.883 2.844a2.99 2.99 0 0 0 3.001 3.138c1.244 0 2.311-.77 2.766-1.855.02-.039 0-.079-.039-.079l-.968-.176c-.02 0-.059 0-.059.039-.355.592-.988 1.007-1.718 1.007zm0-3.831a1.87 1.87 0 0 1 1.422.651c.02.039.02.079-.02.098l-3.238 1.373c-.016.007-.033.006-.049-.002s-.026-.021-.031-.038v-.158a1.92 1.92 0 0 1 1.915-1.935zM37.53 8.593c-.75.02-1.344.316-1.758.809-.039.039-.098.02-.098-.039V8.81c0-.039-.02-.059-.059-.059h-.968c-.039 0-.059.02-.059.059v8.274c0 .039.02.059.059.059h.947c.039 0 .059-.02.059-.059v-3.258c0-.059.059-.079.098-.039.415.493 1.027.809 1.816.809 1.837 0 3.297-1.667 2.942-3.554-.237-1.442-1.54-2.469-2.981-2.448zm.376 4.897a1.92 1.92 0 0 1-2.211-2.212 1.93 1.93 0 0 1 1.569-1.569 1.92 1.92 0 0 1 2.212 2.211c-.118.79-.77 1.422-1.569 1.569zm-6.872-4.838a3 3 0 1 0 2.599 4.502 3 3 0 0 0-2.599-4.502zm0 1.086a1.92 1.92 0 0 1 1.915 1.915 1.93 1.93 0 0 1-1.915 1.915 1.93 1.93 0 0 1-1.915-1.915 1.93 1.93 0 0 1 1.915-1.915z" fill="#7a7b82" fill-rule="nonzero"/></g></symbol></svg>