<svg width="16" height="15" viewBox="0 0 16 15" fill="none" xmlns="http://www.w3.org/2000/svg">
<g clip-path="url(#clip0)">
<path fill-rule="evenodd" clip-rule="evenodd" d="M7.75 1.25C5.67893 1.25 4 2.92893 4 5C4 7.07107 5.67893 8.75 7.75 8.75C9.82107 8.75 11.5 7.07107 11.5 5C11.5 2.92893 9.82107 1.25 7.75 1.25ZM2.75 5C2.75 2.23858 4.98858 0 7.75 0C10.5114 0 12.75 2.23858 12.75 5C12.75 7.76142 10.5114 10 7.75 10C4.98858 10 2.75 7.76142 2.75 5Z" fill="#6B37FF"/>
<path fill-rule="evenodd" clip-rule="evenodd" d="M10.0366 8.05543C10.3787 8.01003 10.6929 8.25062 10.7383 8.5928L11.4946 14.2928C11.5261 14.5307 11.4187 14.7657 11.2181 14.8974C11.0175 15.0291 10.7592 15.0344 10.5535 14.9109L7.75002 13.2289L4.94657 14.9109C4.74078 15.0344 4.48246 15.0291 4.28187 14.8974C4.08128 14.7656 3.97386 14.5306 4.00546 14.2927L4.76171 8.59896C4.80715 8.25679 5.12138 8.01624 5.46356 8.06169C5.80573 8.10714 6.04627 8.42137 6.00082 8.76354L5.41529 13.172L7.42846 11.9641C7.62638 11.8453 7.87365 11.8453 8.07158 11.9641L10.0849 13.1721L9.49919 8.7572C9.4538 8.41502 9.69438 8.10083 10.0366 8.05543Z" fill="#6B37FF"/>
</g>
<defs>
<clipPath id="clip0">
<rect width="15" height="15" fill="white" transform="translate(0.25)"/>
</clipPath>
</defs>
</svg>
