<svg width="22" height="22" viewBox="0 0 22 22" fill="none" xmlns="http://www.w3.org/2000/svg">
<path fill-rule="evenodd" clip-rule="evenodd" d="M11 2C6.02944 2 2 6.02944 2 11C2 15.9706 6.02944 20 11 20C15.9706 20 20 15.9706 20 11C20 6.02944 15.9706 2 11 2ZM0 11C0 4.92487 4.92487 0 11 0C17.0751 0 22 4.92487 22 11C22 17.0751 17.0751 22 11 22C4.92487 22 0 17.0751 0 11Z" fill="#C6C6C6"/>
<path fill-rule="evenodd" clip-rule="evenodd" d="M11 8C9.34315 8 8 9.34315 8 11C8 12.6569 9.34315 14 11 14C12.6569 14 14 12.6569 14 11C14 9.34315 12.6569 8 11 8ZM6 11C6 8.23858 8.23858 6 11 6C13.7614 6 16 8.23858 16 11C16 13.7614 13.7614 16 11 16C8.23858 16 6 13.7614 6 11Z" fill="#C6C6C6"/>
<path fill-rule="evenodd" clip-rule="evenodd" d="M3.22289 3.22289C3.61342 2.83237 4.24658 2.83237 4.63711 3.22289L8.87711 7.46289C9.26763 7.85342 9.26763 8.48658 8.87711 8.87711C8.48658 9.26763 7.85342 9.26763 7.46289 8.87711L3.22289 4.63711C2.83237 4.24658 2.83237 3.61342 3.22289 3.22289Z" fill="#C6C6C6"/>
<path fill-rule="evenodd" clip-rule="evenodd" d="M13.1229 13.1229C13.5134 12.7324 14.1466 12.7324 14.5371 13.1229L18.7771 17.3629C19.1676 17.7534 19.1676 18.3866 18.7771 18.7771C18.3866 19.1676 17.7534 19.1676 17.3629 18.7771L13.1229 14.5371C12.7324 14.1466 12.7324 13.5134 13.1229 13.1229Z" fill="#C6C6C6"/>
<path fill-rule="evenodd" clip-rule="evenodd" d="M18.7771 3.22289C19.1676 3.61342 19.1676 4.24658 18.7771 4.63711L14.5371 8.87711C14.1466 9.26763 13.5134 9.26763 13.1229 8.87711C12.7324 8.48658 12.7324 7.85342 13.1229 7.46289L17.3629 3.22289C17.7534 2.83237 18.3866 2.83237 18.7771 3.22289Z" fill="#C6C6C6"/>
<path fill-rule="evenodd" clip-rule="evenodd" d="M18.0671 3.93289C18.4576 4.32342 18.4576 4.95658 18.0671 5.34711L14.5371 8.87711C14.1466 9.26763 13.5134 9.26763 13.1229 8.87711C12.7324 8.48658 12.7324 7.85342 13.1229 7.46289L16.6529 3.93289C17.0434 3.54237 17.6766 3.54237 18.0671 3.93289Z" fill="#C6C6C6"/>
<path fill-rule="evenodd" clip-rule="evenodd" d="M8.87711 13.1229C9.26763 13.5134 9.26763 14.1466 8.87711 14.5371L4.63711 18.7771C4.24658 19.1676 3.61342 19.1676 3.22289 18.7771C2.83237 18.3866 2.83237 17.7534 3.22289 17.3629L7.46289 13.1229C7.85342 12.7324 8.48658 12.7324 8.87711 13.1229Z" fill="#C6C6C6"/>
</svg>
