<svg width="427" height="118" viewBox="0 0 427 118" fill="none" xmlns="http://www.w3.org/2000/svg">
<rect opacity="0.77" width="5.86938" height="11.0051" transform="matrix(0.951057 -0.309017 -0.309017 -0.951057 294.614 12.2802)" fill="#9551F0"/>
<rect opacity="0.81" width="4.09377" height="7.67581" transform="matrix(0.866025 0.5 0.5 -0.866025 152.988 10.4307)" fill="#9551F0"/>
<rect opacity="0.73" width="5.22818" height="9.80284" transform="matrix(-0.994522 0.104528 0.104528 0.994522 111.856 17.829)" fill="#FF4337"/>
<rect opacity="0.89" width="5.42547" height="10.1728" transform="matrix(-0.766044 0.642788 0.642788 0.766044 333.455 29.455)" fill="#FFD337"/>
<rect width="3.05799" height="5.73374" transform="matrix(0.241922 -0.970296 -0.970296 -0.241922 178.266 25.1393)" fill="#3744FF"/>
<rect opacity="0.85" width="4.19241" height="7.86077" transform="matrix(-0.469472 0.882948 0.882948 0.469472 12.595 18.3574)" fill="#FFD337"/>
<rect opacity="0.95" width="3.55122" height="6.65854" transform="matrix(-1 0 0 1 426.375 42.3141)" fill="#9551F0"/>
<rect opacity="0.91" width="4.04444" height="7.58333" transform="matrix(0.515038 0.857167 0.857167 -0.515038 378.462 34.2992)" fill="#FFD337"/>
<rect opacity="0.95" width="4.68564" height="8.78557" transform="matrix(0.292372 0.956305 0.956305 -0.292372 134.492 46.0132)" fill="#09E2AF"/>
<rect opacity="0.8" width="5.08022" height="9.52541" transform="matrix(-0.777146 0.62932 0.62932 0.777146 3.94806 44)" fill="#9551F0"/>
<rect opacity="0.77" width="5.42547" height="10.1728" transform="matrix(-0.99863 -0.052336 -0.052336 0.99863 394.932 52.0905)" fill="#09E2AF"/>
<rect opacity="0.91" width="5.08022" height="9.52541" transform="matrix(0.469472 0.882948 0.882948 -0.469472 340 92.4719)" fill="#FF4337"/>
<rect opacity="0.74" width="4.73496" height="8.87805" transform="matrix(-0.999391 0.0348995 0.0348995 0.999391 253.482 63.188)" fill="#FFD337"/>
<rect opacity="0.76" width="3.35393" height="6.28862" transform="matrix(0.93358 -0.358368 -0.358368 -0.93358 92.1275 61.955)" fill="#9551F0"/>
<rect opacity="0.94" width="3.64986" height="6.8435" transform="matrix(-0.970296 -0.241922 -0.241922 0.970296 302.012 75.4307)" fill="#9551F0"/>
<rect opacity="0.94" width="4.29106" height="8.04573" transform="matrix(-0.857167 -0.515038 -0.515038 0.857167 183.815 79.1298)" fill="#09E2AF"/>
<rect opacity="0.87" width="3.40325" height="6.3811" transform="matrix(0.0871557 0.996195 0.996195 -0.0871557 131.585 77.8967)" fill="#9551F0"/>
<rect opacity="0.94" width="3.84715" height="7.21341" transform="matrix(0.0697565 -0.997564 -0.997564 -0.0697565 390.793 90.7559)" fill="#FFD337"/>
<rect opacity="0.75" width="4.68564" height="8.78557" transform="matrix(0.97437 0.224951 0.224951 -0.97437 192.446 91.3723)" fill="#FF4337"/>
<rect opacity="0.7" width="5.08022" height="9.52541" transform="matrix(0.898794 0.438371 0.438371 -0.898794 78.5638 91.3723)" fill="#9551F0"/>
<rect opacity="0.84" width="5.12954" height="9.61789" transform="matrix(-0.992546 0.121869 0.121869 0.992546 291.531 99.2992)" fill="#09E2AF"/>
<rect opacity="0.79" width="3.69919" height="6.93598" transform="matrix(-0.438371 0.898794 0.898794 0.438371 215.874 110.397)" fill="#3744FF"/>
<rect opacity="0.89" width="4.19241" height="7.86077" transform="matrix(-0.766044 0.642788 0.642788 0.766044 13.2115 109.164)" fill="#FF4337"/>
</svg>
