<svg width="1179" height="786" viewBox="0 0 1179 786" fill="none" xmlns="http://www.w3.org/2000/svg">
<g clip-path="url(#clip0)">
<rect width="1179" height="786" fill="white"/>
<path d="M0 0H1183V614L0 754V0Z" fill="#0E0C4D"/>
<rect opacity="0.96" x="73.3469" y="14.0322" width="3.5019" height="6.56606" transform="rotate(-41 73.3469 14.0322)" fill="#09E2AF"/>
<rect opacity="0.7" x="153.936" y="28.2124" width="5.72141" height="10.7276" transform="rotate(36 153.936 28.2124)" fill="#09E2AF"/>
<rect opacity="0.94" x="302.344" y="26.3628" width="3.05799" height="5.73374" transform="rotate(155 302.344 26.3628)" fill="#09E2AF"/>
<rect opacity="0.77" x="476.646" y="23.2803" width="5.86938" height="11.0051" transform="rotate(-162 476.646 23.2803)" fill="#9551F0"/>
<rect opacity="0.81" x="618.272" y="21.4307" width="4.09377" height="7.67581" transform="rotate(150 618.272 21.4307)" fill="#9551F0"/>
<rect opacity="0.73" x="659.404" y="28.8291" width="5.22818" height="9.80284" transform="rotate(6 659.404 28.8291)" fill="#FF4337"/>
<rect opacity="0.81" x="20.9417" y="36.7559" width="3.05799" height="5.73374" transform="rotate(-132 20.9417 36.7559)" fill="#3744FF"/>
<rect opacity="0.86" x="182.297" y="36.1392" width="4.53767" height="8.50813" transform="rotate(161 182.297 36.1392)" fill="#3744FF"/>
<rect opacity="0.89" x="254.255" y="44.7705" width="3.55122" height="6.65854" transform="rotate(-124 254.255 44.7705)" fill="#3744FF"/>
<rect opacity="0.89" x="437.805" y="40.4551" width="5.42547" height="10.1728" transform="rotate(40 437.805 40.4551)" fill="#FFD337"/>
<rect x="592.995" y="36.1392" width="3.05799" height="5.73374" transform="rotate(-104 592.995 36.1392)" fill="#3744FF"/>
<rect opacity="0.85" x="758.665" y="29.3574" width="4.19241" height="7.86077" transform="rotate(62 758.665 29.3574)" fill="#FFD337"/>
<rect x="223.604" y="60.0957" width="3.25528" height="6.10366" transform="rotate(-92 223.604 60.0957)" fill="#3744FF"/>
<rect opacity="0.95" x="344.885" y="53.314" width="3.55122" height="6.65854" fill="#9551F0"/>
<rect opacity="0.91" x="392.798" y="45.2993" width="4.04444" height="7.58333" transform="rotate(121 392.798 45.2993)" fill="#FFD337"/>
<rect opacity="0.95" x="636.768" y="57.0132" width="4.68564" height="8.78557" transform="rotate(107 636.768 57.0132)" fill="#09E2AF"/>
<rect opacity="0.8" x="676.667" y="57.0132" width="5.08022" height="9.52541" transform="rotate(39 676.667 57.0132)" fill="#9551F0"/>
<rect opacity="0.88" x="115.271" y="65.5566" width="3.40325" height="6.3811" transform="rotate(-52 115.271 65.5566)" fill="#09E2AF"/>
<rect opacity="0.77" x="243.95" y="61.8574" width="3.10732" height="5.82622" transform="rotate(-3 243.95 61.8574)" fill="#FF4337"/>
<rect opacity="0.77" x="376.328" y="63.0903" width="5.42547" height="10.1728" transform="rotate(-3 376.328 63.0903)" fill="#09E2AF"/>
<rect opacity="0.91" x="454.451" y="72.9551" width="5.08022" height="9.52541" transform="rotate(118 454.451 72.9551)" fill="#FF4337"/>
<rect opacity="0.74" x="517.778" y="74.188" width="4.73496" height="8.87805" transform="rotate(2 517.778 74.188)" fill="#FFD337"/>
<rect opacity="0.76" x="679.133" y="72.9551" width="3.35393" height="6.28862" transform="rotate(-159 679.133 72.9551)" fill="#9551F0"/>
<rect opacity="0.9" x="14.7764" y="87.6636" width="5.27751" height="9.89532" transform="rotate(129 14.7764 87.6636)" fill="#FFD337"/>
<rect opacity="0.74" x="185.996" y="78.4155" width="5.08022" height="9.52541" transform="rotate(134 185.996 78.4155)" fill="#FFD337"/>
<rect x="302.344" y="85.814" width="3.40325" height="6.3811" transform="rotate(81 302.344 85.814)" fill="#FFD337"/>
<rect opacity="0.94" x="469.248" y="86.4307" width="3.64986" height="6.8435" transform="rotate(-14 469.248 86.4307)" fill="#9551F0"/>
<rect opacity="0.94" x="587.446" y="90.1299" width="4.29106" height="8.04573" transform="rotate(-31 587.446 90.1299)" fill="#09E2AF"/>
<rect opacity="0.87" x="639.675" y="88.897" width="3.40325" height="6.3811" transform="rotate(95 639.675 88.897)" fill="#9551F0"/>
<rect opacity="0.98" x="40.6707" y="96.207" width="2.95935" height="5.54878" transform="rotate(149 40.6707 96.207)" fill="#9551F0"/>
<rect opacity="0.85" x="210.657" y="103.605" width="3.00867" height="5.64126" transform="rotate(65 210.657 103.605)" fill="#3744FF"/>
<rect opacity="0.86" x="293.713" y="102.989" width="4.58699" height="8.60061" transform="rotate(-109 293.713 102.989)" fill="#9551F0"/>
<rect opacity="0.94" x="380.468" y="101.756" width="3.84715" height="7.21341" transform="rotate(-94 380.468 101.756)" fill="#FFD337"/>
<rect opacity="0.75" x="578.814" y="102.373" width="4.68564" height="8.78557" transform="rotate(167 578.814 102.373)" fill="#FF4337"/>
<rect opacity="0.7" x="692.696" y="102.373" width="5.08022" height="9.52541" transform="rotate(154 692.696 102.373)" fill="#9551F0"/>
<rect opacity="0.77" x="118.97" y="120.164" width="2.95935" height="5.54878" transform="rotate(113 118.97 120.164)" fill="#FF4337"/>
<rect opacity="0.81" x="159.485" y="110.916" width="4.34038" height="8.13821" transform="rotate(-12 159.485 110.916)" fill="#FF4337"/>
<rect opacity="0.98" x="261.653" y="116.464" width="3.60054" height="6.75102" transform="rotate(-39 261.653 116.464)" fill="#FFD337"/>
<rect opacity="0.84" x="479.729" y="110.299" width="5.12954" height="9.61789" transform="rotate(7 479.729 110.299)" fill="#09E2AF"/>
<rect opacity="0.79" x="555.386" y="121.396" width="3.69919" height="6.93598" transform="rotate(64 555.386 121.396)" fill="#3744FF"/>
<rect opacity="0.89" x="758.049" y="120.164" width="4.19241" height="7.86077" transform="rotate(40 758.049 120.164)" fill="#FF4337"/>
<rect opacity="0.74" x="779.929" y="25.1299" width="4.88293" height="9.15549" transform="rotate(122 779.929 25.1299)" fill="#9551F0"/>
<rect opacity="0.96" x="891.345" y="14.0322" width="3.5019" height="6.56606" transform="rotate(-41 891.345 14.0322)" fill="#09E2AF"/>
<rect opacity="0.7" x="971.934" y="28.2124" width="5.72141" height="10.7276" transform="rotate(36 971.934 28.2124)" fill="#09E2AF"/>
<rect opacity="0.94" x="1120.34" y="26.3628" width="3.05799" height="5.73374" transform="rotate(155 1120.34 26.3628)" fill="#09E2AF"/>
<rect opacity="0.89" x="699.163" y="39.8384" width="3.40325" height="6.3811" transform="rotate(-148 699.163 39.8384)" fill="#FFD337"/>
<rect opacity="0.81" x="838.939" y="36.7559" width="3.05799" height="5.73374" transform="rotate(-132 838.939 36.7559)" fill="#3744FF"/>
<rect opacity="0.86" x="1000.29" y="36.1392" width="4.53767" height="8.50813" transform="rotate(161 1000.29 36.1392)" fill="#3744FF"/>
<rect opacity="0.89" x="1072.25" y="44.7705" width="3.55122" height="6.65854" transform="rotate(-124 1072.25 44.7705)" fill="#3744FF"/>
<rect opacity="0.93" x="792.259" y="50.2314" width="4.3897" height="8.23069" transform="rotate(-128 792.259 50.2314)" fill="#3744FF"/>
<rect opacity="0.98" x="813.662" y="53.9307" width="4.58699" height="8.60061" transform="rotate(55 813.662 53.9307)" fill="#FFD337"/>
<rect x="1041.6" y="60.0957" width="3.25528" height="6.10366" transform="rotate(-92 1041.6 60.0957)" fill="#3744FF"/>
<rect opacity="0.95" x="1162.88" y="53.314" width="3.55122" height="6.65854" fill="#9551F0"/>
<rect opacity="0.99" x="692.998" y="61.2407" width="3.45257" height="6.47358" transform="rotate(-75 692.998 61.2407)" fill="#3744FF"/>
<rect opacity="0.88" x="933.269" y="65.5566" width="3.40325" height="6.3811" transform="rotate(-52 933.269 65.5566)" fill="#09E2AF"/>
<rect opacity="0.77" x="1061.95" y="61.8574" width="3.10732" height="5.82622" transform="rotate(-3 1061.95 61.8574)" fill="#FF4337"/>
<rect opacity="0.99" x="797.192" y="89.5132" width="3.40325" height="6.3811" transform="rotate(-167 797.192 89.5132)" fill="#FFD337"/>
<rect opacity="0.9" x="832.774" y="87.6636" width="5.27751" height="9.89532" transform="rotate(129 832.774 87.6636)" fill="#FFD337"/>
<rect opacity="0.74" x="1003.99" y="78.4155" width="5.08022" height="9.52541" transform="rotate(134 1003.99 78.4155)" fill="#FFD337"/>
<rect x="1120.34" y="85.814" width="3.40325" height="6.3811" transform="rotate(81 1120.34 85.814)" fill="#FFD337"/>
<rect opacity="0.79" x="789.793" y="97.4399" width="5.52412" height="10.3577" transform="rotate(-56 789.793 97.4399)" fill="#09E2AF"/>
<rect opacity="0.98" x="858.668" y="96.207" width="2.95935" height="5.54878" transform="rotate(149 858.668 96.207)" fill="#9551F0"/>
<rect opacity="0.85" x="1028.66" y="103.605" width="3.00867" height="5.64126" transform="rotate(65 1028.66 103.605)" fill="#3744FF"/>
<rect opacity="0.86" x="1111.71" y="102.989" width="4.58699" height="8.60061" transform="rotate(-109 1111.71 102.989)" fill="#9551F0"/>
<rect opacity="0.73" x="796.575" y="122.63" width="3.74851" height="7.02845" transform="rotate(95 796.575 122.63)" fill="#09E2AF"/>
<rect opacity="0.77" x="936.968" y="120.164" width="2.95935" height="5.54878" transform="rotate(113 936.968 120.164)" fill="#FF4337"/>
<rect opacity="0.81" x="977.483" y="110.916" width="4.34038" height="8.13821" transform="rotate(-12 977.483 110.916)" fill="#FF4337"/>
<rect opacity="0.98" x="1079.65" y="116.464" width="3.60054" height="6.75102" transform="rotate(-39 1079.65 116.464)" fill="#FFD337"/>
<rect opacity="0.74" width="4.88293" height="9.15549" transform="matrix(0.529919 0.848048 0.848048 -0.529919 699.898 78.0991)" fill="#9551F0"/>
<rect opacity="0.96" width="3.5019" height="6.56606" transform="matrix(-0.75471 -0.656059 -0.656059 0.75471 588.482 67.0015)" fill="#09E2AF"/>
<rect opacity="0.7" width="5.72141" height="10.7276" transform="matrix(-0.809017 0.587785 0.587785 0.809017 507.893 81.1816)" fill="#09E2AF"/>
<rect opacity="0.94" width="3.05799" height="5.73374" transform="matrix(0.906308 0.422618 0.422618 -0.906308 359.485 79.332)" fill="#09E2AF"/>
<rect opacity="0.77" width="5.86938" height="11.0051" transform="matrix(0.951057 -0.309017 -0.309017 -0.951057 185.183 76.2495)" fill="#9551F0"/>
<rect opacity="0.81" width="4.09377" height="7.67581" transform="matrix(0.866025 0.5 0.5 -0.866025 43.5571 74.3999)" fill="#9551F0"/>
<rect opacity="0.73" width="5.22818" height="9.80284" transform="matrix(-0.994522 0.104528 0.104528 0.994522 2.42554 81.7983)" fill="#FF4337"/>
<rect opacity="0.89" width="3.40325" height="6.3811" transform="matrix(0.848048 -0.529919 -0.529919 -0.848048 780.664 92.8076)" fill="#FFD337"/>
<rect opacity="0.81" width="3.05799" height="5.73374" transform="matrix(0.669131 -0.743145 -0.743145 -0.669131 640.888 89.7251)" fill="#3744FF"/>
<rect opacity="0.86" width="4.53767" height="8.50813" transform="matrix(0.945519 0.325568 0.325568 -0.945519 479.533 89.1084)" fill="#3744FF"/>
<rect opacity="0.89" width="3.55122" height="6.65854" transform="matrix(0.559193 -0.829038 -0.829038 -0.559193 407.575 97.7397)" fill="#3744FF"/>
<rect opacity="0.89" width="5.42547" height="10.1728" transform="matrix(-0.766044 0.642788 0.642788 0.766044 224.024 93.4243)" fill="#FFD337"/>
<rect width="3.05799" height="5.73374" transform="matrix(0.241922 -0.970296 -0.970296 -0.241922 68.835 89.1084)" fill="#3744FF"/>
<rect opacity="0.93" width="4.3897" height="8.23069" transform="matrix(0.615662 -0.788011 -0.788011 -0.615662 687.568 103.201)" fill="#3744FF"/>
<rect opacity="0.98" width="4.58699" height="8.60061" transform="matrix(-0.573576 0.819152 0.819152 0.573576 666.166 106.9)" fill="#FFD337"/>
<rect width="3.25528" height="6.10366" transform="matrix(0.0348995 -0.999391 -0.999391 -0.0348995 438.225 113.065)" fill="#3744FF"/>
<rect opacity="0.95" width="3.55122" height="6.65854" transform="matrix(-1 0 0 1 316.945 106.283)" fill="#9551F0"/>
<rect opacity="0.91" width="4.04444" height="7.58333" transform="matrix(0.515038 0.857167 0.857167 -0.515038 269.031 98.2686)" fill="#FFD337"/>
<rect opacity="0.95" width="4.68564" height="8.78557" transform="matrix(0.292372 0.956305 0.956305 -0.292372 25.061 109.982)" fill="#09E2AF"/>
<rect opacity="0.99" width="3.45257" height="6.47358" transform="matrix(-0.258819 -0.965926 -0.965926 0.258819 786.829 114.21)" fill="#3744FF"/>
<rect opacity="0.88" width="3.40325" height="6.3811" transform="matrix(-0.615662 -0.788011 -0.788011 0.615662 546.558 118.526)" fill="#09E2AF"/>
<rect opacity="0.77" width="3.10732" height="5.82622" transform="matrix(-0.99863 -0.052336 -0.052336 0.99863 417.879 114.827)" fill="#FF4337"/>
<rect opacity="0.77" width="5.42547" height="10.1728" transform="matrix(-0.99863 -0.052336 -0.052336 0.99863 285.501 116.06)" fill="#09E2AF"/>
<rect opacity="0.91" width="5.08022" height="9.52541" transform="matrix(0.469472 0.882948 0.882948 -0.469472 207.378 125.924)" fill="#FF4337"/>
<rect opacity="0.74" width="4.73496" height="8.87805" transform="matrix(-0.999391 0.0348995 0.0348995 0.999391 144.052 127.157)" fill="#FFD337"/>
<rect opacity="0.99" width="3.40325" height="6.3811" transform="matrix(0.97437 -0.224951 -0.224951 -0.97437 682.635 142.482)" fill="#FFD337"/>
<rect opacity="0.9" width="5.27751" height="9.89532" transform="matrix(0.62932 0.777146 0.777146 -0.62932 647.053 140.633)" fill="#FFD337"/>
<rect opacity="0.74" width="5.08022" height="9.52541" transform="matrix(0.694658 0.71934 0.71934 -0.694658 475.833 131.385)" fill="#FFD337"/>
<rect width="3.40325" height="6.3811" transform="matrix(-0.156434 0.987688 0.987688 0.156434 359.485 138.783)" fill="#FFD337"/>
<rect opacity="0.94" width="3.64986" height="6.8435" transform="matrix(-0.970296 -0.241922 -0.241922 0.970296 192.581 139.4)" fill="#9551F0"/>
<rect opacity="0.94" width="4.29106" height="8.04573" transform="matrix(-0.857167 -0.515038 -0.515038 0.857167 74.3835 143.099)" fill="#09E2AF"/>
<rect opacity="0.87" width="3.40325" height="6.3811" transform="matrix(0.0871557 0.996195 0.996195 -0.0871557 22.1545 141.866)" fill="#9551F0"/>
<rect opacity="0.79" width="5.52412" height="10.3577" transform="matrix(-0.559193 -0.829038 -0.829038 0.559193 690.034 150.409)" fill="#09E2AF"/>
<rect opacity="0.98" width="2.95935" height="5.54878" transform="matrix(0.857167 0.515038 0.515038 -0.857167 621.159 149.176)" fill="#9551F0"/>
<rect opacity="0.85" width="3.00867" height="5.64126" transform="matrix(-0.422618 0.906308 0.906308 0.422618 451.172 156.575)" fill="#3744FF"/>
<rect opacity="0.86" width="4.58699" height="8.60061" transform="matrix(0.325568 -0.945519 -0.945519 -0.325568 368.117 155.958)" fill="#9551F0"/>
<rect opacity="0.94" width="3.84715" height="7.21341" transform="matrix(0.0697565 -0.997564 -0.997564 -0.0697565 281.362 154.725)" fill="#FFD337"/>
<rect opacity="0.75" width="4.68564" height="8.78557" transform="matrix(0.97437 0.224951 0.224951 -0.97437 83.0151 155.342)" fill="#FF4337"/>
<rect opacity="0.73" width="3.74851" height="7.02845" transform="matrix(0.0871557 0.996195 0.996195 -0.0871557 683.252 175.599)" fill="#09E2AF"/>
<rect opacity="0.77" width="2.95935" height="5.54878" transform="matrix(0.390731 0.920505 0.920505 -0.390731 542.859 173.133)" fill="#FF4337"/>
<rect opacity="0.81" width="4.34038" height="8.13821" transform="matrix(-0.978148 -0.207912 -0.207912 0.978148 502.344 163.885)" fill="#FF4337"/>
<rect opacity="0.98" width="3.60054" height="6.75102" transform="matrix(-0.777146 -0.62932 -0.62932 0.777146 400.176 169.434)" fill="#FFD337"/>
<rect opacity="0.84" width="5.12954" height="9.61789" transform="matrix(-0.992546 0.121869 0.121869 0.992546 182.1 163.269)" fill="#09E2AF"/>
<rect opacity="0.79" width="3.69919" height="6.93598" transform="matrix(-0.438371 0.898794 0.898794 0.438371 106.443 174.366)" fill="#3744FF"/>
<rect opacity="0.94" width="3.05799" height="5.73374" transform="matrix(0.906308 0.422618 0.422618 -0.906308 1177.48 71.7651)" fill="#09E2AF"/>
<rect opacity="0.77" width="5.86938" height="11.0051" transform="matrix(0.951057 -0.309017 -0.309017 -0.951057 1003.18 68.6826)" fill="#9551F0"/>
<rect opacity="0.81" width="4.09377" height="7.67581" transform="matrix(0.866025 0.5 0.5 -0.866025 861.555 66.833)" fill="#9551F0"/>
<rect opacity="0.73" width="5.22818" height="9.80284" transform="matrix(-0.994522 0.104528 0.104528 0.994522 820.423 74.2314)" fill="#FF4337"/>
<rect opacity="0.89" width="5.42547" height="10.1728" transform="matrix(-0.766044 0.642788 0.642788 0.766044 1042.02 85.8574)" fill="#FFD337"/>
<rect width="3.05799" height="5.73374" transform="matrix(0.241922 -0.970296 -0.970296 -0.241922 886.833 81.5415)" fill="#3744FF"/>
<rect opacity="0.85" width="4.19241" height="7.86077" transform="matrix(-0.469472 0.882948 0.882948 0.469472 721.162 74.7598)" fill="#FFD337"/>
<rect opacity="0.95" width="3.55122" height="6.65854" transform="matrix(-1 0 0 1 1134.94 98.7163)" fill="#9551F0"/>
<rect opacity="0.91" width="4.04444" height="7.58333" transform="matrix(0.515038 0.857167 0.857167 -0.515038 1087.03 90.7017)" fill="#FFD337"/>
<rect opacity="0.95" width="4.68564" height="8.78557" transform="matrix(0.292372 0.956305 0.956305 -0.292372 843.059 102.416)" fill="#09E2AF"/>
<rect opacity="0.8" width="5.08022" height="9.52541" transform="matrix(-0.777146 0.62932 0.62932 0.777146 803.161 102.416)" fill="#9551F0"/>
<rect opacity="0.77" width="5.42547" height="10.1728" transform="matrix(-0.99863 -0.052336 -0.052336 0.99863 1103.5 108.493)" fill="#09E2AF"/>
<rect opacity="0.91" width="5.08022" height="9.52541" transform="matrix(0.469472 0.882948 0.882948 -0.469472 1025.38 118.357)" fill="#FF4337"/>
<rect opacity="0.74" width="4.73496" height="8.87805" transform="matrix(-0.999391 0.0348995 0.0348995 0.999391 962.049 119.59)" fill="#FFD337"/>
<rect opacity="0.76" width="3.35393" height="6.28862" transform="matrix(0.93358 -0.358368 -0.358368 -0.93358 800.694 118.357)" fill="#9551F0"/>
<rect width="3.40325" height="6.3811" transform="matrix(-0.156434 0.987688 0.987688 0.156434 1177.48 131.216)" fill="#FFD337"/>
<rect opacity="0.94" width="3.64986" height="6.8435" transform="matrix(-0.970296 -0.241922 -0.241922 0.970296 1010.58 131.833)" fill="#9551F0"/>
<rect opacity="0.94" width="4.29106" height="8.04573" transform="matrix(-0.857167 -0.515038 -0.515038 0.857167 892.381 135.532)" fill="#09E2AF"/>
<rect opacity="0.87" width="3.40325" height="6.3811" transform="matrix(0.0871557 0.996195 0.996195 -0.0871557 840.152 134.299)" fill="#9551F0"/>
<rect opacity="0.86" width="4.58699" height="8.60061" transform="matrix(0.325568 -0.945519 -0.945519 -0.325568 1186.11 148.391)" fill="#9551F0"/>
<rect opacity="0.94" width="3.84715" height="7.21341" transform="matrix(0.0697565 -0.997564 -0.997564 -0.0697565 1099.36 147.158)" fill="#FFD337"/>
<rect opacity="0.75" width="4.68564" height="8.78557" transform="matrix(0.97437 0.224951 0.224951 -0.97437 901.013 147.775)" fill="#FF4337"/>
<rect opacity="0.7" width="5.08022" height="9.52541" transform="matrix(0.898794 0.438371 0.438371 -0.898794 787.131 147.775)" fill="#9551F0"/>
<rect opacity="0.84" width="5.12954" height="9.61789" transform="matrix(-0.992546 0.121869 0.121869 0.992546 1000.1 155.702)" fill="#09E2AF"/>
<rect opacity="0.79" width="3.69919" height="6.93598" transform="matrix(-0.438371 0.898794 0.898794 0.438371 924.441 166.799)" fill="#3744FF"/>
<rect opacity="0.89" width="4.19241" height="7.86077" transform="matrix(-0.766044 0.642788 0.642788 0.766044 721.779 165.566)" fill="#FF4337"/>
</g>
<defs>
<clipPath id="clip0">
<rect width="1179" height="786" fill="white"/>
</clipPath>
</defs>
</svg>
