<svg width="16" height="26" viewBox="0 0 16 26" fill="none" xmlns="http://www.w3.org/2000/svg">
<path fill-rule="evenodd" clip-rule="evenodd" d="M5.55025 2.217C6.86301 0.904246 8.64348 0.166748 10.5 0.166748H14C14.6443 0.166748 15.1667 0.689082 15.1667 1.33341V6.00008C15.1667 6.64441 14.6443 7.16675 14 7.16675H10.5V9.50008H14C14.3593 9.50008 14.6985 9.6656 14.9196 9.94877C15.1407 10.2319 15.219 10.6012 15.1318 10.9497L13.9652 15.6164C13.8353 16.1357 13.3687 16.5001 12.8333 16.5001H10.5V24.6667C10.5 25.3111 9.97767 25.8334 9.33333 25.8334H4.66667C4.02233 25.8334 3.5 25.3111 3.5 24.6667V16.5001H1.16667C0.522334 16.5001 0 15.9777 0 15.3334V10.6667C0 10.0224 0.522334 9.50008 1.16667 9.50008H3.5V7.16675C3.5 5.31023 4.2375 3.52976 5.55025 2.217ZM10.5 2.50008C9.26232 2.50008 8.07534 2.99175 7.20017 3.86692C6.325 4.74209 5.83333 5.92907 5.83333 7.16675V10.6667C5.83333 11.3111 5.311 11.8334 4.66667 11.8334H2.33333V14.1667H4.66667C5.311 14.1667 5.83333 14.6891 5.83333 15.3334V23.5001H8.16667V15.3334C8.16667 14.6891 8.689 14.1667 9.33333 14.1667H11.9224L12.5058 11.8334H9.33333C8.689 11.8334 8.16667 11.3111 8.16667 10.6667V7.16675C8.16667 6.54791 8.4125 5.95442 8.85008 5.51683C9.28767 5.07925 9.88116 4.83341 10.5 4.83341H12.8333V2.50008H10.5Z" fill="#6B37FF"/>
</svg>
