<svg width="24" height="24" viewBox="0 0 24 24" fill="none" xmlns="http://www.w3.org/2000/svg">
<g clip-path="url(#clip0)">
<path d="M16.0001 22.9999C15.4001 22.9999 15.0001 22.5999 15.0001 21.9999V18.0999C15.1001 17.2999 14.8001 16.6999 14.3001 16.1999C14.0001 15.8999 13.9001 15.4999 14.1001 15.1999C14.2001 14.7999 14.6001 14.5999 14.9001 14.4999C17.8001 14.1999 20.5001 13.1999 20.5001 8.4999C20.5001 7.3999 20.1001 6.2999 19.3001 5.3999C19.0001 5.0999 19.0001 4.6999 19.1001 4.3999C19.4001 3.5999 19.4001 2.7999 19.2001 1.9999C18.7001 2.0999 17.9001 2.3999 16.6001 3.2999C16.4001 3.4999 16.1001 3.4999 15.8001 3.3999C13.7001 2.7999 11.4001 2.7999 9.30011 3.3999C9.00011 3.4999 8.70011 3.4999 8.40011 3.2999C7.20011 2.3999 6.30011 2.0999 5.80011 1.9999C5.60011 2.7999 5.60011 3.5999 5.90011 4.3999C6.00011 4.7999 6.00011 5.1999 5.70011 5.3999C4.90011 6.2999 4.50011 7.3999 4.50011 8.4999C4.50011 13.1999 7.20011 14.1999 10.1001 14.4999C10.5001 14.4999 10.8001 14.7999 10.9001 15.1999C11.0001 15.5999 10.9001 15.9999 10.7001 16.1999C10.2001 16.6999 10.0001 17.2999 10.0001 17.9999V18.8999V18.9999V21.8999C10.0001 22.4999 9.60011 22.8999 9.00011 22.8999C8.40011 22.8999 8.00011 22.4999 8.00011 21.8999V20.1999C5.00011 20.6999 3.70011 18.9999 2.80011 17.8999C2.40011 17.3999 2.10011 16.9999 1.70011 16.8999C1.20011 16.7999 0.800106 16.1999 1.00011 15.6999C1.10011 15.1999 1.70011 14.7999 2.20011 14.9999C3.20011 15.2999 3.80011 15.9999 4.40011 16.6999C5.20011 17.7999 5.90011 18.5999 8.00011 18.1999V18.0999C8.00011 17.4999 8.10011 16.7999 8.30011 16.2999C5.50011 15.6999 2.50011 13.8999 2.50011 8.5999C2.50011 7.0999 3.00011 5.6999 3.90011 4.5999C3.50011 3.1999 3.60011 1.8999 4.20011 0.599896C4.30011 0.299896 4.50011 0.0998964 4.80011 -0.000103645C5.20011 -0.100104 6.50011 -0.300104 9.20011 1.3999C11.4001 0.899896 13.7001 0.899896 15.8001 1.3999C18.4001 -0.300104 19.8001 -0.100104 20.2001 -0.000103645C20.5001 0.0998964 20.7001 0.299896 20.8001 0.599896C21.3001 1.8999 21.4001 3.1999 21.1001 4.4999C22.0001 5.5999 22.5001 6.9999 22.5001 8.4999C22.5001 14.1999 19.1001 15.6999 16.7001 16.2999C16.9001 16.8999 17.0001 17.5999 17.0001 18.1999V21.9999C17.0001 22.5999 16.6001 22.9999 16.0001 22.9999Z" fill="white"/>
</g>
<defs>
<clipPath id="clip0">
<rect width="24" height="24" fill="white"/>
</clipPath>
</defs>
</svg>
