<svg width="17" height="17" viewBox="0 0 17 17" fill="none" xmlns="http://www.w3.org/2000/svg">
<path fill-rule="evenodd" clip-rule="evenodd" d="M8.5 2.12501C4.97919 2.12501 2.125 4.97919 2.125 8.50001C2.125 12.0208 4.97919 14.875 8.5 14.875C12.0208 14.875 14.875 12.0208 14.875 8.50001C14.875 4.97919 12.0208 2.12501 8.5 2.12501ZM0.708334 8.50001C0.708334 4.19679 4.19678 0.708344 8.5 0.708344C12.8032 0.708344 16.2917 4.19679 16.2917 8.50001C16.2917 12.8032 12.8032 16.2917 8.5 16.2917C4.19678 16.2917 0.708334 12.8032 0.708334 8.50001Z" fill="#6B37FF"/>
<path fill-rule="evenodd" clip-rule="evenodd" d="M0.708334 8.50001C0.708334 8.10881 1.02547 7.79168 1.41667 7.79168H15.5833C15.9745 7.79168 16.2917 8.10881 16.2917 8.50001C16.2917 8.89121 15.9745 9.20834 15.5833 9.20834H1.41667C1.02547 9.20834 0.708334 8.89121 0.708334 8.50001Z" fill="#6B37FF"/>
<path fill-rule="evenodd" clip-rule="evenodd" d="M6.37517 8.50001C6.42371 10.678 7.17276 12.7749 8.5 14.4849C9.82723 12.7749 10.5763 10.678 10.6248 8.50001C10.5763 6.322 9.82724 4.22511 8.5 2.51516C7.17276 4.22511 6.42371 6.322 6.37517 8.50001ZM8.5 1.41668L7.97701 0.938961C6.08947 3.0054 5.01678 5.68712 4.95849 8.48526C4.95828 8.49509 4.95828 8.50493 4.95849 8.51476C5.01678 11.3129 6.08947 13.9946 7.97701 16.0611C8.11121 16.208 8.30101 16.2917 8.5 16.2917C8.69899 16.2917 8.88879 16.208 9.02299 16.0611C10.9105 13.9946 11.9832 11.3129 12.0415 8.51476C12.0417 8.50493 12.0417 8.49509 12.0415 8.48526C11.9832 5.68712 10.9105 3.0054 9.02299 0.938961L8.5 1.41668Z" fill="#6B37FF"/>
</svg>
