<svg width="28" height="27" viewBox="0 0 28 27" fill="none" xmlns="http://www.w3.org/2000/svg">
<path fill-rule="evenodd" clip-rule="evenodd" d="M4.66675 5.625C4.02775 5.625 3.50008 6.13382 3.50008 6.75V20.25C3.50008 20.8662 4.02775 21.375 4.66675 21.375H23.3334C23.9724 21.375 24.5001 20.8662 24.5001 20.25V6.75C24.5001 6.13382 23.9724 5.625 23.3334 5.625H4.66675ZM1.16675 6.75C1.16675 4.89118 2.73908 3.375 4.66675 3.375H23.3334C25.2611 3.375 26.8334 4.89118 26.8334 6.75V20.25C26.8334 22.1088 25.2611 23.625 23.3334 23.625H4.66675C2.73908 23.625 1.16675 22.1088 1.16675 20.25V6.75Z" fill="#6B37FF"/>
<path fill-rule="evenodd" clip-rule="evenodd" d="M1.3775 6.10495C1.747 5.59595 2.47445 5.47216 3.00231 5.82846L13.9999 13.2519L24.9976 5.82846C25.5254 5.47216 26.2529 5.59595 26.6224 6.10495C26.9919 6.61396 26.8635 7.31543 26.3356 7.67173L14.669 15.5467C14.2673 15.8179 13.7326 15.8179 13.3309 15.5467L1.66423 7.67173C1.13637 7.31543 1.008 6.61396 1.3775 6.10495Z" fill="#6B37FF"/>
</svg>
