<svg width="133" height="25" viewBox="0 0 133 25" fill="none" xmlns="http://www.w3.org/2000/svg">
<path d="M77.3956 3.45166V3.43287C77.3956 2.47999 76.707 1.65026 75.6982 1.65026C74.6981 1.65026 74.0287 2.46158 74.0287 3.41369V3.43287C74.0287 4.38535 74.7173 5.21547 75.7166 5.21547C76.7262 5.21547 77.3956 4.40415 77.3956 3.45166ZM72.1521 3.45166V3.43287C72.1521 1.5371 73.6796 0 75.7166 0C77.7539 0 79.263 1.51792 79.263 3.41369V3.43287C79.263 5.32825 77.7351 6.86573 75.6982 6.86573C73.6609 6.86573 72.1521 5.34743 72.1521 3.45166Z" fill="white"/>
<path d="M82.8827 3.72298C83.9768 3.72298 84.6933 3.13837 84.6933 2.27065V2.25186C84.6933 1.30857 83.986 0.81833 82.9203 0.81833H81.2513V3.72298H82.8827ZM80.5059 0.129761H82.9771C84.467 0.129761 85.4479 0.921519 85.4479 2.22309V2.24227C85.4479 3.66659 84.2599 4.40196 82.8543 4.40196H81.2513V6.73158H80.5059V0.129761Z" fill="white"/>
<path d="M86.7457 0.129761H91.5181V0.808739H87.4911V3.06279H91.0938V3.74177H87.4911V6.0526H91.5649V6.73158H86.7457V0.129761Z" fill="white"/>
<path d="M93.0041 0.129761H93.7019L97.8613 5.42042V0.129761H98.5875V6.73158H97.9933L93.7306 1.31816V6.73158H93.0041V0.129761Z" fill="white"/>
<path d="M72.6342 14.3846L73.6527 13.1678C74.3037 13.6868 75.0298 13.9603 75.7936 13.9603C76.2842 13.9603 76.5485 13.7904 76.5485 13.508V13.4888C76.5485 13.2153 76.3314 13.0646 75.4357 12.8567C74.0302 12.5364 72.9453 12.1397 72.9453 10.7818V10.763C72.9453 9.53734 73.917 8.65045 75.5013 8.65045C76.6237 8.65045 77.501 8.95235 78.2176 9.52775L77.3027 10.8197C76.6993 10.3955 76.0391 10.1688 75.4541 10.1688C75.0107 10.1688 74.7939 10.3575 74.7939 10.5934V10.6122C74.7939 10.9141 75.0202 11.0461 75.9351 11.2536C77.4534 11.5839 78.3967 12.0741 78.3967 13.3097V13.3285C78.3967 14.6772 77.3311 15.479 75.7276 15.479C74.5584 15.479 73.4456 15.1111 72.6342 14.3846Z" fill="white"/>
<path d="M85.2421 12.0833V12.0645C85.2421 10.565 84.1481 9.33902 82.6393 9.33902C81.1302 9.33902 80.0554 10.5462 80.0554 12.0457V12.0645C80.0554 13.564 81.149 14.7904 82.6578 14.7904C84.1672 14.7904 85.2421 13.5832 85.2421 12.0833ZM79.2821 12.0833V12.0645C79.2821 10.2439 80.6496 8.65045 82.6578 8.65045C84.6671 8.65045 86.0154 10.2255 86.0154 12.0457V12.0645C86.0154 13.8847 84.6479 15.4786 82.6393 15.4786C80.6304 15.4786 79.2821 13.9035 79.2821 12.0833Z" fill="white"/>
<path d="M87.4225 12.6093V8.771H88.1678V12.5625C88.1678 13.9865 88.9224 14.7882 90.186 14.7882C91.4024 14.7882 92.1757 14.0521 92.1757 12.6093V8.771H92.9214V12.5529C92.9214 14.4767 91.8174 15.4764 90.1676 15.4764C88.5353 15.4764 87.4225 14.4767 87.4225 12.6093Z" fill="white"/>
<path d="M97.3993 12.1379C98.3898 12.1379 99.0968 11.6281 99.0968 10.7795V10.7604C99.0968 9.94981 98.4746 9.45956 97.4089 9.45956H95.372V12.1379H97.3993ZM94.6267 8.771H97.4653C98.2766 8.771 98.9272 9.01612 99.3419 9.43079C99.663 9.75149 99.8517 10.2137 99.8517 10.7324V10.7515C99.8517 11.8452 99.0968 12.4862 98.0595 12.6749L100.087 15.3724H99.1724L97.2582 12.8073H95.372V15.3724H94.6267V8.771Z" fill="white"/>
<path d="M101.098 12.0833V12.0645C101.098 10.1971 102.494 8.65045 104.437 8.65045C105.634 8.65045 106.351 9.07472 107.011 9.6973L106.502 10.2439C105.945 9.71648 105.323 9.33902 104.427 9.33902C102.966 9.33902 101.872 10.527 101.872 12.0457V12.0645C101.872 13.5924 102.975 14.7904 104.427 14.7904C105.332 14.7904 105.927 14.4413 106.558 13.8375L107.049 14.3186C106.361 15.0163 105.606 15.4786 104.408 15.4786C102.503 15.4786 101.098 13.9791 101.098 12.0833Z" fill="white"/>
<path d="M108.293 8.771H113.065V9.44997H109.038V11.704H112.641V12.383H109.038V14.6938H113.112V15.3728H108.293V8.771Z" fill="white"/>
<path d="M72.3376 20.7248V20.706C72.3376 18.7822 73.8183 17.2731 75.8172 17.2731C77.1664 17.2731 78.0341 17.8389 78.6187 18.6499L77.2419 19.7159C76.8645 19.2441 76.4306 18.9426 75.7988 18.9426C74.8743 18.9426 74.2238 19.7251 74.2238 20.6872V20.706C74.2238 21.6965 74.8743 22.4698 75.7988 22.4698C76.4874 22.4698 76.8929 22.1491 77.2887 21.6677L78.6655 22.649C78.0437 23.5071 77.204 24.1389 75.7421 24.1389C73.8559 24.1389 72.3376 22.6958 72.3376 20.7248Z" fill="white"/>
<path d="M85.4089 20.7246V20.7058C85.4089 19.2063 84.3148 17.9803 82.8061 17.9803C81.297 17.9803 80.2222 19.1875 80.2222 20.687V20.7058C80.2222 22.2053 81.3158 23.4316 82.8246 23.4316C84.334 23.4316 85.4089 22.2244 85.4089 20.7246ZM79.4488 20.7246V20.7058C79.4488 18.8852 80.8164 17.2917 82.8246 17.2917C84.8339 17.2917 86.1822 18.8668 86.1822 20.687V20.7058C86.1822 22.526 84.8147 24.1198 82.8061 24.1198C80.7972 24.1198 79.4488 22.5448 79.4488 20.7246Z" fill="white"/>
<path d="M87.7007 17.403H88.446V23.3162H92.1616V24.0048H87.7007V17.403Z" fill="white"/>
<path d="M93.4769 17.403H94.2223V23.3162H97.9378V24.0048H93.4769V17.403Z" fill="white"/>
<path d="M99.2624 17.403H104.035V18.0819H100.008V20.336H103.611V21.015H100.008V23.3258H104.082V24.0048H99.2624V17.403Z" fill="white"/>
<path d="M105.224 20.7246V20.7058C105.224 18.8384 106.62 17.2917 108.563 17.2917C109.76 17.2917 110.477 17.716 111.137 18.3385L110.628 18.8852C110.071 18.3577 109.449 17.9803 108.553 17.9803C107.091 17.9803 105.997 19.1683 105.997 20.687V20.7058C105.997 22.2337 107.101 23.4316 108.553 23.4316C109.458 23.4316 110.053 23.0826 110.684 22.4788L111.175 22.9598C110.487 23.6576 109.732 24.1198 108.534 24.1198C106.629 24.1198 105.224 22.6203 105.224 20.7246Z" fill="white"/>
<path d="M114.171 18.0915H111.955V17.403H117.142V18.0915H114.926V24.0048H114.171V18.0915Z" fill="white"/>
<path d="M119.284 17.403H118.538V24.0048H119.284V17.403Z" fill="white"/>
<path d="M120.597 17.403H121.426L123.775 23.0899L126.133 17.403H126.934L124.095 24.0516H123.435L120.597 17.403Z" fill="white"/>
<path d="M128.181 17.403H132.953V18.0819H128.926V20.336H132.529V21.015H128.926V23.3258H133V24.0048H128.181V17.403Z" fill="white"/>
<path d="M11.9964 5.97053C8.57239 5.97053 5.78704 8.75588 5.78704 12.1799C5.78704 15.6036 8.57239 18.3893 11.9964 18.3893C15.4205 18.3893 18.2058 15.6036 18.2058 12.1799C18.2058 8.75588 15.4205 5.97053 11.9964 5.97053ZM11.9964 24.1764C5.38157 24.1764 0 18.7948 0 12.1799C0 5.56468 5.38157 0.183105 11.9964 0.183105C18.6117 0.183105 23.9932 5.56468 23.9932 12.1799C23.9932 18.7948 18.6117 24.1764 11.9964 24.1764Z" fill="white"/>
<path d="M59.6254 24.1787C53.0101 24.1787 47.6285 18.7971 47.6285 12.1819C47.6285 5.567 53.0101 0.185425 59.6254 0.185425V5.97285C56.2013 5.97285 53.416 8.75819 53.416 12.1819C53.416 15.6059 56.2013 18.3912 59.6254 18.3912V24.1787Z" fill="white"/>
<path d="M29.7647 12.0428H23.9773C23.9773 5.42796 29.3589 0.0463867 35.9741 0.0463867V5.83343C32.5504 5.83343 29.7647 8.61877 29.7647 12.0428Z" fill="white"/>
<path d="M36.0025 23.9116V18.1242C39.4266 18.1242 42.2119 15.3389 42.2119 11.9156H47.9993C47.9993 18.53 42.6174 23.9116 36.0025 23.9116Z" fill="white"/>
</svg>
