<svg width="100%" height="100%" viewBox="0 0 512 512" fill="currentColor" xmlns="http://www.w3.org/2000/svg">
<g>
	<g>
		<g>
			<path d="M279.881,216.177h-47.762v47.763h47.762V216.177z M264.127,248.186h-16.255v-16.255h16.255V248.186z"/>
			<rect x="288.012" y="232.18" width="16.004" height="15.754"/>
			<rect x="312.01" y="232.18" width="16.004" height="15.754"/>
			<rect x="183.984" y="232.18" width="16.004" height="15.754"/>
			<rect x="207.993" y="232.18" width="16.004" height="15.754"/>
			
				<rect x="226.125" y="51.862" transform="matrix(0.7071 0.7071 -0.7071 0.7071 115.2121 -146.1312)" width="15.754" height="28.29"/>
			<rect x="212.391" y="88.145" transform="matrix(0.7071 -0.7071 0.7071 0.7071 5.91 206.312)" width="79.21" height="15.754"/>
			
				<rect x="272.118" y="104.72" transform="matrix(-0.7071 -0.7071 0.7071 -0.7071 395.9311 396.0721)" width="15.754" height="22.632"/>
			<path d="M448.172,168.041c0,8.528-3.305,16.56-9.306,22.615l11.189,11.09c8.945-9.026,13.871-20.995,13.871-33.705v-0.503
				h-15.754V168.041z"/>
			<rect x="448.176" y="119.908" width="15.754" height="31.76"/>
			<path d="M434.398,212.279l-6.043-14.548c-3.902,1.621-8.046,2.442-12.316,2.442h-16.012v15.754h16.012
				C422.394,215.927,428.571,214.7,434.398,212.279z"/>
			<rect x="48.074" y="119.908" width="15.754" height="31.76"/>
			<path d="M77.602,212.279c5.827,2.421,12.004,3.649,18.358,3.649h16.012v-15.754H95.961c-4.27,0-8.414-0.821-12.316-2.442
				L77.602,212.279z"/>
			<path d="M73.135,190.656c-6.001-6.056-9.306-14.087-9.306-22.615v-0.503H48.074v0.503c0,12.71,4.926,24.679,13.871,33.705
				L73.135,190.656z"/>
			<path d="M351.898,184.17H160.101v119.78h24.006v88.021h143.785v-88.021h24.006V184.17z M199.861,376.217v-72.267h112.278v72.267
				H199.861z M336.145,288.196h-160.29v-88.272h160.29V288.196z"/>
			<path d="M336.019,160.164H319.89V72.017c0-11.385-3.007-22.075-8.249-31.342V0h-16.004v21.965
				C284.737,13.314,270.966,8.127,256,8.127c-15.214,0-29.197,5.354-40.182,14.266V0h-16.004v41.623
				c-4.912,9.044-7.705,19.399-7.705,30.394v88.147h-16.129v15.754h160.038V160.164z M207.863,160.164V72.017
				c0-26.542,21.594-48.136,48.136-48.136c26.542,0,48.136,21.594,48.136,48.136v88.147H207.863z"/>
			<path d="M416.489,424.229h-32.582V408.1h-15.754v16.129h-16.004V512h103.775v-29.214l-39.435-15.775V424.229z M416.489,483.979
				l23.681,9.473v2.794h-23.681V483.979z M400.735,496.246h-32.832v-56.263h32.832V496.246z"/>
			<path d="M160.101,368.215h-0.125c-17.58,0-31.883,14.302-31.883,31.883h15.754c0-8.894,7.235-16.129,16.129-16.129h0.125v8.127
				h15.754v-40.01h-15.754V368.215z"/>
			<path d="M143.848,408.099h-0.001h-15.754v16.129H95.511v42.782l-39.435,15.775V512h103.776v-87.771h-16.004V408.099z
				 M95.511,496.246H71.83v-2.794l23.681-9.473V496.246z M144.098,439.983v56.263h-32.833v-56.263H144.098z"/>
			<path d="M368.153,400.097h15.754c0-17.58-14.302-31.883-31.883-31.883h-0.125v-16.128h-15.754v40.01h15.754v-8.127h0.125
				C360.916,383.969,368.153,391.204,368.153,400.097z"/>
			<polygon points="375.905,215.927 384.031,215.927 384.031,200.174 375.905,200.174 375.905,184.045 360.151,184.045 
				360.151,232.056 375.905,232.056 			"/>
			<path d="M456.049,32.133c-17.58,0-31.883,14.302-31.883,31.883c0,14.862,10.223,27.38,24.006,30.896v9.114h15.754v-9.114
				c13.784-3.516,24.006-16.034,24.006-30.896C487.931,46.435,473.629,32.133,456.049,32.133z M456.049,80.145
				c-8.894,0-16.129-7.236-16.129-16.129s7.235-16.129,16.129-16.129s16.129,7.236,16.129,16.129S464.942,80.145,456.049,80.145z"/>
			<polygon points="136.095,232.056 151.849,232.056 151.849,184.045 136.095,184.045 136.095,200.174 127.968,200.174 
				127.968,215.927 136.095,215.927 			"/>
			<path d="M48.074,104.026h15.754v-9.114c13.784-3.516,24.006-16.034,24.006-30.896c0-17.58-14.302-31.883-31.883-31.883
				c-17.58,0-31.883,14.302-31.883,31.883c0,14.862,10.223,27.38,24.006,30.896V104.026z M39.823,64.015
				c0-8.894,7.235-16.129,16.129-16.129c8.894,0,16.129,7.236,16.129,16.129s-7.235,16.13-16.129,16.13
				C47.058,80.145,39.823,72.909,39.823,64.015z"/>
			<rect x="248.123" y="312.073" width="15.754" height="56.01"/>
		</g>
	</g>
</g>
</svg>
