<svg width="16" height="16" viewBox="0 0 18 19" fill="none" xmlns="http://www.w3.org/2000/svg">
<path fill-rule="evenodd" clip-rule="evenodd" d="M5.28263 15.8002C5.28263 14.9691 5.9057 14.2954 6.6743 14.2954C7.44289 14.2954 8.06596 14.9691 8.06596 15.8002C8.06596 16.6313 7.44289 17.305 6.6743 17.305C5.9057 17.305 5.28263 16.6313 5.28263 15.8002Z" />
<path fill-rule="evenodd" clip-rule="evenodd" d="M12.9368 15.8002C12.9368 14.9691 13.5599 14.2954 14.3285 14.2954C15.0971 14.2954 15.7201 14.9691 15.7201 15.8002C15.7201 16.6313 15.0971 17.305 14.3285 17.305C13.5599 17.305 12.9368 16.6313 12.9368 15.8002Z" />
<path fill-rule="evenodd" clip-rule="evenodd" d="M0.411797 0.752396C0.411797 0.336859 0.723332 0 1.10763 0H3.89096C4.22262 0 4.50818 0.253095 4.57326 0.604733L5.15768 3.76198H16.416C16.6233 3.76198 16.8199 3.86199 16.9521 4.03476C17.0843 4.20753 17.1383 4.43506 17.0995 4.65532L15.9852 10.9736C15.8897 11.4932 15.6283 11.9599 15.2466 12.2921C14.8669 12.6226 14.3922 12.799 13.9049 12.7907H7.15348C6.66621 12.799 6.19153 12.6226 5.8118 12.2921C5.43032 11.96 5.16896 11.4935 5.07341 10.9742C5.07337 10.974 5.07345 10.9744 5.07341 10.9742L3.911 4.69435C3.90628 4.67358 3.90236 4.65247 3.89928 4.63105L3.3206 1.50479H1.10763C0.723332 1.50479 0.411797 1.16793 0.411797 0.752396ZM5.43622 5.26677L6.4383 10.6804C6.47011 10.8536 6.55725 11.0092 6.68446 11.1199C6.81168 11.2306 6.97085 11.2895 7.13413 11.2861L7.14746 11.2859H13.911L13.9243 11.2861C14.0876 11.2895 14.2468 11.2306 14.374 11.1199C14.5006 11.0097 14.5875 10.855 14.6197 10.6828L15.5749 5.26677H5.43622Z" />
</svg>
