<svg width="15" height="15" viewBox="0 0 15 15" fill="none" xmlns="http://www.w3.org/2000/svg">
<path fill-rule="evenodd" clip-rule="evenodd" d="M1.25 3.75C1.25 3.40482 1.52982 3.125 1.875 3.125H13.125C13.4702 3.125 13.75 3.40482 13.75 3.75C13.75 4.09518 13.4702 4.375 13.125 4.375H1.875C1.52982 4.375 1.25 4.09518 1.25 3.75Z" fill="#4B4B4B"/>
<path fill-rule="evenodd" clip-rule="evenodd" d="M6.25 1.875C6.08424 1.875 5.92527 1.94085 5.80806 2.05806C5.69085 2.17527 5.625 2.33424 5.625 2.5V3.125H9.375V2.5C9.375 2.33424 9.30915 2.17527 9.19194 2.05806C9.07473 1.94085 8.91576 1.875 8.75 1.875H6.25ZM10.625 3.125V2.5C10.625 2.00272 10.4275 1.52581 10.0758 1.17417C9.72419 0.822544 9.24728 0.625 8.75 0.625H6.25C5.75272 0.625 5.27581 0.822544 4.92418 1.17417C4.57254 1.52581 4.375 2.00272 4.375 2.5V3.125H3.125C2.77982 3.125 2.5 3.40482 2.5 3.75V12.5C2.5 12.9973 2.69754 13.4742 3.04917 13.8258C3.40081 14.1775 3.87772 14.375 4.375 14.375H10.625C11.1223 14.375 11.5992 14.1775 11.9508 13.8258C12.3025 13.4742 12.5 12.9973 12.5 12.5V3.75C12.5 3.40482 12.2202 3.125 11.875 3.125H10.625ZM3.75 4.375V12.5C3.75 12.6658 3.81585 12.8247 3.93306 12.9419C4.05027 13.0592 4.20924 13.125 4.375 13.125H10.625C10.7908 13.125 10.9497 13.0592 11.0669 12.9419C11.1842 12.8247 11.25 12.6658 11.25 12.5V4.375H3.75Z" fill="#4B4B4B"/>
</svg>
