<svg width="17" height="14" viewBox="0 0 17 14" fill="none" xmlns="http://www.w3.org/2000/svg">
<path d="M5.57415 13.7074C3.82807 13.7074 2.01483 13.2373 0.403069 12.2971C0.134442 12.1628 0.000127885 11.827 0.0672847 11.5583C0.134442 11.2897 0.403069 11.0882 0.671697 11.0882C1.81336 11.1554 2.95503 10.8868 3.96238 10.4167C1.47758 8.87207 0.80601 6.72305 0.738853 5.04413C0.671696 3.09658 1.34327 1.48482 1.41042 1.41766C1.47758 1.21619 1.67905 1.01472 1.94768 1.01472C2.2163 1.01472 2.41777 1.08187 2.55209 1.28334C3.69376 2.89511 5.43983 3.90246 7.38738 4.03678C7.38738 2.96227 7.85748 1.95491 8.66336 1.21619C10.0737 0.00736448 12.1555 0.00736448 13.5658 1.21619C14.1031 1.01472 14.6403 0.74609 15.1104 0.410306C15.3119 0.275992 15.6477 0.275992 15.8491 0.410306C16.0506 0.544619 16.1849 0.880404 16.1178 1.14903C15.9163 2.08923 15.4462 2.96227 14.7746 3.70099C14.7746 3.83531 14.7746 3.90246 14.7746 4.03678C14.7746 7.7304 13.1629 10.8196 10.2751 12.4314C8.86483 13.3044 7.25307 13.7074 5.57415 13.7074ZM3.35797 12.0956C5.57415 12.6329 7.79032 12.3642 9.67072 11.2897C12.0884 9.87942 13.4987 7.19315 13.4987 4.03678C13.4987 3.90246 13.4987 3.76815 13.4315 3.63384C13.3643 3.43236 13.4315 3.16374 13.633 3.02942C13.7673 2.89511 13.9016 2.69364 14.0359 2.55933C13.9016 2.62648 13.7001 2.69364 13.5658 2.69364C13.2972 2.7608 13.0286 2.69364 12.8942 2.49217C12.0212 1.55197 10.5438 1.41766 9.60356 2.2907C8.99915 2.69364 8.73052 3.36521 8.73052 4.03678V4.70834C8.73052 5.04413 8.46189 5.37991 8.05895 5.37991C5.84278 5.44707 3.76091 4.57403 2.28346 3.02942C1.88052 4.7755 1.74621 8.06619 5.6413 9.74511C5.84277 9.87942 6.04425 10.0809 6.04425 10.3495C6.04425 10.6181 5.97709 10.8196 5.77562 10.9539C4.96974 11.4912 4.16385 11.8941 3.35797 12.0956Z" fill="#474747"/>
</svg>
