<svg width="166" height="38" viewBox="0 0 166 38" fill="none" xmlns="http://www.w3.org/2000/svg">
<path fill-rule="evenodd" clip-rule="evenodd" d="M48.7973 22.4686H55.6992V23.0208C55.6992 24.2756 55.5516 25.3863 55.2557 26.3522C54.9668 27.2467 54.4797 28.0837 53.7951 28.8625C52.2444 30.6079 50.2718 31.4796 47.8772 31.4796C45.5408 31.4796 43.5397 30.6363 41.874 28.9484C40.2076 27.2536 39.3748 25.22 39.3748 22.8469C39.3748 20.4239 40.2222 18.3681 41.917 16.6809C43.6118 14.9861 45.6745 14.1387 48.1051 14.1387C49.4098 14.1387 50.6286 14.4047 51.7608 14.9355C52.8431 15.4669 53.9067 16.3303 54.9522 17.5248L53.157 19.2452C51.7864 17.4202 50.1166 16.5077 48.1481 16.5077C46.3812 16.5077 44.8991 17.1174 43.7018 18.3362C42.5045 19.5335 41.9059 21.0336 41.9059 22.8365C41.9059 24.6969 42.5731 26.2295 43.9076 27.4345C45.1548 28.5521 46.5073 29.1106 47.9645 29.1106C49.2047 29.1106 50.3189 28.6935 51.307 27.8592C52.295 27.0174 52.8466 26.0106 52.9623 24.8375H48.7973V22.4686Z" fill="white"/>
<path fill-rule="evenodd" clip-rule="evenodd" d="M64.629 31.1661H67.1498V14.4634H64.629V31.1661Z" fill="white"/>
<path fill-rule="evenodd" clip-rule="evenodd" d="M81.5322 16.8326V31.1664H79.0115V16.8326H75.1715V14.4636H85.3618V16.8326H81.5322Z" fill="white"/>
<path fill-rule="evenodd" clip-rule="evenodd" d="M105.121 15.3558V18.3366C103.664 17.1171 102.156 16.5081 100.599 16.5081C98.8819 16.5081 97.4358 17.1248 96.2607 18.3581C95.078 19.5838 94.4862 21.0839 94.4862 22.8584C94.4862 24.6107 95.078 26.0893 96.2607 27.2936C97.4435 28.4985 98.893 29.1006 100.609 29.1006C101.497 29.1006 102.25 28.9558 102.871 28.6676C103.217 28.5235 103.576 28.3288 103.947 28.0835C104.318 27.8382 104.71 27.5423 105.121 27.1959V30.2418C103.678 31.0601 102.163 31.4696 100.577 31.4696C98.1897 31.4696 96.1526 30.6368 94.4647 28.9704C92.7845 27.2901 91.944 25.2634 91.944 22.891C91.944 20.7631 92.6473 18.8667 94.0539 17.2003C95.7847 15.1597 98.0241 14.1384 100.772 14.1384C102.272 14.1384 103.722 14.5445 105.121 15.3558Z" fill="white"/>
<path fill-rule="evenodd" clip-rule="evenodd" d="M115.542 22.6167C115.542 24.4612 116.162 25.9779 117.403 27.1676C118.636 28.3559 120.061 28.9504 121.676 28.9504C123.429 28.9504 124.907 28.3448 126.112 27.1344C127.316 25.91 127.918 24.4182 127.918 22.6597C127.918 20.8804 127.323 19.3886 126.133 18.185C124.95 16.9746 123.486 16.369 121.741 16.369C120.003 16.369 118.535 16.9746 117.337 18.185C116.14 19.3817 115.542 20.8582 115.542 22.6167ZM113 22.5897C113 20.2388 113.861 18.219 115.585 16.5311C117.301 14.8439 119.364 14 121.773 14C124.153 14 126.194 14.8509 127.896 16.5533C129.606 18.255 130.46 20.2997 130.46 22.6867C130.46 25.0883 129.602 27.1261 127.885 28.7994C126.162 30.4796 124.081 31.3201 121.644 31.3201C119.487 31.3201 117.551 30.5732 115.834 29.08C113.944 27.4288 113 25.2656 113 22.5897Z" fill="#0FCE7C"/>
<path fill-rule="evenodd" clip-rule="evenodd" d="M138.342 31.1661H140.863V14.4634H138.342V31.1661Z" fill="white"/>
<path fill-rule="evenodd" clip-rule="evenodd" d="M150.637 31.1662V13.3271L162.818 26.0707V14.4635H165.338V32.1834L153.157 19.4717V31.1662H150.637Z" fill="white"/>
<path fill-rule="evenodd" clip-rule="evenodd" d="M16.0833 8.16536V4.60323C16.0833 4.03853 15.6246 3.57983 15.0592 3.57983C14.4938 3.57983 14.0358 4.03853 14.0358 4.60323V8.24366C14.5562 8.18615 15.0848 8.15358 15.6204 8.15358C15.7757 8.15358 15.9295 8.16051 16.0833 8.16536Z" fill="white"/>
<path fill-rule="evenodd" clip-rule="evenodd" d="M21.0368 16.4719L21.2017 16.632C22.7683 18.1536 23.631 20.1948 23.631 22.3788C23.631 24.4706 22.8293 26.4502 21.3742 27.9531L21.2939 28.0348L21.9556 28.6764L23.6088 29.9846C25.5711 27.9247 26.6527 25.2273 26.6527 22.3788C26.6527 19.3931 25.4803 16.6029 23.3531 14.5125L22.3152 15.4908L21.0368 16.4719Z" fill="#0FCE7C"/>
<path fill-rule="evenodd" clip-rule="evenodd" d="M23.4642 30.1373L23.5439 30.0549C23.5661 30.032 23.5868 30.0078 23.6083 29.9849L21.9558 28.676L23.4642 30.1373Z" fill="#0FCE7C"/>
<path fill-rule="evenodd" clip-rule="evenodd" d="M24.7255 35.2077H15.6202C8.54656 35.2077 2.79144 29.4526 2.79144 22.3789C2.79144 15.3046 8.54656 9.55015 15.6202 9.55015C18.5574 9.55015 21.3435 10.5299 23.6051 12.3356L17.3545 18.1108C16.8189 17.8925 16.2341 17.7712 15.6202 17.7712C13.0801 17.7712 11.0125 19.8381 11.0125 22.3789C11.0125 24.9198 13.0801 26.9866 15.6202 26.9866C16.0727 26.9866 16.5099 26.9201 16.9229 26.7982L24.7255 32.6711V35.2077ZM15.6202 24.1943C14.6197 24.1943 13.8049 23.3802 13.8049 22.3789C13.8049 21.3777 14.6197 20.5629 15.6202 20.5629C16.6222 20.5629 17.4363 21.3777 17.4363 22.3789C17.4363 23.3802 16.6222 24.1943 15.6202 24.1943ZM20.2286 22.3789C20.2286 21.474 19.9653 20.6301 19.5136 19.9178L23.2413 16.4735L23.2732 16.5067L27.6834 12.3494L26.6669 11.3329C23.7159 8.38263 19.7935 6.75781 15.6202 6.75781C7.00696 6.75781 -0.000205994 13.765 -0.000205994 22.3789C-0.000205994 30.907 6.87046 37.8567 15.3673 37.9932V38.0001H27.5178V31.2784L19.3265 25.1124C19.8933 24.3474 20.2286 23.4016 20.2286 22.3789Z" fill="white"/>
<path fill-rule="evenodd" clip-rule="evenodd" d="M30.7462 5.3717L29.6272 6.49071L28.5082 5.3717L29.6272 4.25269L30.7462 5.3717Z" fill="#25E899"/>
<path fill-rule="evenodd" clip-rule="evenodd" d="M20.0915 5.50415L19.5566 6.03906L19.0217 5.50415L19.5566 4.96924L20.0915 5.50415Z" fill="#25E899"/>
<path fill-rule="evenodd" clip-rule="evenodd" d="M25.6486 0.806764C25.6486 0.361238 25.2876 0.000244141 24.8421 0.000244141C24.3965 0.000244141 24.0356 0.361238 24.0356 0.806764C24.0356 1.25229 24.3965 1.61328 24.8421 1.61328C25.2876 1.61328 25.6486 1.25229 25.6486 0.806764Z" fill="#25E899"/>
<path fill-rule="evenodd" clip-rule="evenodd" d="M10.2136 16.5144C9.64818 16.5144 9.18948 16.0557 9.18948 15.4903V4.60368C9.18948 4.03759 9.64818 3.57959 10.2136 3.57959C10.779 3.57959 11.237 4.03759 11.237 4.60368V15.4903C11.237 16.0557 10.779 16.5144 10.2136 16.5144Z" fill="white"/>
</svg>
