<svg width="887" height="559" viewBox="0 0 887 559" fill="none" xmlns="http://www.w3.org/2000/svg">
  <g clip-path="url(#clip0)">
    <path d="M204 379c16-11 26-24 22-30-3-5-19 0-36 11-16 11-26 24-22 30 4 5 20 0 36-11z" fill="#FFDB5E"/>
    <path d="M236 351c5 8-6 24-26 38-19 13-39 18-44 10" stroke="#9451EB" stroke-width="3.1" stroke-miterlimit="10"/>
    <path d="M207 383c19-13 30-30 25-37-5-8-25-3-44 10s-31 30-26 38c5 7 25 2 45-11z" stroke="#9451EB" stroke-width="3.1" stroke-miterlimit="10"/>
    <path d="M232 346l8 10c5 8-7 25-26 38s-39 18-44 10l-8-10" stroke="#9451EB" stroke-width="3.1" stroke-miterlimit="10"/>
    <path d="M210 366l-2 4-6 4 1 2-2 1-1-1-8 4h-4l4-3h3l4-2-3-4a223 223 0 01-10 5l-2-1c-1-1 0-2 1-4l7-6-1-1 3-2 1 1 7-4h5l-5 4h-3l-3 1 2 4a112 112 0 0110-4h3l-1 2zm-19 6l4-2-2-4-4 4-1 2h3zm14-2l1-3h-2l-5 2 3 4 3-3z" fill="#110F4C"/>
    <path d="M44 513c3 9 7 16 10 15s4-9 2-18c-3-9-7-16-10-15s-4 9-2 18z" fill="#FFDB5E"/>
    <path d="M52 532c-5 1-10-7-13-18-2-11-1-20 3-21" stroke="#9451EB" stroke-width="1.5" stroke-miterlimit="10"/>
    <path d="M42 513c3 11 8 19 13 18 4-1 5-10 3-21-3-11-8-19-13-18-4 1-5 10-3 21z" stroke="#9451EB" stroke-width="1.5" stroke-miterlimit="10"/>
    <path d="M55 531l-6 2c-5 1-10-7-13-18-2-11-1-21 3-22l6-1" stroke="#9451EB" stroke-width="1.5" stroke-miterlimit="10"/>
    <path d="M49 518l-1-2-1-3h-1v-1h1l-1-5 1-2 1 3-1 1v2h2a108 108 0 010-5l1-1 1 1 2 4h1v1l-1 1 1 4-1 2-1-3 1-1v-2h-3a54 54 0 011 5l-1 2-1-1zm1-10v3l2-1-1-2-1-1v1zm-1 7v1l1-1v-3l-2 1 1 2z" fill="#110F4C"/>
    <path d="M599 320c2 10 6 16 9 16 3-1 4-9 2-18-3-9-7-16-10-15-3 0-4 8-1 17z" fill="#FFDB5E"/>
    <path d="M606 340c-5 1-10-7-13-18-2-11-1-21 3-22" stroke="#9451EB" stroke-width="1.5" stroke-miterlimit="10"/>
    <path d="M596 321c3 11 9 19 13 18s5-11 3-22c-3-11-8-19-13-18-4 1-5 11-3 22z" stroke="#9451EB" stroke-width="1.5" stroke-miterlimit="10"/>
    <path d="M609 339l-6 1c-5 1-10-7-13-18-2-11-1-20 3-21l6-2" stroke="#9451EB" stroke-width="1.5" stroke-miterlimit="10"/>
    <path d="M603 326l-1-2-1-3h-1v-2h1l-1-4 1-2 1 3-1 1v2l3-1a107 107 0 01-1-5l1-1 1 1 2 5 1-1v2h-1l1 4-1 2-1-3 1-1v-2l-3 1a54 54 0 011 5l-1 1h-1zm1-10v2h2l-1-3-1 1zm-1 7h1v-1-2h-2l1 3z" fill="#110F4C"/>
    <path d="M146 257c2-4-8-13-22-18-14-6-27-6-29-2-2 5 8 13 22 19 14 5 27 6 29 1z" fill="#02E2AC"/>
    <path d="M150 264c-3 7-19 7-36 0-17-6-29-17-26-24" stroke="#9451EB" stroke-width="3.1" stroke-miterlimit="10"/>
    <path d="M151 259c3-6-9-17-26-24-17-6-33-6-35 0-3 7 9 18 26 24 17 7 33 7 35 0z" stroke="#9451EB" stroke-width="3.1" stroke-miterlimit="10"/>
    <path d="M151 259l-3 10c-3 6-19 6-36 0-17-7-28-18-26-24l4-10" stroke="#9451EB" stroke-width="3.1" stroke-miterlimit="10"/>
    <path d="M128 254h-3l-5-1-1 1-2-1v-1l-6-4-2-2 5 1 1 2 3 2 1-4a95 95 0 01-7-4l-1-2 3-1 7 2 1-1 2 1v1l5 3c2 1 2 2 2 3l-4-2-1-1-3-2-1 3 5 3 2 2 1 1-2 1zm-12-10l4 2 1-3-4-1-2 1 1 1zm8 9l2-1-1-1-3-3-2 4 4 1z" fill="#110F4C"/>
    <path d="M106 68c2 2 9 0 16-6 8-6 12-13 10-15-2-3-9 0-17 6-7 6-11 13-9 15z" fill="#02E2AC"/>
    <path d="M101 68c-3-4 2-12 11-19s18-10 21-7" stroke="#9451EB" stroke-width="1.9" stroke-miterlimit="10"/>
    <path d="M103 70c3 3 12 0 21-6 9-7 13-16 11-19-3-4-12-1-21 6s-14 16-11 19z" stroke="#9451EB" stroke-width="1.9" stroke-miterlimit="10"/>
    <path d="M103 70l-4-5c-2-3 2-12 11-19s18-9 21-6l4 5" stroke="#9451EB" stroke-width="1.9" stroke-miterlimit="10"/>
    <path d="M113 59l1-1 2-3 1-1h1l3-2h2l-2 2h-1l-2 1 1 2a57 57 0 015-3h1v2l-3 3v1l-1 1-1-1-3 2-2 1 2-2h1l2-1-1-2-3 2-2 1-1-1v-1zm9-3l-2 1 1 2 2-2v-1h-1zm-7 2v1h1l2-1-1-2-2 2z" fill="#110F4C"/>
    <path d="M656 418c-2 5 8 13 22 19 14 5 27 6 29 1s-8-13-22-18c-14-6-27-7-29-2z" fill="#02E2AC"/>
    <path d="M653 411c2-6 18-6 35 0 17 7 29 18 26 24" stroke="#9451EB" stroke-width="3.1" stroke-miterlimit="10"/>
    <path d="M651 416c-3 7 9 18 26 24 17 7 33 7 35 0 3-6-9-17-26-24-17-6-33-6-35 0z" stroke="#9451EB" stroke-width="3.1" stroke-miterlimit="10"/>
    <path d="M651 416l3-9c3-7 19-7 36 0 17 6 29 17 26 24l-4 9" stroke="#9451EB" stroke-width="3.1" stroke-miterlimit="10"/>
    <path d="M674 421h3l5 2 1-1 2 1v1l6 3 2 3-4-2-1-1-4-2-1 3a95 95 0 017 5l1 1-3 1-7-1-1 1-2-1v-1l-5-4-2-2 4 1 1 2 3 2 1-4-4-2-3-2-1-2 2-1zm12 10l-4-2-1 4 4 1 2-1-1-2zm-8-8h-2l1 2 4 2 1-3-4-1z" fill="#110F4C"/>
    <path d="M454 323c0-9 1-11 6-19 7 5 10 6 19 6 0 8-1 11-6 19-7-5-10-6-19-6z" fill="#9451EB"/>
    <path d="M17 357c-1 4 3 7 2 11l-10-2c1-4-3-7-2-11l10 2zM231 511c1-4-2-7-2-11l10 2c0 4 3 7 2 11l-10-2zM785 318c1-4-2-7-1-11l9 2c0 4 3 7 2 11l-10-2zM395 544c1-4-3-7-2-11l10 2c-1 4 3 7 2 11l-10-2z" fill="#FFDB5E"/>
    <path d="M337 379c4 6 8 7 14 3l-3 14c-6 4-10 3-14-3l3-14z" stroke="#FFDB5E" stroke-width="1.9" stroke-miterlimit="10"/>
    <path d="M113 372c-6 0-11 7-10 14l-14-10c-1-6 4-13 10-14l14 10zM135 496c6 0 11-7 10-14l14 10c1 6-4 13-10 14l-14-10zM689 304c6-1 11-8 10-14l14 10c1 6-4 13-10 14l-14-10z" stroke="#02E2AC" stroke-width="1.9" stroke-miterlimit="10"/>
    <path d="M315 466c-1 5 3 9 2 14l-12-4c1-5-3-9-2-14l12 4zM869 274c-1 4 3 8 2 13l-12-3c1-5-3-9-2-14l12 4z" fill="#02E2AC"/>
    <path d="M399 256c3-5 6-7 13-7 0 7 1 9 7 13-4 5-6 7-13 7 0-6-2-9-7-13z" stroke="#02E2AC" stroke-width="1.9" stroke-miterlimit="10"/>
    <path d="M306 277c6-1 10-6 17-7l-1 17c-6 1-10 6-16 6v-16zM496 399c-6 1-10 5-17 6l1-17c6-1 10-5 17-6l-1 17zM211 283c-6 1-11 5-17 6v-17c7-1 11-5 17-6v17z" stroke="#9451EB" stroke-width="1.9" stroke-miterlimit="10"/>
    <path d="M299 218c0 5-1 6-5 9-2-4-4-4-9-4 0-5 1-7 5-9 2 3 4 4 9 4zM504 457c0-4 0-6 4-8 3 3 4 4 9 4 0 4-1 6-5 9-2-4-4-5-8-5z" fill="#FFDB5E"/>
    <path d="M27 242c0 6 6 9 7 15H18c0-6-6-8-6-15h15zM206 54c0-6-7-9-7-15l16-1c0 6 6 9 6 15l-15 1zM775 433c0-6-6-9-6-15h15c0 6 6 9 6 15h-15zM335 52c-1-6 0-8 4-11 3 3 6 4 11 4 0 5-1 7-4 11-4-4-6-5-11-4zM491 172c-4-8-5-10-3-19 9 1 11 1 19-3 4 7 5 10 3 19-8-1-11-1-19 3z" fill="#9451EB"/>
    <path d="M380 186c5-3 6-11 2-16l17 3c3 5 2 13-3 16l-16-3z" fill="#02E2AC"/>
    <path d="M212 204c-4-2-5-3-6-7 4-2 5-3 7-7 4 2 6 3 7 7-5 2-6 3-8 7zM21 92c4 1 5 3 6 7-4 1-6 3-7 7-4-2-6-3-7-8 4-1 6-2 8-6zM590 471c4 2 5 4 7 8-5 1-6 2-8 7-4-2-6-4-7-8 5-1 6-2 8-7z" fill="#9451EB"/>
    <path d="M102 163c-5 4-6 9-2 15l-15-3c-4-6-3-10 3-14l14 2zM419 429c-6 4-7 8-3 14l-15-3c-4-5-3-10 3-14l15 3zM131 133c5-4 6-9 2-15l15 3c4 5 3 10-3 14l-14-2zM700 512c6-4 6-8 3-14l14 2c4 6 3 11-3 15l-14-3z" fill="#02E2AC"/>
    <path d="M256 109c4-4 12-5 17-3-2 5-1 13 3 17-5 3-12 5-17 3 2-5 1-13-3-17zM825 489c5-4 12-5 17-3-2 5-1 12 3 17-4 3-12 4-17 2 2-5 1-12-3-16z" stroke="#FFDB5E" stroke-width="1.9" stroke-miterlimit="10"/>
    <path d="M782 213c15-10 25-23 21-28-3-5-18-1-33 10-16 10-25 23-21 28 3 5 18 1 33-10z" fill="#FFDB5E"/>
    <path d="M812 187c5 7-6 22-24 35-18 12-36 17-41 10" stroke="#9451EB" stroke-width="2.9" stroke-miterlimit="10"/>
    <path d="M785 217c18-13 29-29 24-36s-24-2-42 10c-18 13-29 29-24 36s24 2 42-10z" stroke="#9451EB" stroke-width="2.9" stroke-miterlimit="10"/>
    <path d="M809 181l7 10c5 7-6 23-24 36-18 12-37 17-42 10l-7-10" stroke="#9451EB" stroke-width="2.9" stroke-miterlimit="10"/>
    <path d="M788 201l-2 3-5 4 1 2-3 1-1-1-7 4h-4l4-3h3l4-2-3-4a213 213 0 01-9 5l-3-1c0-1 0-2 2-3l6-6-1-1 3-2 1 1 7-4h4l-5 3h-2l-4 2 3 4a105 105 0 019-5l3 1-1 2zm-18 5l4-2-2-3-4 3v2h2zm14-2v-2h-2l-4 2 2 3 4-3z" fill="#110F4C"/>
    <path d="M721 106c2-4-7-12-21-17-13-5-25-6-27-1-2 4 8 12 21 17s26 6 27 1z" fill="#02E2AC"/>
    <path d="M724 113c-2 6-17 6-33 0s-27-16-24-23" stroke="#9451EB" stroke-width="2.9" stroke-miterlimit="10"/>
    <path d="M726 108c3-6-8-16-24-22s-31-6-34 0c-2 6 9 16 25 22s31 6 33 0z" stroke="#9451EB" stroke-width="2.9" stroke-miterlimit="10"/>
    <path d="M726 108l-3 9c-3 6-18 6-34 0s-27-16-24-22l3-9" stroke="#9451EB" stroke-width="2.9" stroke-miterlimit="10"/>
    <path d="M705 104h-4l-4-2-1 1-2-1v-1l-6-3-1-2 4 1 1 2 3 1 1-3a88 88 0 01-7-4l-1-2 3-1 7 2v-1l3 1-1 1 6 3 1 2-4-1-1-2-2-1-2 3 5 2 2 2 1 2-1 1zm-12-10l3 2 2-3-4-1-2 1 1 1zm8 8l1-1-1-1-3-2-1 3 4 1z" fill="#110F4C"/>
    <path d="M600 201c-1 3 2 6 1 10l-9-2c1-4-2-7-2-11l10 3z" fill="#FFDB5E"/>
    <path d="M690 214c-6 1-10 7-9 13l-13-9c-1-6 3-13 9-13l13 9z" stroke="#02E2AC" stroke-width="1.7" stroke-miterlimit="10"/>
    <path d="M521 242c1-4-3-8-2-12l12 3c-2 4 2 8 1 13l-11-4z" fill="#02E2AC"/>
    <path d="M861 125c6-1 10-5 16-6v15c-6 1-10 5-16 6v-15zM565 522c1-6-2-11-1-17l15 5c-1 6 2 11 1 17l-15-5z" stroke="#9451EB" stroke-width="1.7" stroke-miterlimit="10"/>
    <path d="M864 70c0 4 0 5-4 8-2-3-4-4-8-4 0-4 1-6 4-8 3 3 4 4 8 4z" fill="#FFDB5E"/>
    <path d="M609 92c1 6 6 9 6 14l-14 1c0-6-6-9-6-14l14-1zM488 94c1 5 0 7-4 10-3-3-5-4-10-4 0-4 0-7 4-10 3 4 6 4 10 4zM783 57c-4-2-5-4-6-8 4-1 6-2 7-6 4 2 5 3 7 7-5 1-6 3-8 7z" fill="#9451EB"/>
    <path d="M680 18c-5 4-6 8-2 14l-14-3c-4-5-3-10 2-13l14 2z" fill="#02E2AC"/>
    <path d="M562 40c-4 4-11 5-16 3 2-5 1-12-2-16 4-3 11-4 16-3-2 5-1 12 2 16z" stroke="#FFDB5E" stroke-width="1.7" stroke-miterlimit="10"/>
  </g>
  <defs>
    <clipPath id="clip0">
      <path fill="#fff" d="M0 0h887v559H0z"/>
    </clipPath>
  </defs>
</svg>