<svg width="887" height="559" viewBox="0 0 887 559" fill="none" xmlns="http://www.w3.org/2000/svg">
<g clip-path="url(#clip0)">

<path d="M203.921 379.36C220.006 368.245 230.033 354.872 226.314 349.491C222.596 344.111 206.542 348.76 190.456 359.876C174.37 370.991 164.344 384.364 168.062 389.745C171.78 395.125 187.835 390.476 203.921 379.36Z" fill="#FFDB5E"/>
<path d="M235.928 351.101C241.109 358.564 229.698 375.403 210.455 388.725C191.211 402.047 171.413 406.735 166.232 399.272" stroke="#9451EB" stroke-width="3.08389" stroke-miterlimit="10"/>
<path d="M206.55 383.166C225.803 369.862 237.219 353.012 232.048 345.529C226.878 338.047 207.079 342.766 187.826 356.07C168.574 369.374 157.158 386.225 162.328 393.707C167.499 401.189 187.298 396.47 206.55 383.166Z" stroke="#9451EB" stroke-width="3.08389" stroke-miterlimit="10"/>
<path d="M232.042 345.55L239.505 356.282C244.686 363.745 233.276 380.583 214.032 393.906C194.789 407.228 174.99 411.916 169.809 404.453L162.346 393.721" stroke="#9451EB" stroke-width="3.08389" stroke-miterlimit="10"/>
<path d="M210.393 366.336C209.9 367.323 208.975 368.495 207.679 369.913C206.322 371.27 204.596 372.75 202.498 374.292L203.362 375.526L200.648 377.376L199.785 376.143C196.701 378.178 194.049 379.535 191.767 380.337C189.484 381.139 188.066 381.139 187.511 380.337L192.322 377.006C192.753 377.376 193.555 377.376 194.665 377.068C195.776 376.759 197.256 376.081 198.921 375.032L196.207 371.147C193.864 372.504 191.952 373.552 190.471 374.354C188.991 375.094 187.634 375.649 186.401 375.896C185.167 376.143 184.303 375.958 183.872 375.279C183.317 374.416 183.748 373.12 185.229 371.27C186.709 369.42 188.991 367.384 192.075 365.164L191.211 363.869L193.925 362.018L194.789 363.314C197.688 361.463 200.155 360.168 202.19 359.428C204.287 358.75 205.706 358.688 206.508 359.305L201.697 362.635C201.265 362.389 200.525 362.389 199.476 362.697C198.428 363.005 197.132 363.622 195.652 364.486L198.304 368.31C200.648 366.953 202.56 365.904 204.04 365.164C205.521 364.362 206.939 363.869 208.111 363.622C209.345 363.375 210.146 363.56 210.64 364.239C210.948 364.547 210.887 365.287 210.393 366.336ZM190.656 372.072C191.828 371.702 193.37 370.9 195.344 369.79L192.877 366.213C191.211 367.446 189.916 368.618 189.114 369.605C188.313 370.592 188.066 371.393 188.436 371.887C188.744 372.38 189.546 372.442 190.656 372.072ZM205.459 369.543C206.261 368.495 206.446 367.754 206.137 367.261C205.767 366.768 205.027 366.706 203.855 367.138C202.683 367.569 201.08 368.31 199.168 369.42L201.697 373.12C203.362 371.764 204.657 370.592 205.459 369.543Z" fill="#110F4C"/>
<path d="M44.4691 512.888C46.6549 522.014 50.9014 528.82 53.9543 528.088C57.0067 527.357 57.7097 519.366 55.5237 510.24C53.338 501.114 49.0917 494.308 46.039 495.039C42.9862 495.771 42.2835 503.761 44.4691 512.888Z" fill="#FFDB5E"/>
<path d="M51.5669 532.112C47.3286 533.136 41.7713 525.11 39.1454 514.188C36.5195 503.266 37.8543 493.593 42.0926 492.568" stroke="#9451EB" stroke-width="1.48011" stroke-miterlimit="10"/>
<path d="M42.3102 513.405C44.9262 524.328 50.4881 532.358 54.7333 531.342C58.9783 530.325 60.2991 520.646 57.683 509.723C55.067 498.8 49.5048 490.77 45.2599 491.786C41.0146 492.803 39.694 502.482 42.3102 513.405Z" stroke="#9451EB" stroke-width="1.48011" stroke-miterlimit="10"/>
<path d="M54.7248 531.335L48.628 532.814C44.3897 533.839 38.8324 525.813 36.2065 514.891C33.5806 503.969 34.9154 494.296 39.1536 493.271L45.2505 491.792" stroke="#9451EB" stroke-width="1.48011" stroke-miterlimit="10"/>
<path d="M49.1758 518.043C48.8197 517.651 48.4557 517.034 48.0454 516.208C47.6734 515.365 47.3103 514.336 46.9838 513.13L46.282 513.303L45.9245 511.767L46.6262 511.595C46.25 509.862 46.1026 508.439 46.1394 507.279C46.1762 506.119 46.4222 505.484 46.8772 505.374L47.5337 508.105C47.2933 508.234 47.1542 508.593 47.0998 509.143C47.0453 509.694 47.0923 510.474 47.2728 511.401L49.4823 510.86C49.2814 509.576 49.1437 508.538 49.0415 507.737C48.9669 506.946 48.9537 506.242 49.0572 505.648C49.1606 505.053 49.3931 504.698 49.7716 504.623C50.2543 504.524 50.7591 504.942 51.3306 505.925C51.902 506.908 52.4173 508.283 52.8763 510.048L53.6057 509.886L53.9633 511.421L53.2339 511.583C53.5594 513.201 53.7113 514.53 53.6897 515.569C53.6297 516.625 53.4114 517.271 52.9963 517.523L52.3398 514.792C52.5251 514.642 52.6534 514.311 52.6972 513.788C52.741 513.265 52.6895 512.578 52.5597 511.766L50.3885 512.29C50.5894 513.574 50.7272 514.612 50.8017 515.403C50.9039 516.204 50.8788 516.925 50.7861 517.492C50.6826 518.087 50.4608 518.413 50.0716 518.517C49.8801 518.601 49.5596 518.445 49.1758 518.043ZM50.0307 508.215C49.9931 508.804 50.0846 509.633 50.2393 510.709L52.268 510.225C52.0047 509.266 51.7048 508.483 51.4022 507.953C51.0995 507.423 50.7835 507.173 50.4985 507.254C50.2242 507.306 50.0576 507.654 50.0307 508.215ZM48.596 515.278C48.9262 515.819 49.2254 516.03 49.4997 515.978C49.7846 515.898 49.9406 515.577 49.9505 514.978C49.9605 514.378 49.9073 513.532 49.7419 512.484L47.6473 512.974C47.9658 513.955 48.2657 514.738 48.596 515.278Z" fill="#110F4C"/>
<path d="M598.524 320.389C600.71 329.515 604.957 336.321 608.01 335.59C611.062 334.859 611.765 326.868 609.579 317.741C607.393 308.615 603.147 301.81 600.094 302.541C597.041 303.272 596.339 311.263 598.524 320.389Z" fill="#FFDB5E"/>
<path d="M605.622 339.613C601.384 340.638 595.826 332.612 593.201 321.69C590.575 310.768 591.909 301.094 596.148 300.07" stroke="#9451EB" stroke-width="1.48011" stroke-miterlimit="10"/>
<path d="M596.365 320.906C598.981 331.829 604.543 339.86 608.789 338.843C613.033 337.826 614.354 328.147 611.738 317.225C609.122 306.302 603.56 298.271 599.315 299.288C595.07 300.304 593.749 309.984 596.365 320.906Z" stroke="#9451EB" stroke-width="1.48011" stroke-miterlimit="10"/>
<path d="M608.78 338.836L602.683 340.316C598.445 341.341 592.888 333.315 590.262 322.393C587.636 311.471 588.971 301.797 593.209 300.773L599.306 299.293" stroke="#9451EB" stroke-width="1.48011" stroke-miterlimit="10"/>
<path d="M603.231 325.544C602.875 325.152 602.511 324.535 602.101 323.709C601.729 322.867 601.366 321.837 601.039 320.631L600.337 320.804L599.98 319.269L600.682 319.096C600.305 317.363 600.158 315.941 600.195 314.78C600.232 313.62 600.477 312.985 600.933 312.876L601.589 315.606C601.349 315.735 601.21 316.094 601.155 316.645C601.101 317.195 601.148 317.975 601.328 318.902L603.538 318.361C603.337 317.077 603.199 316.04 603.097 315.238C603.022 314.447 603.009 313.744 603.112 313.149C603.216 312.554 603.448 312.2 603.827 312.124C604.31 312.025 604.814 312.443 605.386 313.426C605.957 314.41 606.473 315.784 606.932 317.549L607.661 317.387L608.019 318.923L607.289 319.084C607.615 320.703 607.767 322.031 607.745 323.07C607.685 324.127 607.467 324.772 607.052 325.024L606.395 322.294C606.58 322.143 606.709 321.812 606.752 321.289C606.796 320.766 606.745 320.08 606.615 319.268L604.444 319.792C604.645 321.076 604.782 322.113 604.857 322.904C604.959 323.706 604.934 324.426 604.841 324.993C604.738 325.588 604.516 325.915 604.127 326.018C603.935 326.103 603.615 325.947 603.231 325.544ZM604.086 315.716C604.048 316.305 604.14 317.134 604.295 318.21L606.323 317.726C606.06 316.767 605.76 315.984 605.457 315.454C605.155 314.924 604.839 314.675 604.554 314.755C604.279 314.807 604.113 315.155 604.086 315.716ZM602.651 322.78C602.982 323.32 603.281 323.531 603.555 323.479C603.84 323.399 603.996 323.078 604.006 322.479C604.016 321.88 603.963 321.034 603.797 319.986L601.703 320.476C602.021 321.456 602.321 322.239 602.651 322.78Z" fill="#110F4C"/>
<path d="M146.334 257.331C148.173 252.601 138.132 244.283 123.908 238.755C109.684 233.226 96.6618 232.579 94.8232 237.31C92.984 242.04 103.025 250.358 117.249 255.886C131.473 261.416 144.495 262.062 146.334 257.331Z" fill="#02E2AC"/>
<path d="M149.517 264.197C146.927 270.797 131.075 270.797 114.052 264.197C97.0293 257.598 85.3722 246.866 87.901 240.266" stroke="#9451EB" stroke-width="3.08389" stroke-miterlimit="10"/>
<path d="M151.393 259.298C153.96 252.694 142.245 241.977 125.227 235.362C108.208 228.747 92.3308 228.739 89.7637 235.343C87.1967 241.947 98.9118 252.664 115.931 259.279C132.949 265.894 148.826 265.902 151.393 259.298Z" stroke="#9451EB" stroke-width="3.08389" stroke-miterlimit="10"/>
<path d="M151.429 259.263L147.728 268.762C145.138 275.361 129.287 275.361 112.264 268.762C95.2405 262.162 83.5834 251.43 86.1122 244.831L89.8129 235.332" stroke="#9451EB" stroke-width="3.08389" stroke-miterlimit="10"/>
<path d="M128.485 254.391C127.622 254.514 126.45 254.452 124.969 254.206C123.489 253.959 121.824 253.465 119.85 252.725L119.418 253.835L117.013 252.91L117.445 251.8C114.793 250.69 112.757 249.58 111.215 248.47C109.735 247.359 109.118 246.434 109.365 245.694L113.621 247.359C113.559 247.791 113.929 248.284 114.607 248.901C115.286 249.518 116.396 250.135 117.815 250.752L119.172 247.298C117.26 246.372 115.718 245.571 114.607 244.954C113.497 244.337 112.51 243.659 111.832 242.98C111.092 242.302 110.845 241.685 111.092 241.068C111.4 240.328 112.449 240.02 114.299 240.205C116.149 240.39 118.493 240.945 121.269 241.993L121.7 240.821L124.106 241.747L123.674 242.918C126.141 243.967 128.053 245.016 129.41 246.002C130.767 247.051 131.446 247.914 131.384 248.716L127.128 247.051C127.128 246.681 126.758 246.187 126.08 245.632C125.401 245.077 124.476 244.522 123.242 243.905L121.947 247.236C123.797 248.161 125.339 248.901 126.511 249.58C127.683 250.196 128.608 250.875 129.287 251.553C129.965 252.232 130.212 252.849 129.965 253.465C129.904 253.959 129.348 254.267 128.485 254.391ZM116.211 244.152C116.951 244.707 118.123 245.386 119.727 246.187L120.96 242.98C119.418 242.425 118.123 242.117 117.136 241.993C116.149 241.87 115.533 242.117 115.348 242.548C115.163 243.104 115.409 243.597 116.211 244.152ZM124.229 252.602C125.216 252.664 125.833 252.479 126.018 252.047C126.203 251.615 125.895 251.06 125.093 250.505C124.291 249.95 123.119 249.21 121.577 248.47L120.344 251.738C121.947 252.232 123.242 252.54 124.229 252.602Z" fill="#110F4C"/>
<path d="M105.794 67.9611C107.736 70.3798 115.206 67.6072 122.479 61.7684C129.751 55.9295 134.073 49.2352 132.131 46.8165C130.189 44.3976 122.719 47.1701 115.446 53.0093C108.173 58.8479 103.852 65.5425 105.794 67.9611Z" fill="#02E2AC"/>
<path d="M101.188 67.5479C98.4864 64.1603 103.33 55.7709 112.025 48.7779C120.719 41.7848 129.961 38.8945 132.681 42.2495" stroke="#9451EB" stroke-width="1.88468" stroke-miterlimit="10"/>
<path d="M103.208 70.0379C105.918 73.4144 115.17 70.4887 123.871 63.503C132.573 56.517 137.429 48.1165 134.718 44.7398C132.007 41.3632 122.755 44.2889 114.054 51.2749C105.353 58.2606 100.497 66.6611 103.208 70.0379Z" stroke="#9451EB" stroke-width="1.88468" stroke-miterlimit="10"/>
<path d="M103.215 70.0675L99.3185 65.2065C96.6172 61.8189 101.461 53.4294 110.155 46.4364C118.85 39.4434 128.092 36.5531 130.812 39.9081L134.708 44.7691" stroke="#9451EB" stroke-width="1.88468" stroke-miterlimit="10"/>
<path d="M112.805 59.413C113.003 58.9183 113.394 58.3169 113.977 57.6088C114.56 56.9008 115.33 56.1702 116.324 55.3517L115.869 54.784L117.093 53.7936L117.549 54.3613C118.947 53.2969 120.157 52.5589 121.215 52.0821C122.255 51.6379 122.933 51.5941 123.25 51.9509L121.068 53.6944C120.858 53.5298 120.484 53.5749 119.95 53.7455C119.417 53.9161 118.751 54.3153 117.991 54.8776L119.404 56.6512C120.478 55.9219 121.374 55.3508 122.04 54.9517C122.705 54.5526 123.366 54.2376 123.932 54.0859C124.517 53.9015 124.919 53.9594 125.17 54.2784C125.468 54.6678 125.311 55.3169 124.647 56.2397C123.984 57.1625 122.974 58.2333 121.571 59.3819L122.059 59.9685L120.835 60.9589L120.346 60.3723C119.037 61.3576 117.898 62.0492 116.961 62.4658C115.992 62.8636 115.327 62.9588 114.922 62.6811L117.104 60.9376C117.3 61.0507 117.674 61.0056 118.175 60.8161C118.676 60.6267 119.253 60.3066 119.956 59.8422L118.589 58.139C117.534 58.8356 116.671 59.4255 115.954 59.8384C115.269 60.2702 114.628 60.5525 114.061 60.7043C113.495 60.8561 113.093 60.7982 112.842 60.4791C112.6 60.2957 112.606 59.9077 112.805 59.413ZM121.974 56.0455C121.454 56.2676 120.737 56.6805 119.822 57.2842L121.143 58.9171C121.908 58.2707 122.467 57.6794 122.834 57.1948C123.201 56.7102 123.258 56.3083 123.086 56.0785C122.849 55.8109 122.513 55.7907 121.974 56.0455ZM115.052 57.7071C114.717 58.2106 114.627 58.5936 114.799 58.8234C114.971 59.0533 115.359 59.0597 115.898 58.8049C116.436 58.5502 117.186 58.1561 118.049 57.5662L116.696 55.9144C115.945 56.6124 115.386 57.2037 115.052 57.7071Z" fill="#110F4C"/>
<path d="M655.808 418.17C653.969 422.901 664.01 431.218 678.234 436.747C692.458 442.275 705.48 442.922 707.319 438.192C709.158 433.461 699.118 425.144 684.893 419.615C670.669 414.086 657.647 413.439 655.808 418.17Z" fill="#02E2AC"/>
<path d="M652.625 411.304C655.215 404.704 671.066 404.704 688.089 411.304C705.113 417.904 716.77 428.635 714.241 435.235" stroke="#9451EB" stroke-width="3.08389" stroke-miterlimit="10"/>
<path d="M650.749 416.204C648.182 422.808 659.897 433.524 676.915 440.139C693.934 446.754 709.811 446.763 712.378 440.158C714.945 433.554 703.23 422.838 686.211 416.223C669.193 409.608 653.316 409.599 650.749 416.204Z" stroke="#9451EB" stroke-width="3.08389" stroke-miterlimit="10"/>
<path d="M650.713 416.238L654.414 406.74C657.004 400.14 672.855 400.14 689.878 406.74C706.901 413.339 718.558 424.071 716.03 430.671L712.329 440.169" stroke="#9451EB" stroke-width="3.08389" stroke-miterlimit="10"/>
<path d="M673.657 421.111C674.521 420.987 675.692 421.049 677.173 421.296C678.653 421.543 680.318 422.036 682.292 422.776L682.724 421.666L685.129 422.591L684.697 423.701C687.35 424.811 689.385 425.922 690.927 427.032C692.407 428.142 693.024 429.067 692.777 429.807L688.521 428.142C688.583 427.71 688.213 427.217 687.535 426.6C686.856 425.983 685.746 425.367 684.327 424.75L682.97 428.204C684.882 429.129 686.424 429.931 687.535 430.547C688.645 431.164 689.632 431.843 690.31 432.521C691.05 433.2 691.297 433.816 691.05 434.433C690.742 435.173 689.693 435.482 687.843 435.297C685.993 435.112 683.649 434.557 680.873 433.508L680.442 434.68L678.036 433.755L678.468 432.583C676.001 431.534 674.089 430.486 672.732 429.499C671.375 428.45 670.697 427.587 670.758 426.785L675.014 428.45C675.014 428.82 675.384 429.314 676.063 429.869C676.741 430.424 677.666 430.979 678.9 431.596L680.195 428.265C678.345 427.34 676.803 426.6 675.631 425.922C674.459 425.305 673.534 424.626 672.855 423.948C672.177 423.269 671.93 422.653 672.177 422.036C672.238 421.543 672.794 421.234 673.657 421.111ZM685.931 431.349C685.191 430.794 684.019 430.116 682.415 429.314L681.182 432.521C682.724 433.076 684.019 433.385 685.006 433.508C685.993 433.631 686.609 433.385 686.794 432.953C686.979 432.398 686.733 431.904 685.931 431.349ZM677.913 422.899C676.926 422.838 676.309 423.023 676.124 423.455C675.939 423.886 676.248 424.441 677.049 424.996C677.851 425.552 679.023 426.292 680.565 427.032L681.799 423.763C680.195 423.269 678.9 422.961 677.913 422.899Z" fill="#110F4C"/>
<path d="M454.391 323.161C454.021 314.28 454.761 311.628 459.757 304.226C467.158 309.161 469.81 309.901 478.692 309.592C479.062 318.474 478.322 321.126 473.326 328.527C465.986 323.531 463.272 322.791 454.391 323.161Z" fill="#9451EB"/>
<path d="M16.8481 357.454C15.9846 361.402 19.5002 364.301 18.6367 368.248C14.6893 367.384 12.654 366.953 8.70658 366.028C9.57007 362.08 6.05444 359.181 6.91793 355.234C10.927 356.159 12.9007 356.591 16.8481 357.454Z" fill="#FFDB5E"/>
<path d="M231.239 510.546C232.102 506.598 228.587 503.699 229.45 499.752C233.397 500.616 235.433 501.047 239.38 501.972C238.517 505.92 242.032 508.819 241.169 512.766C237.16 511.841 235.186 511.409 231.239 510.546Z" fill="#FFDB5E"/>
<path d="M785.294 318.047C786.157 314.1 782.642 311.201 783.505 307.253C787.453 308.117 789.488 308.549 793.435 309.474C792.572 313.421 796.088 316.32 795.224 320.267C791.215 319.342 789.241 318.911 785.294 318.047Z" fill="#FFDB5E"/>
<path d="M394.926 543.794C395.79 539.846 392.274 536.947 393.138 533C397.085 533.864 399.12 534.295 403.068 535.22C402.204 539.168 405.72 542.067 404.856 546.014C400.847 545.089 398.874 544.657 394.926 543.794Z" fill="#FFDB5E"/>
<path d="M337.079 378.857C340.718 384.531 345.468 385.579 351.142 381.94C349.908 387.553 349.292 390.39 348.058 396.003C342.384 399.642 337.634 398.593 333.995 392.919C335.229 387.306 335.846 384.531 337.079 378.857Z" stroke="#FFDB5E" stroke-width="1.85034" stroke-miterlimit="10"/>
<path d="M113.066 371.517C106.898 372.442 102.025 379.412 103.32 385.579C97.7077 381.694 94.8706 379.72 89.2579 375.834C87.9626 369.728 92.8352 362.759 99.003 361.772C104.677 365.657 107.453 367.631 113.066 371.517Z" stroke="#02E2AC" stroke-width="1.85034" stroke-miterlimit="10"/>
<path d="M135.021 496.483C141.189 495.558 146.062 488.588 144.766 482.421C150.379 486.306 153.216 488.28 158.829 492.166C160.124 498.272 155.252 505.241 149.084 506.228C143.41 502.343 140.634 500.369 135.021 496.483Z" stroke="#02E2AC" stroke-width="1.85034" stroke-miterlimit="10"/>
<path d="M689.077 303.985C695.244 303.059 700.117 296.09 698.822 289.922C704.434 293.808 707.272 295.781 712.884 299.667C714.179 305.773 709.307 312.743 703.139 313.73C697.465 309.844 694.689 307.87 689.077 303.985Z" stroke="#02E2AC" stroke-width="1.85034" stroke-miterlimit="10"/>
<path d="M315.367 466.014C313.949 470.825 318.081 474.649 316.724 479.522C311.913 478.103 309.446 477.425 304.635 476.006C306.054 471.195 301.921 467.371 303.278 462.499C308.089 463.917 310.495 464.596 315.367 466.014Z" fill="#02E2AC"/>
<path d="M869.422 273.516C868.004 278.326 872.136 282.151 870.779 287.023C865.968 285.604 863.501 284.926 858.69 283.507C860.109 278.697 855.977 274.873 857.334 270C862.144 271.419 864.55 272.097 869.422 273.516Z" fill="#02E2AC"/>
<path d="M398.819 256.364C402.396 250.813 404.987 249.333 411.525 248.901C411.956 255.501 413.437 258.03 418.988 261.607C415.41 267.158 412.82 268.638 406.282 269.07C405.85 262.532 404.308 259.942 398.819 256.364Z" stroke="#02E2AC" stroke-width="1.85034" stroke-miterlimit="10"/>
<path d="M305.871 276.718C312.162 275.731 316.417 271.229 322.709 270.242C322.647 276.965 322.585 280.295 322.462 287.018C316.171 288.005 311.915 292.508 305.624 293.494C305.747 286.771 305.747 283.441 305.871 276.718Z" stroke="#9451EB" stroke-width="1.85034" stroke-miterlimit="10"/>
<path d="M496.271 398.783C489.98 399.77 485.724 404.273 479.433 405.26C479.495 398.537 479.557 395.206 479.68 388.483C485.971 387.496 490.227 382.994 496.518 382.007C496.395 388.73 496.395 392.06 496.271 398.783Z" stroke="#9451EB" stroke-width="1.85034" stroke-miterlimit="10"/>
<path d="M210.838 282.776C204.547 283.763 200.291 288.266 194 289.253C194.062 282.53 194.123 279.199 194.247 272.476C200.538 271.489 204.794 266.987 211.085 266C210.961 272.723 210.961 276.054 210.838 282.776Z" stroke="#9451EB" stroke-width="1.85034" stroke-miterlimit="10"/>
<path d="M298.531 218.124C298.592 222.503 297.729 224.292 294.213 226.944C291.561 223.49 289.773 222.627 285.393 222.627C285.332 218.247 286.195 216.459 289.711 213.807C292.425 217.322 294.152 218.186 298.531 218.124Z" fill="#FFDB5E"/>
<path d="M503.611 457.377C503.549 452.998 504.413 451.209 507.929 448.557C510.581 452.011 512.369 452.875 516.748 452.875C516.81 457.254 515.947 459.043 512.431 461.695C509.717 458.179 507.99 457.316 503.611 457.377Z" fill="#FFDB5E"/>
<path d="M27.1483 242.117C27.2717 248.161 33.4395 251.06 33.5628 257.104C27.5184 257.228 24.4962 257.289 18.3901 257.474C18.2667 251.43 12.0989 248.531 11.9756 242.487C18.02 242.302 21.0422 242.24 27.1483 242.117Z" fill="#9451EB"/>
<path d="M205.743 53.5945C205.62 47.5501 199.452 44.6512 199.329 38.6068C205.373 38.4834 208.395 38.4217 214.501 38.2367C214.625 44.2811 220.792 47.18 220.916 53.2244C214.871 53.4095 211.849 53.4711 205.743 53.5945Z" fill="#9451EB"/>
<path d="M774.994 433.385C774.87 427.34 768.703 424.441 768.579 418.397C774.624 418.274 777.646 418.212 783.752 418.027C783.875 424.071 790.043 426.97 790.167 433.015C784.122 433.2 781.1 433.261 774.994 433.385Z" fill="#9451EB"/>
<path d="M334.526 51.6207C334.033 46.3781 334.835 44.1577 338.72 40.5804C342.298 44.4661 344.518 45.3296 349.761 44.7745C350.254 50.0171 349.452 52.2375 345.567 55.8148C341.989 51.9291 339.769 51.1273 334.526 51.6207Z" fill="#9451EB"/>
<path d="M490.966 172.174C486.895 164.279 486.463 161.565 487.82 152.746C496.578 154.102 499.354 153.671 507.249 149.6C511.319 157.495 511.751 160.209 510.394 169.028C501.574 167.672 498.86 168.103 490.966 172.174Z" fill="#9451EB"/>
<path d="M379.637 186.483C384.633 183.153 385.99 175.135 382.413 170.385C388.889 171.496 392.096 172.051 398.511 173.161C402.088 177.972 400.731 185.99 395.735 189.259C389.321 188.149 386.113 187.594 379.637 186.483Z" fill="#02E2AC"/>
<path d="M212.243 204.185C208.049 202.458 206.692 200.916 205.521 196.537C209.961 195.365 211.442 194.07 213.169 189.814C217.363 191.541 218.72 193.083 219.891 197.462C215.451 198.634 213.97 199.929 212.243 204.185Z" fill="#9451EB"/>
<path d="M20.648 91.5263C24.842 93.2533 26.199 94.7953 27.3709 99.1744C22.93 100.346 21.4498 101.642 19.7228 105.897C15.5287 104.17 14.1718 102.628 12.9999 98.2492C17.4407 97.0773 18.921 95.7821 20.648 91.5263Z" fill="#9451EB"/>
<path d="M589.899 471.317C594.093 473.043 595.45 474.585 596.622 478.965C592.181 480.136 590.7 481.432 588.974 485.687C584.779 483.96 583.423 482.419 582.251 478.039C586.691 476.868 588.172 475.572 589.899 471.317Z" fill="#9451EB"/>
<path d="M102.21 163.169C96.5358 167.117 95.6724 171.989 99.6197 177.663C93.822 176.615 90.9232 176.121 85.1255 175.073C81.1781 169.399 82.0415 164.526 87.7159 160.579C93.5136 161.566 96.4125 162.121 102.21 163.169Z" fill="#02E2AC"/>
<path d="M418.514 428.59C412.84 432.538 411.976 437.41 415.923 443.085C410.126 442.036 407.227 441.543 401.429 440.494C397.482 434.82 398.345 429.947 404.02 426C409.817 426.987 412.716 427.542 418.514 428.59Z" fill="#02E2AC"/>
<path d="M130.681 132.542C136.356 128.595 137.219 123.722 133.272 118.048C139.069 119.096 141.968 119.59 147.766 120.638C151.713 126.313 150.85 131.185 145.175 135.133C139.378 134.146 136.479 133.591 130.681 132.542Z" fill="#02E2AC"/>
<path d="M699.932 512.332C705.606 508.385 706.47 503.512 702.522 497.838C708.32 498.886 711.219 499.38 717.017 500.428C720.964 506.103 720.101 510.975 714.426 514.923C708.628 513.936 705.73 513.381 699.932 512.332Z" fill="#02E2AC"/>
<path d="M256.072 108.796C260.389 105.281 267.729 104.109 272.91 106.082C270.936 111.263 272.108 118.603 275.624 122.92C271.306 126.436 263.967 127.608 258.786 125.634C260.698 120.515 259.526 113.114 256.072 108.796Z" stroke="#FFDB5E" stroke-width="1.85034" stroke-miterlimit="10"/>
<path d="M825.323 488.586C829.64 485.071 836.98 483.899 842.161 485.873C840.187 491.053 841.359 498.393 844.875 502.711C840.557 506.226 833.218 507.398 828.037 505.424C829.949 500.305 828.777 492.904 825.323 488.586Z" stroke="#FFDB5E" stroke-width="1.85034" stroke-miterlimit="10"/>
<path d="M782.245 213.123C797.357 202.68 806.777 190.116 803.283 185.061C799.79 180.006 784.707 184.374 769.595 194.817C754.482 205.26 745.062 217.824 748.555 222.879C752.049 227.934 767.132 223.566 782.245 213.123Z" fill="#FFDB5E"/>
<path d="M812.315 186.574C817.183 193.585 806.463 209.405 788.384 221.921C770.304 234.437 751.704 238.841 746.836 231.83" stroke="#9451EB" stroke-width="2.89731" stroke-miterlimit="10"/>
<path d="M784.715 216.698C802.803 204.199 813.528 188.368 808.671 181.338C803.813 174.309 785.212 178.742 767.124 191.241C749.037 203.74 738.311 219.572 743.169 226.601C748.027 233.631 766.628 229.197 784.715 216.698Z" stroke="#9451EB" stroke-width="2.89731" stroke-miterlimit="10"/>
<path d="M808.665 181.359L815.676 191.441C820.544 198.453 809.824 214.272 791.744 226.789C773.665 239.305 755.065 243.709 750.197 236.697L743.186 226.615" stroke="#9451EB" stroke-width="2.89731" stroke-miterlimit="10"/>
<path d="M788.326 200.887C787.862 201.814 786.993 202.915 785.776 204.247C784.501 205.522 782.879 206.913 780.909 208.362L781.72 209.521L779.17 211.259L778.359 210.1C775.462 212.012 772.97 213.287 770.826 214.04C768.682 214.794 767.349 214.794 766.828 214.04L771.348 210.911C771.753 211.259 772.506 211.259 773.55 210.969C774.593 210.679 775.983 210.042 777.548 209.057L774.998 205.406C772.796 206.681 771 207.666 769.609 208.42C768.218 209.115 766.944 209.636 765.785 209.868C764.626 210.1 763.815 209.926 763.409 209.289C762.887 208.477 763.293 207.261 764.684 205.522C766.074 203.784 768.218 201.872 771.116 199.786L770.305 198.569L772.854 196.83L773.665 198.047C776.389 196.309 778.707 195.092 780.619 194.397C782.589 193.759 783.922 193.701 784.675 194.281L780.155 197.41C779.75 197.178 779.054 197.178 778.069 197.468C777.084 197.757 775.867 198.337 774.477 199.148L776.968 202.741C779.17 201.466 780.967 200.481 782.357 199.786C783.748 199.032 785.081 198.569 786.182 198.337C787.341 198.105 788.094 198.279 788.558 198.916C788.847 199.206 788.789 199.901 788.326 200.887ZM769.783 206.276C770.884 205.928 772.333 205.175 774.187 204.132L771.869 200.771C770.305 201.93 769.088 203.031 768.334 203.958C767.581 204.885 767.349 205.638 767.697 206.102C767.987 206.565 768.74 206.623 769.783 206.276ZM783.69 203.9C784.443 202.915 784.617 202.219 784.328 201.756C783.98 201.292 783.284 201.234 782.183 201.64C781.083 202.045 779.576 202.741 777.78 203.784L780.155 207.261C781.72 205.986 782.937 204.885 783.69 203.9Z" fill="#110F4C"/>
<path d="M721.402 106.447C723.129 102.003 713.696 94.1885 700.333 88.9942C686.969 83.7999 674.735 83.1921 673.008 87.6365C671.28 92.081 680.713 99.8951 694.077 105.089C707.44 110.284 719.675 110.892 721.402 106.447Z" fill="#02E2AC"/>
<path d="M724.393 112.898C721.959 119.098 707.067 119.098 691.074 112.898C675.08 106.697 664.129 96.6148 666.504 90.4146" stroke="#9451EB" stroke-width="2.89731" stroke-miterlimit="10"/>
<path d="M726.155 108.294C728.566 102.09 717.56 92.022 701.572 85.8072C685.582 79.5925 670.666 79.5844 668.254 85.7892C665.843 91.9936 676.849 102.062 692.838 108.276C708.826 114.491 723.743 114.499 726.155 108.294Z" stroke="#9451EB" stroke-width="2.89731" stroke-miterlimit="10"/>
<path d="M726.189 108.262L722.712 117.186C720.278 123.386 705.386 123.386 689.393 117.186C673.4 110.985 662.448 100.903 664.824 94.7025L668.3 85.7788" stroke="#9451EB" stroke-width="2.89731" stroke-miterlimit="10"/>
<path d="M704.633 103.684C703.822 103.8 702.721 103.742 701.33 103.51C699.939 103.278 698.375 102.815 696.52 102.12L696.115 103.163L693.855 102.293L694.261 101.25C691.769 100.207 689.857 99.1642 688.408 98.1212C687.017 97.0782 686.438 96.209 686.67 95.5136L690.668 97.0782C690.61 97.4838 690.958 97.9474 691.595 98.5268C692.232 99.1063 693.275 99.6858 694.608 100.265L695.883 97.0202C694.087 96.151 692.638 95.3977 691.595 94.8183C690.552 94.2388 689.625 93.6014 688.987 92.964C688.292 92.3266 688.06 91.7471 688.292 91.1677C688.582 90.4723 689.567 90.1826 691.305 90.3564C693.044 90.5302 695.246 91.0518 697.853 92.0368L698.259 90.9359L700.519 91.8051L700.113 92.906C702.431 93.8911 704.227 94.8762 705.502 95.8034C706.777 96.7884 707.414 97.5997 707.356 98.353L703.358 96.7884C703.358 96.4408 703.01 95.9772 702.373 95.4557C701.736 94.9342 700.866 94.4126 699.707 93.8332L698.491 96.9623C700.229 97.8315 701.678 98.5268 702.779 99.1642C703.88 99.7437 704.749 100.381 705.386 101.019C706.024 101.656 706.255 102.235 706.024 102.815C705.966 103.278 705.444 103.568 704.633 103.684ZM693.102 94.065C693.797 94.5865 694.898 95.2239 696.405 95.9772L697.563 92.964C696.115 92.4425 694.898 92.1527 693.971 92.0368C693.044 91.921 692.464 92.1527 692.29 92.5584C692.116 93.0799 692.348 93.5435 693.102 94.065ZM700.635 102.004C701.562 102.062 702.141 101.888 702.315 101.482C702.489 101.076 702.199 100.555 701.446 100.033C700.693 99.5119 699.592 98.8166 698.143 98.1212L696.984 101.192C698.491 101.656 699.707 101.946 700.635 102.004Z" fill="#110F4C"/>
<path d="M599.75 200.512C598.939 204.221 602.242 206.944 601.43 210.653C597.722 209.842 595.81 209.436 592.101 208.567C592.912 204.858 589.609 202.135 590.421 198.426C594.187 199.296 596.041 199.701 599.75 200.512Z" fill="#FFDB5E"/>
<path d="M690.146 213.724C684.352 214.593 679.774 221.141 680.991 226.936C675.718 223.285 673.052 221.431 667.779 217.78C666.562 212.044 671.14 205.496 676.934 204.569C682.266 208.219 684.873 210.073 690.146 213.724Z" stroke="#02E2AC" stroke-width="1.73839" stroke-miterlimit="10"/>
<path d="M520.711 242.35C522.044 237.83 518.162 234.237 519.437 229.659C523.956 230.992 526.274 231.63 530.794 232.962C529.461 237.482 533.344 241.075 532.069 245.653C527.549 244.32 525.289 243.682 520.711 242.35Z" fill="#02E2AC"/>
<path d="M861.286 124.661C867.197 123.734 871.195 119.504 877.106 118.576C877.048 124.893 876.99 128.022 876.874 134.338C870.963 135.265 866.965 139.495 861.055 140.422C861.17 134.106 861.17 130.977 861.286 124.661Z" stroke="#9451EB" stroke-width="1.73839" stroke-miterlimit="10"/>
<path d="M565.335 522.199C565.969 516.25 562.918 511.293 563.552 505.344C569.638 507.034 572.645 507.9 578.716 509.647C578.082 515.596 581.133 520.553 580.499 526.502C574.428 524.755 571.406 523.945 565.335 522.199Z" stroke="#9451EB" stroke-width="1.73839" stroke-miterlimit="10"/>
<path d="M864.391 69.6118C864.448 73.726 863.637 75.4064 860.334 77.8981C857.843 74.6531 856.162 73.8419 852.048 73.8419C851.99 69.7277 852.801 68.0472 856.104 65.5555C858.654 68.8585 860.276 69.6697 864.391 69.6118Z" fill="#FFDB5E"/>
<path d="M609.427 92.1528C609.543 97.8316 615.338 100.555 615.454 106.234C609.775 106.35 606.936 106.408 601.199 106.581C601.083 100.903 595.288 98.1792 595.172 92.5005C600.851 92.3267 603.691 92.2687 609.427 92.1528Z" fill="#9451EB"/>
<path d="M488.435 94.0072C488.899 98.9327 488.146 101.019 484.495 104.38C481.134 100.729 479.048 99.9178 474.123 100.439C473.659 95.5138 474.412 93.4278 478.063 90.0669C481.424 93.7175 483.51 94.4708 488.435 94.0072Z" fill="#9451EB"/>
<path d="M783.324 56.5159C779.383 54.8934 778.109 53.4447 777.008 49.3305C781.18 48.2296 782.57 47.0127 784.193 43.0144C788.133 44.6369 789.408 46.0856 790.509 50.1997C786.337 51.3007 784.946 52.5176 783.324 56.5159Z" fill="#9451EB"/>
<path d="M679.948 17.9817C674.617 21.6903 673.805 26.268 677.514 31.5991C672.067 30.614 669.344 30.1504 663.897 29.1653C660.188 23.8343 660.999 19.2565 666.33 15.548C671.777 16.4751 674.501 16.9966 679.948 17.9817Z" fill="#02E2AC"/>
<path d="M562.143 40.2909C558.087 43.5939 551.191 44.6948 546.324 42.8406C548.178 37.9731 547.077 31.0775 543.774 27.0212C547.83 23.7183 554.726 22.6173 559.593 24.4716C557.797 29.2811 558.898 36.2347 562.143 40.2909Z" stroke="#FFDB5E" stroke-width="1.73839" stroke-miterlimit="10"/>
</g>
<defs>
<clipPath id="clip0">
<rect width="887" height="559" fill="white"/>
</clipPath>
</defs>
</svg>
