<svg width="990" height="1522" viewBox="0 0 990 1522" fill="none" xmlns="http://www.w3.org/2000/svg">
<g clip-path="url(#clip0)">
<g filter="url(#filter0_df)">
<path d="M694 1176C866 1176 955.667 1407 979 1522.5H-13C-13 1278.9 203.333 1177 311.5 1156.5C302.167 1155.5 275.1 1125.6 241.5 1014C199.5 874.5 283.5 689.5 266.5 634C249.5 578.5 247 430 283.5 377C320 324 278 206.5 283.5 159C289 111.5 319.5 89 356 89C392.5 89 423 97.5 426 159C429 220.5 484 265 498 335C512 405 470.5 491.5 484.5 497C498.5 502.5 557.5 483 574 460.5C590.5 438 632.5 421.5 711 430C789.5 438.5 829 656 853.5 759.5C876 863 722 977.5 694 1014C671.6 1043.2 684.667 1134.17 694 1176Z" fill="#110F4C"/>
</g>
<path d="M522.9 611C529.5 616.7 533.9 624.2 536.4 631.9C537.7 635.8 538.5 639.7 538.9 643.7C539.3 647.7 539.3 651.7 539 655.5C538.4 663.3 536.5 670.7 534.2 677.7C533 681.2 531.7 684.6 530.4 687.9C529 691.2 527.6 694.5 526.2 697.7C520.4 710.7 514.1 723.3 507.1 735.7C503.6 741.9 499.9 748 495.9 753.9C491.9 759.9 487.6 765.7 482.5 771.2L482.4 771.3C480 773.9 475.9 774.1 473.3 771.6C471.8 770.2 471.1 768.2 471.3 766.3C472.5 751.9 474.1 737.6 475.6 723.4C477.1 709.2 478.4 695 479.3 680.8C479.7 673.7 480 666.7 480.1 659.6C480.1 652.5 480.1 645.6 478 640.4C477.5 639.1 476.8 637.9 476 636.9C475.2 635.8 474.2 634.8 473.1 633.8C470.8 631.8 468 630.1 465 628.3C463.5 627.4 461.9 626.5 460.3 625.5C458.7 624.6 457.2 623.6 455.6 622.6C452.5 620.7 449.5 618.6 446.5 616.5C434.5 608.1 423.4 598.3 413.7 587.3C408.8 581.8 404.3 576 400.2 569.9C399.2 568.4 398.1 566.8 397.2 565.3C396.2 563.7 395.3 562.2 394.4 560.6C393.5 559 392.7 557.3 391.8 555.7L390.5 553.2L389.3 550.7C387.7 547.4 386.4 543.9 385 540.5L383.2 535.3C382.6 533.6 382.2 531.8 381.7 530C379.8 522.9 378.4 515.6 377.7 508.3C376.3 493.6 377.2 478.8 380.6 464.5C381.4 460.9 382.4 457.4 383.4 453.9C384.5 450.5 385.5 447.1 386.5 443.7C388.5 436.9 390.4 430 392.1 423.1C395.6 409.3 398.6 395.3 400.9 381.3C403.1 367.2 404.7 353.1 404.7 338.9C404.6 324.8 403.2 310.5 397.5 297.5C392.2 284.1 387.5 270.5 383.5 256.7C379.5 242.9 376.2 228.9 374 214.7C371.9 200.5 370.7 186.1 372.1 171.7C372.8 164.6 374.1 157.4 376.5 150.6C378.9 143.8 382.3 137.4 387.1 132C382.4 137.5 379.1 143.9 376.9 150.7C374.6 157.5 373.5 164.6 372.9 171.7C371.9 186 373.2 200.3 375.6 214.4C378 228.5 381.6 242.4 385.8 256C390 269.6 394.9 283.1 400.4 296.3C401.8 299.5 403.3 303 404.2 306.5C405.3 310 406 313.6 406.7 317.2C408 324.4 408.5 331.6 408.6 338.9C408.9 353.4 407.6 367.8 405.6 382.1C403.6 396.4 400.8 410.5 397.5 424.5C395.9 431.5 394.1 438.5 392.2 445.4C391.2 448.9 390.3 452.3 389.3 455.8C388.4 459.2 387.4 462.6 386.8 466C383.8 479.7 383.3 493.8 384.8 507.6C385.6 514.5 387 521.4 389 528C389.5 529.7 390 531.3 390.5 533L392.3 537.9C393.6 541.1 394.9 544.3 396.5 547.4L397.6 549.7L398.8 552C399.7 553.5 400.4 555.1 401.3 556.5C402.2 558 403.1 559.5 404.1 560.9C405 562.4 406 563.8 407 565.2C411 570.9 415.4 576.3 420.1 581.5C429.5 591.8 440.3 600.9 451.9 608.7C454.8 610.7 457.7 612.6 460.7 614.4C462.2 615.3 463.7 616.2 465.2 617.1C466.7 618 468.2 618.8 469.8 619.7C473 621.5 476.4 623.4 479.6 626.1C481.2 627.4 482.7 629 484.1 630.7C485.5 632.5 486.6 634.5 487.5 636.5C489.2 640.5 489.9 644.6 490.3 648.5C490.7 652.4 490.7 656 490.8 659.7C490.9 667 490.7 674.3 490.4 681.5C489.1 710.4 485.9 739 484 767.4L472.8 762.6C477.1 757.8 481 752.3 484.7 746.7C488.4 741 491.8 735.1 495.1 729.1C501.6 717.1 507.6 704.7 512.9 692C514.2 688.8 515.5 685.7 516.7 682.5C517.9 679.3 519.1 676.2 520 673.1C522 666.8 523.4 660.6 523.7 654.4C523.9 651.3 523.8 648.3 523.5 645.4C523.1 642.5 522.5 639.6 521.5 636.8C519.6 631.3 516.5 626.5 512.4 623.1C509 620.3 508.6 615.2 511.4 611.8C514.2 608.4 519.3 608 522.7 610.8C522.8 611 522.9 611 522.9 611Z" fill="#EBBB51"/>
<path d="M416.2 284.7C413.3 292.3 406.1 297.1 402.2 299.3C400.8 300.1 399 299.4 398.5 297.9C397 293.7 394.7 285.4 397.6 277.7C400.5 270.1 407.7 265.3 411.6 263.1C413 262.3 414.8 263 415.3 264.5C416.8 268.7 419.1 277.1 416.2 284.7ZM377.3 299C384.5 302.8 393.1 301.7 397.4 300.7C399 300.3 399.9 298.7 399.3 297.2C397.7 293.1 393.8 285.3 386.6 281.5C379.4 277.7 370.8 278.8 366.5 279.8C364.9 280.2 364 281.8 364.6 283.3C366.3 287.4 370.1 295.2 377.3 299ZM401.3 234.7C400.8 233.4 399.3 232.8 398.1 233.5C394.7 235.3 388.5 239.5 386.1 246.1C383.6 252.7 385.6 259.9 386.9 263.5C387.4 264.8 388.9 265.4 390.1 264.7C393.5 262.9 399.7 258.7 402.1 252.1C404.5 245.5 402.6 238.3 401.3 234.7ZM368.5 264.4C374.7 267.7 382.1 266.7 385.8 265.9C387.2 265.6 387.9 264.2 387.4 262.9C386 259.3 382.7 252.6 376.5 249.4C370.3 246.1 362.9 247.1 359.2 247.9C357.8 248.2 357.1 249.6 357.6 250.9C359 254.4 362.3 261.1 368.5 264.4ZM390.9 203.7C390.6 202.6 389.3 202 388.3 202.5C385.4 203.9 380 207.1 377.6 212.5C375.2 217.9 376.5 224 377.4 227.1C377.7 228.2 379 228.8 380 228.3C382.9 226.9 388.3 223.7 390.7 218.3C393.1 213 391.9 206.8 390.9 203.7ZM362.1 227.1C367.1 230.2 373.4 229.7 376.6 229.2C377.8 229 378.5 227.8 378.1 226.7C377.1 223.6 374.6 217.9 369.6 214.8C364.6 211.7 358.3 212.2 355.1 212.7C353.9 212.9 353.2 214.1 353.6 215.2C354.6 218.3 357 224 362.1 227.1ZM387.4 179.4C387.3 178.4 386.3 177.8 385.4 178.1C382.8 178.8 378 180.7 375.3 184.8C372.6 188.9 372.8 194.1 373.2 196.7C373.3 197.7 374.3 198.3 375.2 198C377.8 197.3 382.6 195.4 385.3 191.3C387.9 187.2 387.7 182 387.4 179.4ZM359.6 194.5C363.3 197.7 368.5 198.2 371.1 198.2C372.1 198.2 372.8 197.3 372.7 196.4C372.3 193.8 371.1 188.7 367.4 185.5C363.7 182.3 358.5 181.8 355.9 181.8C354.9 181.8 354.2 182.7 354.3 183.6C354.7 186.2 355.9 191.3 359.6 194.5ZM387.9 155.3C388 154.5 387.3 153.8 386.5 153.9C384.3 154.1 380 154.8 377.1 157.6C374.2 160.5 373.5 164.7 373.3 167C373.2 167.8 373.9 168.5 374.7 168.4C376.9 168.2 381.2 167.5 384.1 164.7C387 161.8 387.7 157.5 387.9 155.3ZM363.5 163.1C366 166.3 370.1 167.6 372.3 168C373.1 168.2 373.8 167.6 373.9 166.8C374 164.6 373.9 160.3 371.4 157C368.9 153.8 364.8 152.5 362.6 152.1C361.8 151.9 361.1 152.5 361 153.3C360.9 155.6 361 159.9 363.5 163.1ZM434.5 305C434.2 303.2 432.5 302.1 430.8 302.7C426.1 304.2 417.3 307.8 412.6 315.4C407.9 323 408.5 332.5 409.2 337.4C409.5 339.2 411.2 340.3 412.9 339.7C417.6 338.2 426.4 334.6 431.1 327C435.9 319.3 435.3 309.8 434.5 305ZM380 333.9C386.9 339.6 396.4 340.2 401.3 340.1C403.1 340.1 404.4 338.5 404.1 336.7C403.2 331.9 400.8 322.7 393.9 317C387 311.3 377.5 310.7 372.6 310.8C370.8 310.8 369.5 312.4 369.8 314.2C370.6 319 373.1 328.2 380 333.9ZM442 355.7C442.2 353.7 440.5 351.9 438.4 352.1C432.7 352.5 421.9 354.2 414.5 361.5C407.1 368.8 405.3 379.6 404.8 385.3C404.6 387.3 406.3 389.1 408.4 388.9C414.1 388.5 424.9 386.8 432.3 379.5C439.7 372.2 441.6 361.3 442 355.7ZM373.8 375.2C380.1 383.4 390.6 386.7 396.1 387.9C398.1 388.3 400 386.9 400.1 384.8C400.4 379.1 400.1 368.1 393.9 359.9C387.6 351.7 377.1 348.4 371.6 347.2C369.6 346.8 367.7 348.2 367.6 350.3C367.2 355.9 367.5 366.9 373.8 375.2ZM441.9 417.5C442.5 415.1 440.9 412.6 438.4 412.4C431.5 411.7 418.1 411.4 407.6 418.6C397.1 425.8 392.6 438.4 390.8 445.1C390.2 447.5 391.8 450 394.3 450.2C401.2 450.9 414.6 451.2 425.1 444C435.5 436.8 440.1 424.2 441.9 417.5ZM359.3 427.6C365.1 438.9 377 445 383.4 447.7C385.7 448.7 388.3 447.3 388.9 444.9C390.5 438.2 392.5 424.9 386.8 413.6C381 402.3 369.1 396.2 362.7 393.5C360.4 392.5 357.8 393.9 357.2 396.3C355.6 403 353.6 416.3 359.3 427.6ZM430.6 471.1C430.8 468.3 428.4 466 425.6 466.2C417.9 466.9 403.1 469.5 393.2 479.7C383.3 489.9 381.1 504.7 380.6 512.5C380.4 515.3 382.8 517.6 385.6 517.4C393.3 516.7 408.1 514.1 418 503.9C427.9 493.7 430.1 478.9 430.6 471.1ZM343 499.5C351.8 510.6 366.3 514.8 373.9 516.3C376.7 516.8 379.2 514.8 379.4 512C379.7 504.3 379 489.2 370.2 478.1C361.4 467 346.9 462.8 339.3 461.3C336.5 460.8 334 462.8 333.8 465.6C333.5 473.4 334.2 488.4 343 499.5ZM440.7 515.8C439.6 512.9 436.1 511.6 433.3 513.2C425.8 517.5 411.9 527.2 406.7 542.2C401.4 557.2 406.2 573.4 409.3 581.5C410.4 584.4 413.9 585.7 416.7 584.1C424.2 579.8 438.1 570.1 443.3 555.1C448.6 540.1 443.9 523.9 440.7 515.8ZM368.9 592.5C384.3 596.4 400 590.3 407.8 586.4C410.6 585 411.5 581.4 409.7 578.8C404.7 571.7 393.8 558.8 378.4 554.9C363 551 347.3 557.1 339.5 561C336.7 562.4 335.8 566 337.6 568.6C342.7 575.7 353.6 588.6 368.9 592.5Z" fill="#02E2AC"/>
<path d="M407.3 549.2C412.6 534.2 426.4 524.5 433.9 520.2C436.6 518.6 440.1 519.8 441.3 522.8C442.6 526.1 444.2 530.8 445.2 536.3C444.7 527.6 442.2 519.7 440.3 514.8C439.2 511.9 435.7 510.6 432.9 512.2C425.4 516.5 411.5 526.2 406.3 541.2C403.2 550 403.6 559.3 405 567C404.7 561.3 405.3 555.2 407.3 549.2Z" fill="#05AA7B"/>
<path d="M393.443 486.45L393.44 486.453C385.523 494.66 382.407 505.784 381.26 513.946C380.861 513.258 380.639 512.436 380.699 511.533V511.532C381.198 503.754 383.391 489.014 393.157 479.05L393.159 479.048C402.925 468.986 417.563 466.397 425.24 465.698C427.748 465.522 429.878 467.583 429.701 470.063C429.687 470.246 429.673 470.432 429.659 470.622C429.589 471.548 429.514 472.552 429.4 473.609C428.47 473.043 427.389 472.714 426.164 472.801L426.155 472.802C418.428 473.505 403.473 476.217 393.443 486.45Z" stroke="#05AA7B"/>
<path d="M340.2 568C348 564.1 363.7 558 379.1 561.9C392.3 565.3 402.2 575.2 407.9 582.5C407.1 579.7 406.3 576.5 405.7 573C399.9 565.9 390.4 557 378.1 553.9C362.7 550 347 556.1 339.2 560C336.4 561.4 335.5 565 337.3 567.6C337.7 568.1 338.1 568.7 338.6 569.3C339 568.8 339.5 568.3 340.2 568Z" fill="#05AA7B"/>
<path d="M334.4 472.6C334.5 469.8 337.1 467.8 339.9 468.3C347.5 469.8 362 474 370.8 485.1C375.3 490.8 377.7 497.6 378.9 503.9C378.4 495.9 376.4 485.4 369.8 477.1C361 466 346.5 461.8 338.9 460.3C336.1 459.8 333.6 461.8 333.4 464.6C333.2 468.3 333.3 473.8 334.5 479.7C334.3 477 334.4 474.6 334.4 472.6Z" fill="#05AA7B"/>
<path d="M861.4 1520.8C827.4 1349.6 676.4 1220.5 495.2 1220.5C314 1220.5 163 1349.6 129 1520.8" fill="#EBBB51"/>
<path d="M536.3 1511.7C536.3 1510.6 537.2 1509.7 538.3 1509.7H591.7C592.8 1509.7 593.7 1510.6 593.7 1511.7C593.7 1512.8 592.8 1513.7 591.7 1513.7H538.3C537.2 1513.7 536.3 1512.8 536.3 1511.7ZM597.4 1519.9C597.4 1518.8 596.5 1517.9 595.4 1517.9H534.6C533.5 1517.9 532.6 1518.8 532.6 1519.9C532.6 1520.6 532.9 1521.2 533.5 1521.6H596.4C597.1 1521.2 597.4 1520.6 597.4 1519.9ZM497.9 1496.9V1220.3C496.8 1220.3 495.6 1220.3 494.5 1220.3H493.9V1496.9C493.9 1498 494.8 1498.9 495.9 1498.9C497 1498.9 497.9 1498 497.9 1496.9ZM514.1 1496.9V1220.8C512.8 1220.7 511.4 1220.7 510.1 1220.6V1496.9C510.1 1498 511 1498.9 512.1 1498.9C513.2 1498.9 514.1 1498 514.1 1496.9ZM506 1496.9V1220.5C504.7 1220.5 503.3 1220.4 502 1220.4V1496.9C502 1498 502.9 1498.9 504 1498.9C505.1 1498.9 506 1498 506 1496.9ZM542.5 1505.9H587.5C588.6 1505.9 589.5 1505 589.5 1503.9C589.5 1502.8 588.6 1501.9 587.5 1501.9H542.5C541.4 1501.9 540.5 1502.8 540.5 1503.9C540.5 1505 541.4 1505.9 542.5 1505.9ZM567.5 1496.9V1227.5C566.2 1227.2 564.8 1227 563.5 1226.7V1496.9C563.5 1498 564.4 1498.9 565.5 1498.9C566.6 1498.9 567.5 1498 567.5 1496.9ZM575.6 1496.9V1229.2C574.3 1228.9 572.9 1228.6 571.6 1228.3V1496.9C571.6 1498 572.5 1498.9 573.6 1498.9C574.7 1498.9 575.6 1498 575.6 1496.9ZM551.3 1496.9V1224.6C550 1224.4 548.6 1224.2 547.3 1224V1496.9C547.3 1498 548.2 1498.9 549.3 1498.9C550.4 1498.9 551.3 1498 551.3 1496.9ZM583.7 1496.9V1231.1C582.4 1230.8 581 1230.4 579.7 1230.1V1496.9C579.7 1498 580.6 1498.9 581.7 1498.9C582.8 1498.9 583.7 1498 583.7 1496.9ZM559.4 1496.9V1225.9C558.1 1225.7 556.7 1225.4 555.4 1225.2V1496.8C555.4 1497.9 556.3 1498.8 557.4 1498.8C558.5 1498.8 559.4 1498 559.4 1496.9ZM489.8 1496.9V1220.3C488.5 1220.3 487.1 1220.3 485.8 1220.4V1496.9C485.8 1498 486.7 1498.9 487.8 1498.9C488.9 1498.9 489.8 1498 489.8 1496.9ZM424.3 1496.9C424.3 1498 425.2 1498.9 426.3 1498.9C427.4 1498.9 428.3 1498 428.3 1496.9V1226.2C427 1226.4 425.6 1226.7 424.3 1226.9V1496.9ZM408.1 1496.9C408.1 1498 409 1498.9 410.1 1498.9C411.2 1498.9 412.1 1498 412.1 1496.9V1229.4C410.8 1229.7 409.4 1230 408.1 1230.3V1496.9ZM481.7 1496.9V1220.5C480.4 1220.5 479 1220.6 477.7 1220.7V1496.9C477.7 1498 478.6 1498.9 479.7 1498.9C480.8 1498.9 481.7 1498 481.7 1496.9ZM448.3 1501.9H403.3C402.2 1501.9 401.3 1502.8 401.3 1503.9C401.3 1505 402.2 1505.9 403.3 1505.9H448.3C449.4 1505.9 450.3 1505 450.3 1503.9C450.3 1502.8 449.4 1501.9 448.3 1501.9ZM440.5 1496.9C440.5 1498 441.4 1498.9 442.5 1498.9C443.6 1498.9 444.5 1498 444.5 1496.9V1223.6C443.2 1223.8 441.8 1224 440.5 1224.2V1496.9ZM432.4 1496.9C432.4 1498 433.3 1498.9 434.4 1498.9C435.5 1498.9 436.4 1498 436.4 1496.9V1224.8C435.1 1225 433.7 1225.2 432.4 1225.5V1496.9ZM416.2 1496.9C416.2 1498 417.1 1498.9 418.2 1498.9C419.3 1498.9 420.2 1498 420.2 1496.9V1227.7C418.9 1228 417.5 1228.2 416.2 1228.5V1496.9ZM522.1 1509.7H468.7C467.6 1509.7 466.7 1510.6 466.7 1511.7C466.7 1512.8 467.6 1513.7 468.7 1513.7H522.1C523.2 1513.7 524.1 1512.8 524.1 1511.7C524.1 1510.6 523.2 1509.7 522.1 1509.7ZM452.5 1509.7H399.1C398 1509.7 397.1 1510.6 397.1 1511.7C397.1 1512.8 398 1513.7 399.1 1513.7H452.5C453.6 1513.7 454.5 1512.8 454.5 1511.7C454.5 1510.6 453.6 1509.7 452.5 1509.7ZM527.8 1519.9C527.8 1518.8 526.9 1517.9 525.8 1517.9H465C463.9 1517.9 463 1518.8 463 1519.9C463 1520.6 463.3 1521.2 463.9 1521.6H526.8C527.4 1521.2 527.8 1520.6 527.8 1519.9ZM458.2 1519.9C458.2 1518.8 457.3 1517.9 456.2 1517.9H395.4C394.3 1517.9 393.4 1518.8 393.4 1519.9C393.4 1520.6 393.7 1521.2 394.3 1521.6H457.2C457.8 1521.2 458.2 1520.6 458.2 1519.9ZM472.9 1505.9H517.9C519 1505.9 519.9 1505 519.9 1503.9C519.9 1502.8 519 1501.9 517.9 1501.9H472.9C471.8 1501.9 470.9 1502.8 470.9 1503.9C470.9 1505 471.8 1505.9 472.9 1505.9Z" fill="#110F4C"/>
<path d="M465 1103.5H525.8C526.9 1103.5 527.8 1102.6 527.8 1101.5C527.8 1100.4 526.9 1099.5 525.8 1099.5H465C463.9 1099.5 463 1100.4 463 1101.5C463 1102.6 463.9 1103.5 465 1103.5Z" fill="#9451EB"/>
<path d="M456.2 1099.5H395.4C394.3 1099.5 393.4 1100.4 393.4 1101.5C393.4 1102.6 394.3 1103.5 395.4 1103.5H456.2C457.3 1103.5 458.2 1102.6 458.2 1101.5C458.2 1100.4 457.3 1099.5 456.2 1099.5Z" fill="#9451EB"/>
<path d="M493.9 1220.6H494.5C495.6 1220.6 496.8 1220.6 497.9 1220.6V1124.9C497.9 1123.8 497 1122.9 495.9 1122.9C494.8 1122.9 493.9 1123.8 493.9 1124.9V1220.6Z" fill="#9451EB"/>
<path d="M510.1 1221C511.4 1221.1 512.8 1221.1 514.1 1221.2V1125C514.1 1123.9 513.2 1123 512.1 1123C511 1123 510.1 1123.9 510.1 1125V1221Z" fill="#9451EB"/>
<path d="M502 1220.7C503.3 1220.7 504.7 1220.8 506 1220.8V1124.9C506 1123.8 505.1 1122.9 504 1122.9C502.9 1122.9 502 1123.8 502 1124.9V1220.7Z" fill="#9451EB"/>
<path d="M399.1 1111.8H452.5C453.6 1111.8 454.5 1110.9 454.5 1109.8C454.5 1108.7 453.6 1107.8 452.5 1107.8H399.1C398 1107.8 397.1 1108.7 397.1 1109.8C397.1 1110.9 398 1111.8 399.1 1111.8Z" fill="#9451EB"/>
<path d="M432.4 1225.8C433.7 1225.6 435.1 1225.4 436.4 1225.1V1124.9C436.4 1123.8 435.5 1122.9 434.4 1122.9C433.3 1122.9 432.4 1123.8 432.4 1124.9V1225.8Z" fill="#9451EB"/>
<path d="M428.3 1226.5V1125C428.3 1123.9 427.4 1123 426.3 1123C425.2 1123 424.3 1123.9 424.3 1125V1227.3C425.6 1227 426.9 1226.7 428.3 1226.5Z" fill="#9451EB"/>
<path d="M440.5 1224.5C441.8 1224.3 443.2 1224.1 444.5 1223.9V1124.9C444.5 1123.8 443.6 1122.9 442.5 1122.9C441.4 1122.9 440.5 1123.8 440.5 1124.9V1224.5Z" fill="#9451EB"/>
<path d="M412.1 1229.7V1124.9C412.1 1123.8 411.2 1122.9 410.1 1122.9C409 1122.9 408.1 1123.8 408.1 1124.9V1230.6C409.4 1230.3 410.8 1230 412.1 1229.7Z" fill="#9451EB"/>
<path d="M420.2 1228V1124.9C420.2 1123.8 419.3 1122.9 418.2 1122.9C417.1 1122.9 416.2 1123.8 416.2 1124.9V1228.8C417.5 1228.6 418.9 1228.3 420.2 1228Z" fill="#9451EB"/>
<path d="M401.3 1117.5C401.3 1118.6 402.2 1119.5 403.3 1119.5H448.3C449.4 1119.5 450.3 1118.6 450.3 1117.5C450.3 1116.4 449.4 1115.5 448.3 1115.5H403.3C402.2 1115.5 401.3 1116.4 401.3 1117.5Z" fill="#9451EB"/>
<path d="M470.9 1117.5C470.9 1118.6 471.8 1119.5 472.9 1119.5H517.9C519 1119.5 519.9 1118.6 519.9 1117.5C519.9 1116.4 519 1115.5 517.9 1115.5H472.9C471.8 1115.5 470.9 1116.4 470.9 1117.5Z" fill="#9451EB"/>
<path d="M555.4 1225.6C556.7 1225.8 558.1 1226 559.4 1226.3V1125C559.4 1123.9 558.5 1123 557.4 1123C556.3 1123 555.4 1123.9 555.4 1125V1225.6Z" fill="#9451EB"/>
<path d="M547.3 1224.3C548.6 1224.5 550 1224.7 551.3 1224.9V1124.9C551.3 1123.8 550.4 1122.9 549.3 1122.9C548.2 1122.9 547.3 1123.8 547.3 1124.9V1224.3Z" fill="#9451EB"/>
<path d="M538.3 1111.8H591.7C592.8 1111.8 593.7 1110.9 593.7 1109.8C593.7 1108.7 592.8 1107.8 591.7 1107.8H538.3C537.2 1107.8 536.3 1108.7 536.3 1109.8C536.3 1110.9 537.2 1111.8 538.3 1111.8Z" fill="#9451EB"/>
<path d="M540.5 1117.5C540.5 1118.6 541.4 1119.5 542.5 1119.5H587.5C588.6 1119.5 589.5 1118.6 589.5 1117.5C589.5 1116.4 588.6 1115.5 587.5 1115.5H542.5C541.4 1115.5 540.5 1116.4 540.5 1117.5Z" fill="#9451EB"/>
<path d="M563.5 1227C564.8 1227.2 566.2 1227.5 567.5 1227.8V1125C567.5 1123.9 566.6 1123 565.5 1123C564.4 1123 563.5 1123.9 563.5 1125V1227Z" fill="#9451EB"/>
<path d="M534.6 1103.5H595.4C596.5 1103.5 597.4 1102.6 597.4 1101.5C597.4 1100.4 596.5 1099.5 595.4 1099.5H534.6C533.5 1099.5 532.6 1100.4 532.6 1101.5C532.6 1102.6 533.5 1103.5 534.6 1103.5Z" fill="#9451EB"/>
<path d="M468.7 1111.8H522.1C523.2 1111.8 524.1 1110.9 524.1 1109.8C524.1 1108.7 523.2 1107.8 522.1 1107.8H468.7C467.6 1107.8 466.7 1108.7 466.7 1109.8C466.7 1110.9 467.6 1111.8 468.7 1111.8Z" fill="#9451EB"/>
<path d="M481.7 1220.9V1125C481.7 1123.9 480.8 1123 479.7 1123C478.6 1123 477.7 1123.9 477.7 1125V1221.1C479.1 1221 480.4 1220.9 481.7 1220.9Z" fill="#9451EB"/>
<path d="M583.7 1231.4V1125C583.7 1123.9 582.8 1123 581.7 1123C580.6 1123 579.7 1123.9 579.7 1125V1230.4C581 1230.7 582.4 1231 583.7 1231.4Z" fill="#9451EB"/>
<path d="M489.8 1220.7V1125C489.8 1123.9 488.9 1123 487.8 1123C486.7 1123 485.8 1123.9 485.8 1125V1220.8C487.1 1220.7 488.5 1220.7 489.8 1220.7Z" fill="#9451EB"/>
<path d="M571.6 1228.6C572.9 1228.9 574.3 1229.2 575.6 1229.5V1125C575.6 1123.9 574.7 1123 573.6 1123C572.5 1123 571.6 1123.9 571.6 1125V1228.6Z" fill="#9451EB"/>
<path d="M713.8 590.4C702.8 592.3 703.7 609.8 704.9 620.9C707.3 643.3 713.6 665.4 713.1 688C712.4 718.4 694.4 735.7 675.4 759.4C673.7 761.6 671.9 763.8 670.1 766.1C668.7 767.9 665.8 766.3 666.7 764.1C692.7 698.1 702.3 635.8 699.4 565.6C698.2 536.5 698.8 527.6 688.7 500.3C686.8 495.2 680.4 489 673.2 492.8C667.8 495.6 664.8 500.8 664 506.9C658.2 547.8 653.9 588.2 647.8 629C644 654.2 624.6 695.5 604.3 732.9C603.2 734.9 600.2 733.8 600.6 731.6C611.7 668.2 616.2 599.5 597.9 577.7C577.5 553.5 541.5 551.3 510.3 557C487.5 561.1 462.2 566.9 449.2 586.1C446.1 590.7 443.9 597 446.9 601.6C450.3 606.9 458 607 464.2 605.8C480.1 602.8 527.2 586.6 544.7 607.5C571.8 639.8 526.5 774.3 474.3 789.6C467 791.7 459.6 786.3 459.2 778.7C458.2 759.3 462.4 738.7 466.1 719.4C472.1 688.1 474.9 651.7 453.3 628.2C447.5 621.9 439.7 616.8 431.1 616.8C422.5 616.8 413.7 623.5 413.6 632.1C413.6 635.7 414.9 639.1 416 642.5C427.1 678.3 404.4 714.6 387.7 748.1C365.7 792.1 352.7 840.9 353.4 890C353.7 911.8 360.2 962.7 376.9 999.9C377.2 1000.6 377.5 1001.4 377.5 1002.2C379.9 1025.4 387 1053.6 395.2 1083.7C395.7 1085.4 397.3 1086.7 399.1 1086.7H590.4C592.8 1086.7 594.7 1084.5 594.4 1082.1C592.3 1067 590.8 1052.6 590.1 1038.8C590 1037.5 590 1035.9 590 1034.3C590 999.7 602 966.2 623.7 939.3C633.7 926.9 673.6 885.4 687.3 874.1C693.3 869.2 699.6 864.2 703.7 857.6C708 850.8 709.7 842.8 711.1 835L711.2 834.7C714.5 815.8 721.6 797.7 732.1 781.6C737.9 772.7 743.2 763.4 747.8 753.8C769.9 707.1 743.9 585.1 713.8 590.4Z" fill="#110F4C" stroke="#9451EB" stroke-width="4" stroke-miterlimit="10"/>
<path d="M682.9 1328.4C676.8 1322.1 670.5 1321.9 664.1 1328.1C664.2 1320.6 664.3 1316.8 664.4 1309.3C670.7 1303.2 677.1 1303.3 683.2 1309.6C683.1 1317.2 683.1 1320.9 682.9 1328.4Z" stroke="#110F4C" stroke-width="3" stroke-miterlimit="10"/>
<path d="M368.4 1360.2C355.9 1360.5 346.5 1369.3 333.9 1369.6C335.2 1358.6 336.4 1347.6 337.7 1336.7C350.2 1336.4 359.6 1327.6 372.2 1327.3C370.9 1338.3 369.7 1349.3 368.4 1360.2Z" fill="#110F4C"/>
<path d="M635 1401.2C628.8 1391.5 628.2 1386.4 632.2 1375.7C643 1379.7 648.1 1379.1 657.7 1372.9C663.9 1382.6 664.5 1387.7 660.5 1398.4C649.8 1394.4 644.7 1395 635 1401.2Z" fill="#110F4C"/>
<path d="M255.5 1460C258.3 1451.6 251.2 1444.5 254 1436.1C262.4 1438.9 266.7 1440.3 275.1 1443.1C272.3 1451.5 279.4 1458.6 276.6 1467C268.2 1464.2 263.9 1462.8 255.5 1460Z" stroke="#110F4C" stroke-width="3" stroke-miterlimit="10"/>
<path d="M353.5 891.1C352.8 842 365.8 793.1 387.8 749.2C404.5 715.7 427.2 679.4 416.1 643.6C415 640.2 413.7 636.8 413.7 633.2C413.8 624.6 422.6 618 431.2 617.9C439.8 617.9 447.6 623 453.4 629.3C474.9 652.8 472.1 689.2 466.2 720.5C460.2 751.8 452.9 786.2 468.4 814C476.4 828.4 489.9 839.3 497.3 854.1C503.7 866.8 505.1 881.4 504.8 895.7C504.4 925.1 497.2 954.2 484.4 980.7C474.3 1001.6 453.9 1041.7 427.5 1044C372.5 1048.6 354 928 353.5 891.1Z" stroke="#9451EB" stroke-width="4" stroke-miterlimit="10"/>
</g>
<defs>
<filter id="filter0_df" x="-107" y="-5" width="1180" height="1621.5" filterUnits="userSpaceOnUse" color-interpolation-filters="sRGB">
<feFlood flood-opacity="0" result="BackgroundImageFix"/>
<feColorMatrix in="SourceAlpha" type="matrix" values="0 0 0 0 0 0 0 0 0 0 0 0 0 0 0 0 0 0 127 0"/>
<feOffset dy="4"/>
<feGaussianBlur stdDeviation="32"/>
<feColorMatrix type="matrix" values="0 0 0 0 0.0666667 0 0 0 0 0.0588235 0 0 0 0 0.298039 0 0 0 1 0"/>
<feBlend mode="normal" in2="BackgroundImageFix" result="effect1_dropShadow"/>
<feBlend mode="normal" in="SourceGraphic" in2="effect1_dropShadow" result="shape"/>
<feGaussianBlur stdDeviation="47" result="effect2_foregroundBlur"/>
</filter>
<clipPath id="clip0">
<rect width="990" height="1522" fill="white"/>
</clipPath>
</defs>
</svg>
