<svg width="1080" height="1920" viewBox="0 0 1080 1920" fill="none" xmlns="http://www.w3.org/2000/svg">
<path d="M1080 0H0V1920H1080V0Z" fill="#110F4C"/>
<path d="M532.7 1008.2C539.3 1013.9 543.7 1021.4 546.2 1029.1C547.5 1033 548.3 1036.9 548.7 1040.9C549.1 1044.9 549.1 1048.9 548.8 1052.7C548.2 1060.5 546.3 1067.9 544 1074.9C542.8 1078.4 541.5 1081.8 540.2 1085.1C538.8 1088.4 537.4 1091.7 536 1094.9C530.2 1107.9 523.9 1120.5 516.9 1132.9C513.4 1139.1 509.7 1145.2 505.7 1151.1C501.7 1157.1 497.4 1162.9 492.3 1168.4L492.2 1168.5C489.8 1171.1 485.7 1171.3 483.1 1168.8C481.6 1167.4 480.9 1165.4 481.1 1163.5C482.3 1149.1 483.9 1134.8 485.4 1120.6C486.9 1106.4 488.2 1092.2 489.1 1078C489.5 1070.9 489.8 1063.9 489.9 1056.8C489.9 1049.7 489.9 1042.8 487.8 1037.6C487.3 1036.3 486.6 1035.1 485.8 1034.1C485 1033 484 1032 482.9 1031C480.6 1029 477.8 1027.3 474.8 1025.5C473.3 1024.6 471.7 1023.7 470.1 1022.7C468.5 1021.8 467 1020.8 465.4 1019.8C462.3 1017.9 459.3 1015.8 456.3 1013.7C444.3 1005.3 433.2 995.5 423.5 984.5C418.6 979 414.1 973.2 410 967.1C409 965.6 407.9 964 407 962.5C406 960.9 405.1 959.4 404.2 957.8C403.3 956.2 402.5 954.5 401.6 952.9L400.3 950.4L399.1 947.9C397.5 944.6 396.2 941.1 394.8 937.7L393 932.5C392.4 930.8 392 929 391.5 927.2C389.6 920.1 388.2 912.8 387.5 905.5C386.1 890.8 387 876 390.4 861.7C391.2 858.1 392.2 854.6 393.2 851.1C394.3 847.7 395.3 844.3 396.3 840.9C398.3 834.1 400.2 827.2 401.9 820.3C405.4 806.5 408.4 792.5 410.7 778.5C412.9 764.4 414.5 750.3 414.5 736.1C414.4 722 413 707.7 407.3 694.7C402 681.3 397.3 667.7 393.3 653.9C389.3 640.1 386 626.1 383.8 611.9C381.7 597.7 380.5 583.3 381.9 568.9C382.6 561.8 383.9 554.6 386.3 547.8C388.7 541 392.1 534.6 396.9 529.2C392.2 534.7 388.9 541.1 386.7 547.9C384.4 554.7 383.3 561.8 382.7 568.9C381.7 583.2 383 597.5 385.4 611.6C387.8 625.7 391.4 639.6 395.6 653.2C399.8 666.8 404.7 680.3 410.2 693.5C411.6 696.7 413.1 700.2 414 703.7C415.1 707.2 415.8 710.8 416.5 714.4C417.8 721.6 418.3 728.8 418.4 736.1C418.7 750.6 417.4 765 415.4 779.3C413.4 793.6 410.6 807.7 407.3 821.7C405.7 828.7 403.9 835.7 402 842.6C401 846.1 400.1 849.5 399.1 853C398.2 856.4 397.2 859.8 396.6 863.2C393.6 876.9 393.1 891 394.6 904.8C395.4 911.7 396.8 918.6 398.8 925.2C399.3 926.9 399.8 928.5 400.3 930.2L402.1 935.1C403.4 938.3 404.7 941.5 406.3 944.6L407.4 946.9L408.6 949.2C409.5 950.7 410.2 952.3 411.1 953.7C412 955.2 412.9 956.7 413.9 958.1C414.8 959.6 415.8 961 416.8 962.4C420.8 968.1 425.2 973.5 429.9 978.7C439.3 989 450.1 998.1 461.7 1005.9C464.6 1007.9 467.5 1009.8 470.5 1011.6C472 1012.5 473.5 1013.4 475 1014.3C476.5 1015.2 478 1016 479.6 1016.9C482.8 1018.7 486.2 1020.6 489.4 1023.3C491 1024.6 492.5 1026.2 493.9 1027.9C495.3 1029.7 496.4 1031.7 497.3 1033.7C499 1037.7 499.7 1041.8 500.1 1045.7C500.5 1049.6 500.5 1053.2 500.6 1056.9C500.7 1064.2 500.5 1071.5 500.2 1078.7C498.9 1107.6 495.7 1136.2 493.8 1164.6L482.6 1159.8C486.9 1155 490.8 1149.5 494.5 1143.9C498.2 1138.2 501.6 1132.3 504.9 1126.3C511.4 1114.3 517.4 1101.9 522.7 1089.2C524 1086 525.3 1082.9 526.5 1079.7C527.7 1076.5 528.9 1073.4 529.8 1070.3C531.8 1064 533.2 1057.8 533.5 1051.6C533.7 1048.5 533.6 1045.5 533.3 1042.6C532.9 1039.7 532.3 1036.8 531.3 1034C529.4 1028.5 526.3 1023.7 522.2 1020.3C518.8 1017.5 518.4 1012.4 521.2 1009C524 1005.6 529.1 1005.2 532.5 1008C532.6 1008.2 532.7 1008.2 532.7 1008.2Z" fill="#EBBB51"/>
<path d="M426 681.9C423.1 689.5 415.9 694.3 412 696.5C410.6 697.3 408.8 696.6 408.3 695.1C406.8 690.9 404.5 682.6 407.4 674.9C410.3 667.3 417.5 662.5 421.4 660.3C422.8 659.5 424.6 660.2 425.1 661.7C426.6 665.9 428.9 674.3 426 681.9ZM387.1 696.2C394.3 700 402.9 698.9 407.2 697.9C408.8 697.5 409.7 695.9 409.1 694.4C407.5 690.3 403.6 682.5 396.4 678.7C389.2 674.9 380.6 676 376.3 677C374.7 677.4 373.8 679 374.4 680.5C376.1 684.6 379.9 692.4 387.1 696.2ZM411.1 631.9C410.6 630.6 409.1 630 407.9 630.7C404.5 632.5 398.3 636.7 395.9 643.3C393.4 649.9 395.4 657.1 396.7 660.7C397.2 662 398.7 662.6 399.9 661.9C403.3 660.1 409.5 655.9 411.9 649.3C414.3 642.7 412.4 635.5 411.1 631.9ZM378.3 661.6C384.5 664.9 391.9 663.9 395.6 663.1C397 662.8 397.7 661.4 397.2 660.1C395.8 656.5 392.5 649.8 386.3 646.6C380.1 643.3 372.7 644.3 369 645.1C367.6 645.4 366.9 646.8 367.4 648.1C368.8 651.6 372.1 658.3 378.3 661.6ZM400.7 600.9C400.4 599.8 399.1 599.2 398.1 599.7C395.2 601.1 389.8 604.3 387.4 609.7C385 615.1 386.3 621.2 387.2 624.3C387.5 625.4 388.8 626 389.8 625.5C392.7 624.1 398.1 620.9 400.5 615.5C402.9 610.2 401.7 604 400.7 600.9ZM371.9 624.3C376.9 627.4 383.2 626.9 386.4 626.4C387.6 626.2 388.3 625 387.9 623.9C386.9 620.8 384.4 615.1 379.4 612C374.4 608.9 368.1 609.4 364.9 609.9C363.7 610.1 363 611.3 363.4 612.4C364.4 615.5 366.8 621.2 371.9 624.3ZM397.2 576.6C397.1 575.6 396.1 575 395.2 575.3C392.6 576 387.8 577.9 385.1 582C382.4 586.1 382.6 591.3 383 593.9C383.1 594.9 384.1 595.5 385 595.2C387.6 594.5 392.4 592.6 395.1 588.5C397.7 584.4 397.5 579.2 397.2 576.6ZM369.4 591.7C373.1 594.9 378.3 595.4 380.9 595.4C381.9 595.4 382.6 594.5 382.5 593.6C382.1 591 380.9 585.9 377.2 582.7C373.5 579.5 368.3 579 365.7 579C364.7 579 364 579.9 364.1 580.8C364.5 583.4 365.7 588.5 369.4 591.7ZM397.7 552.5C397.8 551.7 397.1 551 396.3 551.1C394.1 551.3 389.8 552 386.9 554.8C384 557.7 383.3 561.9 383.1 564.2C383 565 383.7 565.7 384.5 565.6C386.7 565.4 391 564.7 393.9 561.9C396.8 559 397.5 554.7 397.7 552.5ZM373.3 560.3C375.8 563.5 379.9 564.8 382.1 565.2C382.9 565.4 383.6 564.8 383.7 564C383.8 561.8 383.7 557.5 381.2 554.2C378.7 551 374.6 549.7 372.4 549.3C371.6 549.1 370.9 549.7 370.8 550.5C370.7 552.8 370.8 557.1 373.3 560.3ZM444.3 702.2C444 700.4 442.3 699.3 440.6 699.9C435.9 701.4 427.1 705 422.4 712.6C417.7 720.2 418.3 729.7 419 734.6C419.3 736.4 421 737.5 422.7 736.9C427.4 735.4 436.2 731.8 440.9 724.2C445.7 716.5 445.1 707 444.3 702.2ZM389.8 731.1C396.7 736.8 406.2 737.4 411.1 737.3C412.9 737.3 414.2 735.7 413.9 733.9C413 729.1 410.6 719.9 403.7 714.2C396.8 708.5 387.3 707.9 382.4 708C380.6 708 379.3 709.6 379.6 711.4C380.4 716.2 382.9 725.4 389.8 731.1ZM451.8 752.9C452 750.9 450.3 749.1 448.2 749.3C442.5 749.7 431.7 751.4 424.3 758.7C416.9 766 415.1 776.8 414.6 782.5C414.4 784.5 416.1 786.3 418.2 786.1C423.9 785.7 434.7 784 442.1 776.7C449.5 769.4 451.4 758.5 451.8 752.9ZM383.6 772.4C389.9 780.6 400.4 783.9 405.9 785.1C407.9 785.5 409.8 784.1 409.9 782C410.2 776.3 409.9 765.3 403.7 757.1C397.4 748.9 386.9 745.6 381.4 744.4C379.4 744 377.5 745.4 377.4 747.5C377 753.1 377.3 764.1 383.6 772.4ZM451.7 814.7C452.3 812.3 450.7 809.8 448.2 809.6C441.3 808.9 427.9 808.6 417.4 815.8C406.9 823 402.4 835.6 400.6 842.3C400 844.7 401.6 847.2 404.1 847.4C411 848.1 424.4 848.4 434.9 841.2C445.3 834 449.9 821.4 451.7 814.7ZM369.1 824.8C374.9 836.1 386.8 842.2 393.2 844.9C395.5 845.9 398.1 844.5 398.7 842.1C400.3 835.4 402.3 822.1 396.6 810.8C390.8 799.5 378.9 793.4 372.5 790.7C370.2 789.7 367.6 791.1 367 793.5C365.4 800.2 363.4 813.5 369.1 824.8ZM440.4 868.3C440.6 865.5 438.2 863.2 435.4 863.4C427.7 864.1 412.9 866.7 403 876.9C393.1 887.1 390.9 901.9 390.4 909.7C390.2 912.5 392.6 914.8 395.4 914.6C403.1 913.9 417.9 911.3 427.8 901.1C437.7 890.9 439.9 876.1 440.4 868.3ZM352.8 896.7C361.6 907.8 376.1 912 383.7 913.5C386.5 914 389 912 389.2 909.2C389.5 901.5 388.8 886.4 380 875.3C371.2 864.2 356.7 860 349.1 858.5C346.3 858 343.8 860 343.6 862.8C343.3 870.6 344 885.6 352.8 896.7ZM450.5 913C449.4 910.1 445.9 908.8 443.1 910.4C435.6 914.7 421.7 924.4 416.5 939.4C411.2 954.4 416 970.6 419.1 978.7C420.2 981.6 423.7 982.9 426.5 981.3C434 977 447.9 967.3 453.1 952.3C458.4 937.3 453.7 921.1 450.5 913ZM378.7 989.7C394.1 993.6 409.8 987.5 417.6 983.6C420.4 982.2 421.3 978.6 419.5 976C414.5 968.9 403.6 956 388.2 952.1C372.8 948.2 357.1 954.3 349.3 958.2C346.5 959.6 345.6 963.2 347.4 965.8C352.5 972.9 363.4 985.8 378.7 989.7Z" fill="#02E2AC"/>
<path d="M417.1 946.4C422.4 931.4 436.2 921.7 443.7 917.4C446.4 915.8 449.9 917 451.1 920C452.4 923.3 454 928 455 933.5C454.5 924.8 452 916.9 450.1 912C449 909.1 445.5 907.8 442.7 909.4C435.2 913.7 421.3 923.4 416.1 938.4C413 947.2 413.4 956.5 414.8 964.2C414.5 958.5 415.1 952.4 417.1 946.4Z" fill="#05AA7B"/>
<path d="M414.3 781.4C414.2 782.7 414.9 783.9 415.9 784.6C416.9 778.8 419.4 771.2 425 765.7C432.4 758.4 443.2 756.7 448.9 756.3C449.6 756.3 450.3 756.4 450.8 756.8C451.1 755 451.3 753.3 451.4 751.9C451.6 749.9 449.9 748.1 447.8 748.3C442.1 748.7 431.3 750.4 423.9 757.7C416.6 764.9 414.7 775.8 414.3 781.4Z" fill="#05AA7B"/>
<path d="M422 711.6C417.3 719.2 417.9 728.7 418.6 733.6C418.7 734.1 418.8 734.5 419.1 734.8C419.1 730.1 420 724.5 423 719.6C427.7 712 436.5 708.4 441.2 706.9C442.5 706.5 443.7 707 444.4 708C444.4 705.3 444.2 703 443.9 701.2C443.6 699.4 441.9 698.3 440.2 698.9C435.5 700.3 426.7 704 422 711.6Z" fill="#05AA7B"/>
<path d="M403.243 883.65L403.24 883.653C395.323 891.86 392.207 902.984 391.06 911.146C390.661 910.458 390.439 909.636 390.499 908.733L390.499 908.732C390.998 900.954 393.191 886.214 402.957 876.25L402.959 876.248C412.725 866.186 427.363 863.597 435.04 862.898C437.548 862.722 439.678 864.783 439.501 867.263C439.487 867.446 439.473 867.632 439.459 867.822C439.389 868.748 439.314 869.752 439.2 870.809C438.27 870.243 437.189 869.914 435.964 870.001L435.964 870.001L435.955 870.002C428.228 870.705 413.273 873.417 403.243 883.65Z" stroke="#05AA7B"/>
<path d="M367.6 800.5C368.2 798.1 370.8 796.7 373.1 797.7C379.5 800.3 391.5 806.5 397.2 817.8C398.5 820.4 399.4 823 400 825.7C399.8 820.5 398.8 815 396.2 809.8C390.4 798.5 378.5 792.4 372.1 789.7C369.8 788.7 367.2 790.1 366.6 792.5C365.3 797.7 363.9 806.8 365.9 815.9C365.8 809.7 366.7 804.1 367.6 800.5Z" fill="#05AA7B"/>
<path d="M401 838.5C400.9 840.4 400.7 842.2 400.4 843.9C400.8 844.7 401.4 845.4 402.2 845.9C404.5 838.9 409.1 828.8 418 822.8C428.4 815.6 441.9 815.9 448.8 816.6C449.4 816.7 449.9 816.8 450.3 817.1C450.7 815.9 451 814.7 451.3 813.7C451.9 811.3 450.3 808.8 447.8 808.6C440.9 807.9 427.5 807.6 417 814.8C407.9 821 403.2 831.5 401 838.5Z" fill="#05AA7B"/>
<path d="M377 746.5C376.8 749.6 376.8 754.4 377.9 759.5C377.8 757.6 377.9 755.9 378 754.5C378.1 752.4 380 751 382 751.4C387.5 752.6 398.1 755.9 404.3 764.1C407.1 767.8 408.7 772 409.6 776C409.4 770.1 408 762.3 403.3 756.1C397 747.9 386.5 744.6 381 743.4C379 743 377.1 744.4 377 746.5Z" fill="#05AA7B"/>
<path d="M407.5 696.7C407.4 696.6 407.4 696.5 407.3 696.4C407.3 696.5 407.4 696.7 407.4 696.8C407.4 696.7 407.5 696.7 407.5 696.7Z" fill="#05AA7B"/>
<path d="M379.2 710.4C379.5 712 379.9 714 380.7 716.3C381.2 715.6 382 715 383 715C387.9 714.9 397.4 715.5 404.3 721.2C409 725 411.6 730.4 413.1 735C413.5 734.4 413.7 733.7 413.6 732.9C412.7 728.1 410.3 718.9 403.4 713.2C396.5 707.5 387 706.9 382.1 707C380.2 707.1 378.9 708.7 379.2 710.4Z" fill="#05AA7B"/>
<path d="M350 965.2C357.8 961.3 373.5 955.2 388.9 959.1C402.1 962.5 412 972.4 417.7 979.7C416.9 976.9 416.1 973.7 415.5 970.2C409.7 963.1 400.2 954.2 387.9 951.1C372.5 947.2 356.8 953.3 349 957.2C346.2 958.6 345.3 962.2 347.1 964.8C347.5 965.3 347.9 965.9 348.4 966.5C348.8 966 349.3 965.5 350 965.2Z" fill="#05AA7B"/>
<path d="M365.5 616.9C368.7 616.4 374.9 615.9 380 619C382.7 620.6 384.6 623 386 625.4C386.3 625.4 386.5 625.2 386.7 625.1C386.5 622.5 386.8 619.5 388 616.8C390.4 611.4 395.8 608.2 398.7 606.8C399.8 606.3 401 606.8 401.3 608C401.4 608.2 401.4 608.4 401.5 608.6C401.7 605.2 400.9 602 400.3 600C400 598.9 398.7 598.3 397.7 598.8C394.8 600.2 389.4 603.4 387 608.8C385.5 612.3 385.5 616.1 385.9 619.2C384.5 616.4 382.3 613.1 378.9 611.1C373.9 608 367.6 608.5 364.4 609C363.2 609.2 362.5 610.4 362.9 611.5C363.4 612.8 364.2 614.9 365.5 616.9Z" fill="#05AA7B"/>
<path d="M373 556.3C375.2 556.8 379.3 558 381.8 561.2C382.6 562.2 383.1 563.3 383.4 564.3C383.6 564.4 383.9 564.5 384.2 564.5C384.6 564.5 385.1 564.4 385.7 564.3C386.2 563.4 386.8 562.5 387.6 561.7C389.9 559.4 393.2 558.5 395.5 558.1C396.8 555.6 397.2 552.9 397.4 551.3C397.5 550.5 396.8 549.8 396 549.9C393.8 550.1 389.5 550.8 386.6 553.6C384.7 555.5 383.8 557.9 383.3 560C383.1 557.8 382.5 555.2 380.8 553C378.3 549.8 374.2 548.5 372 548.1C371.2 547.9 370.5 548.5 370.4 549.3C370.3 551 370.4 554 371.6 556.7C371.8 556.5 372.4 556.2 373 556.3Z" fill="#05AA7B"/>
<path d="M365.6 586.1C365.8 586 366 586 366.2 586C368.9 586 374 586.5 377.7 589.7C379.2 591 380.3 592.6 381.1 594.2C381.7 593.9 382.1 593.3 382 592.5C381.6 589.9 380.4 584.8 376.7 581.6C373 578.4 367.8 577.9 365.2 577.9C364.2 577.9 363.5 578.8 363.6 579.7C364 581.4 364.5 583.8 365.6 586.1Z" fill="#05AA7B"/>
<path d="M344.2 869.8C344.3 867 346.9 865 349.7 865.5C357.3 867 371.8 871.2 380.6 882.3C385.1 888 387.5 894.8 388.7 901.1C388.2 893.1 386.2 882.6 379.6 874.3C370.8 863.2 356.3 859 348.7 857.5C345.9 857 343.4 859 343.2 861.8C343 865.5 343.1 871 344.3 876.9C344.1 874.2 344.2 871.8 344.2 869.8Z" fill="#05AA7B"/>
<path d="M385.7 588.9C388.4 584.8 393.2 583 395.8 582.2C396.1 582.1 396.4 582.1 396.7 582.2C397.2 579.6 397 577.1 396.8 575.5C396.7 574.5 395.7 573.9 394.8 574.2C392.2 574.9 387.4 576.8 384.7 580.9C382 585 382.2 590.2 382.6 592.8C382.7 593.5 383.2 593.9 383.7 594.1C384 592.4 384.6 590.6 385.7 588.9Z" fill="#05AA7B"/>
<path d="M407 673.9C405.1 678.8 405.4 684.1 406.3 688.3C406.4 688.5 406.5 688.7 406.7 689C406.8 686.7 407.2 684.3 408.1 682C411 674.4 418.2 669.6 422.1 667.4C423.5 666.6 425.3 667.3 425.8 668.8C426.2 669.9 426.7 671.4 427.1 673C427.1 668.1 425.8 663.5 424.8 660.8C424.2 659.3 422.5 658.6 421.1 659.4C417.1 661.5 409.9 666.3 407 673.9Z" fill="#05AA7B"/>
<path d="M395.4 642.2C393.8 646.4 394.1 651 394.8 654.6C392.9 651.3 390.1 647.6 386 645.4C379.8 642.1 372.4 643.1 368.7 643.9C367.3 644.2 366.6 645.6 367.1 646.9C367.6 648.2 368.4 650 369.6 651.9C369.7 651.9 369.7 651.9 369.8 651.8C373.5 651 380.9 650 387.1 653.3C391 655.3 393.7 658.7 395.6 661.8C395.7 661.8 395.8 661.8 395.8 661.7C395.2 658.2 395.1 654 396.6 650C399.1 643.4 405.3 639.3 408.6 637.4C409.8 636.7 411.3 637.3 411.8 638.6C412.1 639.4 412.4 640.5 412.8 641.7C412.9 637.2 411.7 633.1 410.8 630.6C410.3 629.3 408.8 628.7 407.6 629.4C404.1 631.5 397.9 635.7 395.4 642.2Z" fill="#05AA7B"/>
<path d="M396.1 677.7C388.9 673.9 380.3 675 376 676C374.4 676.4 373.5 678 374.1 679.5C374.6 680.8 375.3 682.5 376.3 684.2C376.5 684.1 376.7 684 377 683.9C381.3 682.9 389.9 681.8 397.1 685.6C401.9 688.1 405.2 692.4 407.3 696.3C406.9 694.3 406.6 692.1 406.6 689.9C406.5 689.4 406.4 688.9 406.3 688.3C404.1 684.5 400.8 680.2 396.1 677.7Z" fill="#05AA7B"/>
<path d="M764.186 685.144C771.883 673.285 749.281 644.952 713.703 621.861C678.125 598.77 643.043 589.665 635.346 601.525C627.649 613.384 650.251 641.717 685.829 664.808C721.408 687.899 756.489 697.004 764.186 685.144Z" fill="#02E2AC"/>
<path d="M769 705.7C758.3 722.3 715 713.3 672.4 685.6C629.8 657.9 604 622.1 614.7 605.6" stroke="#9451EB" stroke-width="5" stroke-miterlimit="10"/>
<path d="M776.852 693.365C787.585 676.827 761.774 641.02 719.201 613.389C676.628 585.758 633.414 576.766 622.68 593.304C611.947 609.842 637.758 645.649 680.331 673.28C722.904 700.911 766.118 709.903 776.852 693.365Z" stroke="#9451EB" stroke-width="5" stroke-miterlimit="10"/>
<path d="M776.9 693.4L761.5 717.2C750.8 733.8 707.5 724.8 664.9 697.1C622.3 669.4 596.5 633.6 607.2 617.1L622.6 593.3" stroke="#9451EB" stroke-width="5" stroke-miterlimit="10"/>
<path d="M717.4 667C715 666.9 711.9 666 708 664.4C704.1 662.8 699.8 660.6 695 657.5L693.2 660.3L687.2 656.4L689 653.6C682.4 649.1 677.4 644.9 674 641C670.6 637.1 669.4 634.3 670.5 632.4L681.2 639.3C680.9 640.5 681.5 642 683 644.1C684.6 646.1 687.1 648.4 690.7 651L696.3 642.4C691.6 638.8 687.9 635.8 685.2 633.5C682.4 631.1 680.3 628.8 678.7 626.6C677.1 624.3 676.8 622.5 677.8 621C679 619.1 682.1 619 687 620.4C691.9 621.9 697.9 624.8 704.9 629.2L706.8 626.3L712.8 630.2L710.9 633.1C717 637.3 721.7 641.2 724.8 644.8C727.9 648.4 729.2 651.2 728.7 653.4L718 646.5C718.2 645.5 717.5 644 716 642.1C714.5 640.2 712.3 638.1 709.2 635.9L703.7 644.3C708.3 647.8 712 650.8 714.8 653.2C717.6 655.6 719.8 657.9 721.3 660.1C722.8 662.3 723.1 664.2 722.1 665.7C721.3 666.7 719.8 667.1 717.4 667ZM689.6 632.2C691.3 634.2 694.2 636.7 698 639.8L703.2 631.8C699.3 629.4 696 627.8 693.3 627C690.6 626.2 688.9 626.3 688.1 627.5C687.3 628.7 687.8 630.2 689.6 632.2ZM706.8 659.7C709.5 660.4 711.2 660.2 711.9 659.2C712.6 658.1 712.1 656.5 710.3 654.5C708.5 652.5 705.7 649.9 701.9 646.9L696.6 655C700.6 657.5 704 659 706.8 659.7Z" fill="#110F4C"/>
<path d="M527.206 435.117C553.286 417.095 569.542 395.413 563.513 386.689C557.485 377.966 531.456 385.503 505.375 403.526C479.295 421.548 463.039 443.229 469.067 451.953C475.096 460.677 501.125 453.139 527.206 435.117Z" fill="#EBBB51"/>
<path d="M579.1 389.3C587.5 401.4 569 428.7 537.8 450.3C506.6 471.9 474.5 479.5 466.1 467.4" stroke="#9451EB" stroke-width="5" stroke-miterlimit="10"/>
<path d="M531.469 441.287C562.684 419.717 581.193 392.397 572.81 380.265C564.427 368.134 532.326 375.785 501.112 397.355C469.897 418.925 451.388 446.246 459.771 458.377C468.154 470.509 500.255 462.857 531.469 441.287Z" stroke="#9451EB" stroke-width="5" stroke-miterlimit="10"/>
<path d="M572.8 380.3L584.9 397.7C593.3 409.8 574.8 437.1 543.6 458.7C512.4 480.3 480.3 487.9 471.9 475.8L459.8 458.4" stroke="#9451EB" stroke-width="5" stroke-miterlimit="10"/>
<path d="M537.7 414C536.9 415.6 535.4 417.5 533.3 419.8C531.1 422 528.3 424.4 524.9 426.9L526.3 428.9L521.9 431.9L520.5 429.9C515.5 433.2 511.2 435.4 507.5 436.7C503.8 438 501.5 438 500.6 436.7L508.4 431.3C509.1 431.9 510.4 431.9 512.2 431.4C514 430.9 516.4 429.8 519.1 428.1L514.7 421.8C510.9 424 507.8 425.7 505.4 427C503 428.2 500.8 429.1 498.8 429.5C496.8 429.9 495.4 429.6 494.7 428.5C493.8 427.1 494.5 425 496.9 422C499.3 419 503 415.7 508 412.1L506.6 410L511 407L512.4 409.1C517.1 406.1 521.1 404 524.4 402.8C527.8 401.7 530.1 401.6 531.4 402.6L523.6 408C522.9 407.6 521.7 407.6 520 408.1C518.3 408.6 516.2 409.6 513.8 411L518.1 417.2C521.9 415 525 413.3 527.4 412.1C529.8 410.8 532.1 410 534 409.6C536 409.2 537.3 409.5 538.1 410.6C538.6 411.1 538.5 412.3 537.7 414ZM505.7 423.3C507.6 422.7 510.1 421.4 513.3 419.6L509.3 413.8C506.6 415.8 504.5 417.7 503.2 419.3C501.9 420.9 501.5 422.2 502.1 423C502.6 423.8 503.9 423.9 505.7 423.3ZM529.7 419.2C531 417.5 531.3 416.3 530.8 415.5C530.2 414.7 529 414.6 527.1 415.3C525.2 416 522.6 417.2 519.5 419L523.6 425C526.3 422.8 528.4 420.9 529.7 419.2Z" fill="#110F4C"/>
<path d="M433.839 237.268C436.82 229.598 420.541 216.113 397.479 207.149C374.417 198.185 353.304 197.136 350.323 204.806C347.341 212.476 363.62 225.961 386.683 234.925C409.745 243.89 430.858 244.938 433.839 237.268Z" fill="#02E2AC"/>
<path d="M439 248.4C434.8 259.1 409.1 259.1 381.5 248.4C353.9 237.7 335 220.3 339.1 209.6" stroke="#9451EB" stroke-width="5" stroke-miterlimit="10"/>
<path d="M442.041 240.456C446.203 229.749 427.209 212.374 399.617 201.649C372.024 190.924 346.282 190.91 342.12 201.618C337.958 212.325 356.952 229.7 384.545 240.425C412.137 251.15 437.879 251.164 442.041 240.456Z" stroke="#9451EB" stroke-width="5" stroke-miterlimit="10"/>
<path d="M442.1 240.4L436.1 255.8C431.9 266.5 406.2 266.5 378.6 255.8C351 245.1 332.1 227.7 336.2 217L342.2 201.6" stroke="#9451EB" stroke-width="5" stroke-miterlimit="10"/>
<path d="M404.9 232.5C403.5 232.7 401.6 232.6 399.2 232.2C396.8 231.8 394.1 231 390.9 229.8L390.2 231.6L386.3 230.1L387 228.3C382.7 226.5 379.4 224.7 376.9 222.9C374.5 221.1 373.5 219.6 373.9 218.4L380.8 221.1C380.7 221.8 381.3 222.6 382.4 223.6C383.5 224.6 385.3 225.6 387.6 226.6L389.8 221C386.7 219.5 384.2 218.2 382.4 217.2C380.6 216.2 379 215.1 377.9 214C376.7 212.9 376.3 211.9 376.7 210.9C377.2 209.7 378.9 209.2 381.9 209.5C384.9 209.8 388.7 210.7 393.2 212.4L393.9 210.5L397.8 212L397.1 213.9C401.1 215.6 404.2 217.3 406.4 218.9C408.6 220.6 409.7 222 409.6 223.3L402.7 220.6C402.7 220 402.1 219.2 401 218.3C399.9 217.4 398.4 216.5 396.4 215.5L394.3 220.9C397.3 222.4 399.8 223.6 401.7 224.7C403.6 225.7 405.1 226.8 406.2 227.9C407.3 229 407.7 230 407.3 231C407.2 231.8 406.3 232.3 404.9 232.5ZM385 215.9C386.2 216.8 388.1 217.9 390.7 219.2L392.7 214C390.2 213.1 388.1 212.6 386.5 212.4C384.9 212.2 383.9 212.6 383.6 213.3C383.3 214.2 383.7 215 385 215.9ZM398 229.6C399.6 229.7 400.6 229.4 400.9 228.7C401.2 228 400.7 227.1 399.4 226.2C398.1 225.3 396.2 224.1 393.7 222.9L391.7 228.2C394.3 229 396.4 229.5 398 229.6Z" fill="#110F4C"/>
<path d="M871.2 1918C837.2 1746.8 686.2 1617.7 505 1617.7C323.8 1617.7 172.8 1746.8 138.8 1918" fill="#EBBB51"/>
<path d="M546.1 1908.9C546.1 1907.8 547 1906.9 548.1 1906.9H601.5C602.6 1906.9 603.5 1907.8 603.5 1908.9C603.5 1910 602.6 1910.9 601.5 1910.9H548.1C547 1910.9 546.1 1910 546.1 1908.9ZM607.2 1917.1C607.2 1916 606.3 1915.1 605.2 1915.1H544.4C543.3 1915.1 542.4 1916 542.4 1917.1C542.4 1917.8 542.7 1918.4 543.3 1918.8H606.2C606.9 1918.4 607.2 1917.8 607.2 1917.1ZM507.7 1894.1V1617.5C506.6 1617.5 505.4 1617.5 504.3 1617.5H503.7V1894.1C503.7 1895.2 504.6 1896.1 505.7 1896.1C506.8 1896.1 507.7 1895.2 507.7 1894.1ZM523.9 1894.1V1618C522.6 1617.9 521.2 1617.9 519.9 1617.8V1894.1C519.9 1895.2 520.8 1896.1 521.9 1896.1C523 1896.1 523.9 1895.2 523.9 1894.1ZM515.8 1894.1V1617.7C514.5 1617.7 513.1 1617.6 511.8 1617.6V1894.1C511.8 1895.2 512.7 1896.1 513.8 1896.1C514.9 1896.1 515.8 1895.2 515.8 1894.1ZM552.3 1903.1H597.3C598.4 1903.1 599.3 1902.2 599.3 1901.1C599.3 1900 598.4 1899.1 597.3 1899.1H552.3C551.2 1899.1 550.3 1900 550.3 1901.1C550.3 1902.2 551.2 1903.1 552.3 1903.1ZM577.3 1894.1V1624.7C576 1624.4 574.6 1624.2 573.3 1623.9V1894.1C573.3 1895.2 574.2 1896.1 575.3 1896.1C576.4 1896.1 577.3 1895.2 577.3 1894.1ZM585.4 1894.1V1626.4C584.1 1626.1 582.7 1625.8 581.4 1625.5V1894.1C581.4 1895.2 582.3 1896.1 583.4 1896.1C584.5 1896.1 585.4 1895.2 585.4 1894.1ZM561.1 1894.1V1621.8C559.8 1621.6 558.4 1621.4 557.1 1621.2V1894.1C557.1 1895.2 558 1896.1 559.1 1896.1C560.2 1896.1 561.1 1895.2 561.1 1894.1ZM593.5 1894.1V1628.3C592.2 1628 590.8 1627.6 589.5 1627.3V1894.1C589.5 1895.2 590.4 1896.1 591.5 1896.1C592.6 1896.1 593.5 1895.2 593.5 1894.1ZM569.2 1894.1V1623.1C567.9 1622.9 566.5 1622.6 565.2 1622.4V1894C565.2 1895.1 566.1 1896 567.2 1896C568.3 1896 569.2 1895.2 569.2 1894.1ZM499.6 1894.1V1617.5C498.3 1617.5 496.9 1617.5 495.6 1617.6V1894.1C495.6 1895.2 496.5 1896.1 497.6 1896.1C498.7 1896.1 499.6 1895.2 499.6 1894.1ZM434.1 1894.1C434.1 1895.2 435 1896.1 436.1 1896.1C437.2 1896.1 438.1 1895.2 438.1 1894.1V1623.4C436.8 1623.6 435.4 1623.9 434.1 1624.1V1894.1ZM417.9 1894.1C417.9 1895.2 418.8 1896.1 419.9 1896.1C421 1896.1 421.9 1895.2 421.9 1894.1V1626.6C420.6 1626.9 419.2 1627.2 417.9 1627.5V1894.1ZM491.5 1894.1V1617.7C490.2 1617.7 488.8 1617.8 487.5 1617.9V1894.1C487.5 1895.2 488.4 1896.1 489.5 1896.1C490.6 1896.1 491.5 1895.2 491.5 1894.1ZM458.1 1899.1H413.1C412 1899.1 411.1 1900 411.1 1901.1C411.1 1902.2 412 1903.1 413.1 1903.1H458.1C459.2 1903.1 460.1 1902.2 460.1 1901.1C460.1 1900 459.2 1899.1 458.1 1899.1ZM450.3 1894.1C450.3 1895.2 451.2 1896.1 452.3 1896.1C453.4 1896.1 454.3 1895.2 454.3 1894.1V1620.8C453 1621 451.6 1621.2 450.3 1621.4V1894.1ZM442.2 1894.1C442.2 1895.2 443.1 1896.1 444.2 1896.1C445.3 1896.1 446.2 1895.2 446.2 1894.1V1622C444.9 1622.2 443.5 1622.4 442.2 1622.7V1894.1ZM426 1894.1C426 1895.2 426.9 1896.1 428 1896.1C429.1 1896.1 430 1895.2 430 1894.1V1624.9C428.7 1625.2 427.3 1625.4 426 1625.7V1894.1ZM531.9 1906.9H478.5C477.4 1906.9 476.5 1907.8 476.5 1908.9C476.5 1910 477.4 1910.9 478.5 1910.9H531.9C533 1910.9 533.9 1910 533.9 1908.9C533.9 1907.8 533 1906.9 531.9 1906.9ZM462.3 1906.9H408.9C407.8 1906.9 406.9 1907.8 406.9 1908.9C406.9 1910 407.8 1910.9 408.9 1910.9H462.3C463.4 1910.9 464.3 1910 464.3 1908.9C464.3 1907.8 463.4 1906.9 462.3 1906.9ZM537.6 1917.1C537.6 1916 536.7 1915.1 535.6 1915.1H474.8C473.7 1915.1 472.8 1916 472.8 1917.1C472.8 1917.8 473.1 1918.4 473.7 1918.8H536.6C537.2 1918.4 537.6 1917.8 537.6 1917.1ZM468 1917.1C468 1916 467.1 1915.1 466 1915.1H405.2C404.1 1915.1 403.2 1916 403.2 1917.1C403.2 1917.8 403.5 1918.4 404.1 1918.8H467C467.6 1918.4 468 1917.8 468 1917.1ZM482.7 1903.1H527.7C528.8 1903.1 529.7 1902.2 529.7 1901.1C529.7 1900 528.8 1899.1 527.7 1899.1H482.7C481.6 1899.1 480.7 1900 480.7 1901.1C480.7 1902.2 481.6 1903.1 482.7 1903.1Z" fill="#110F4C"/>
<path d="M474.8 1500.7H535.6C536.7 1500.7 537.6 1499.8 537.6 1498.7C537.6 1497.6 536.7 1496.7 535.6 1496.7H474.8C473.7 1496.7 472.8 1497.6 472.8 1498.7C472.8 1499.8 473.7 1500.7 474.8 1500.7Z" fill="#9451EB"/>
<path d="M466 1496.7H405.2C404.1 1496.7 403.2 1497.6 403.2 1498.7C403.2 1499.8 404.1 1500.7 405.2 1500.7H466C467.1 1500.7 468 1499.8 468 1498.7C468 1497.6 467.1 1496.7 466 1496.7Z" fill="#9451EB"/>
<path d="M503.7 1617.8H504.3C505.4 1617.8 506.6 1617.8 507.7 1617.8V1522.1C507.7 1521 506.8 1520.1 505.7 1520.1C504.6 1520.1 503.7 1521 503.7 1522.1V1617.8Z" fill="#9451EB"/>
<path d="M519.9 1618.2C521.2 1618.3 522.6 1618.3 523.9 1618.4V1522.2C523.9 1521.1 523 1520.2 521.9 1520.2C520.8 1520.2 519.9 1521.1 519.9 1522.2V1618.2Z" fill="#9451EB"/>
<path d="M511.8 1617.9C513.1 1617.9 514.5 1618 515.8 1618V1522.1C515.8 1521 514.9 1520.1 513.8 1520.1C512.7 1520.1 511.8 1521 511.8 1522.1V1617.9Z" fill="#9451EB"/>
<path d="M408.9 1509H462.3C463.4 1509 464.3 1508.1 464.3 1507C464.3 1505.9 463.4 1505 462.3 1505H408.9C407.8 1505 406.9 1505.9 406.9 1507C406.9 1508.1 407.8 1509 408.9 1509Z" fill="#9451EB"/>
<path d="M442.2 1623C443.5 1622.8 444.9 1622.6 446.2 1622.3V1522.1C446.2 1521 445.3 1520.1 444.2 1520.1C443.1 1520.1 442.2 1521 442.2 1522.1V1623Z" fill="#9451EB"/>
<path d="M438.1 1623.7V1522.2C438.1 1521.1 437.2 1520.2 436.1 1520.2C435 1520.2 434.1 1521.1 434.1 1522.2V1624.5C435.4 1624.2 436.7 1623.9 438.1 1623.7Z" fill="#9451EB"/>
<path d="M450.3 1621.7C451.6 1621.5 453 1621.3 454.3 1621.1V1522.1C454.3 1521 453.4 1520.1 452.3 1520.1C451.2 1520.1 450.3 1521 450.3 1522.1V1621.7Z" fill="#9451EB"/>
<path d="M421.9 1626.9V1522.1C421.9 1521 421 1520.1 419.9 1520.1C418.8 1520.1 417.9 1521 417.9 1522.1V1627.8C419.2 1627.5 420.6 1627.2 421.9 1626.9Z" fill="#9451EB"/>
<path d="M430 1625.2V1522.1C430 1521 429.1 1520.1 428 1520.1C426.9 1520.1 426 1521 426 1522.1V1626C427.3 1625.8 428.7 1625.5 430 1625.2Z" fill="#9451EB"/>
<path d="M411.1 1514.7C411.1 1515.8 412 1516.7 413.1 1516.7H458.1C459.2 1516.7 460.1 1515.8 460.1 1514.7C460.1 1513.6 459.2 1512.7 458.1 1512.7H413.1C412 1512.7 411.1 1513.6 411.1 1514.7Z" fill="#9451EB"/>
<path d="M480.7 1514.7C480.7 1515.8 481.6 1516.7 482.7 1516.7H527.7C528.8 1516.7 529.7 1515.8 529.7 1514.7C529.7 1513.6 528.8 1512.7 527.7 1512.7H482.7C481.6 1512.7 480.7 1513.6 480.7 1514.7Z" fill="#9451EB"/>
<path d="M565.2 1622.8C566.5 1623 567.9 1623.2 569.2 1623.5V1522.2C569.2 1521.1 568.3 1520.2 567.2 1520.2C566.1 1520.2 565.2 1521.1 565.2 1522.2V1622.8Z" fill="#9451EB"/>
<path d="M557.1 1621.5C558.4 1621.7 559.8 1621.9 561.1 1622.1V1522.1C561.1 1521 560.2 1520.1 559.1 1520.1C558 1520.1 557.1 1521 557.1 1522.1V1621.5Z" fill="#9451EB"/>
<path d="M548.1 1509H601.5C602.6 1509 603.5 1508.1 603.5 1507C603.5 1505.9 602.6 1505 601.5 1505H548.1C547 1505 546.1 1505.9 546.1 1507C546.1 1508.1 547 1509 548.1 1509Z" fill="#9451EB"/>
<path d="M550.3 1514.7C550.3 1515.8 551.2 1516.7 552.3 1516.7H597.3C598.4 1516.7 599.3 1515.8 599.3 1514.7C599.3 1513.6 598.4 1512.7 597.3 1512.7H552.3C551.2 1512.7 550.3 1513.6 550.3 1514.7Z" fill="#9451EB"/>
<path d="M573.3 1624.2C574.6 1624.4 576 1624.7 577.3 1625V1522.2C577.3 1521.1 576.4 1520.2 575.3 1520.2C574.2 1520.2 573.3 1521.1 573.3 1522.2V1624.2Z" fill="#9451EB"/>
<path d="M544.4 1500.7H605.2C606.3 1500.7 607.2 1499.8 607.2 1498.7C607.2 1497.6 606.3 1496.7 605.2 1496.7H544.4C543.3 1496.7 542.4 1497.6 542.4 1498.7C542.4 1499.8 543.3 1500.7 544.4 1500.7Z" fill="#9451EB"/>
<path d="M478.5 1509H531.9C533 1509 533.9 1508.1 533.9 1507C533.9 1505.9 533 1505 531.9 1505H478.5C477.4 1505 476.5 1505.9 476.5 1507C476.5 1508.1 477.4 1509 478.5 1509Z" fill="#9451EB"/>
<path d="M491.5 1618.1V1522.2C491.5 1521.1 490.6 1520.2 489.5 1520.2C488.4 1520.2 487.5 1521.1 487.5 1522.2V1618.3C488.9 1618.2 490.2 1618.1 491.5 1618.1Z" fill="#9451EB"/>
<path d="M593.5 1628.6V1522.2C593.5 1521.1 592.6 1520.2 591.5 1520.2C590.4 1520.2 589.5 1521.1 589.5 1522.2V1627.6C590.8 1627.9 592.2 1628.2 593.5 1628.6Z" fill="#9451EB"/>
<path d="M499.6 1617.9V1522.2C499.6 1521.1 498.7 1520.2 497.6 1520.2C496.5 1520.2 495.6 1521.1 495.6 1522.2V1618C496.9 1617.9 498.3 1617.9 499.6 1617.9Z" fill="#9451EB"/>
<path d="M581.4 1625.8C582.7 1626.1 584.1 1626.4 585.4 1626.7V1522.2C585.4 1521.1 584.5 1520.2 583.4 1520.2C582.3 1520.2 581.4 1521.1 581.4 1522.2V1625.8Z" fill="#9451EB"/>
<path d="M363.3 1288.3C362.6 1239.2 375.6 1190.3 397.6 1146.4C414.3 1112.9 437 1076.6 425.9 1040.8C424.8 1037.4 423.5 1034 423.5 1030.4C423.6 1021.8 432.4 1015.2 441 1015.1C449.6 1015.1 457.4 1020.2 463.2 1026.5C484.7 1050 481.9 1086.4 476 1117.7C470 1149 462.7 1183.4 478.2 1211.2C486.2 1225.6 499.7 1236.5 507.1 1251.3C513.5 1264 514.9 1278.6 514.6 1292.9C514.2 1322.3 507 1351.4 494.2 1377.9C484.1 1398.8 463.7 1438.9 437.3 1441.2C382.3 1445.8 363.8 1325.2 363.3 1288.3Z" stroke="#9451EB" stroke-width="4" stroke-miterlimit="10"/>
<path d="M723.6 987.6C712.6 989.5 713.5 1007 714.7 1018.1C717.1 1040.5 723.4 1062.6 722.9 1085.2C722.2 1115.6 704.2 1132.9 685.2 1156.6C683.5 1158.8 681.7 1161 679.9 1163.3C678.5 1165.1 675.6 1163.5 676.5 1161.3C702.5 1095.3 712.1 1033 709.2 962.8C708 933.7 708.6 924.8 698.5 897.5C696.6 892.4 690.2 886.2 683 890C677.6 892.8 674.6 898 673.8 904.1C668 945 663.7 985.4 657.6 1026.2C653.8 1051.4 634.4 1092.7 614.1 1130.1C613 1132.1 610 1131 610.4 1128.8C621.5 1065.4 626 996.7 607.7 974.9C587.3 950.7 551.3 948.5 520.1 954.2C497.3 958.3 472 964.1 459 983.3C455.9 987.9 453.7 994.2 456.7 998.8C460.1 1004.1 467.8 1004.2 474 1003C489.9 1000 537 983.8 554.5 1004.7C581.6 1037 536.3 1171.5 484.1 1186.8C476.8 1188.9 469.4 1183.5 469 1175.9C468 1156.5 472.2 1135.9 475.9 1116.6C481.9 1085.3 484.7 1048.9 463.1 1025.4C457.3 1019.1 449.5 1014 440.9 1014C432.3 1014 423.5 1020.7 423.4 1029.3C423.4 1032.9 424.7 1036.3 425.8 1039.7C436.9 1075.5 414.2 1111.8 397.5 1145.3C375.5 1189.3 362.5 1238.1 363.2 1287.2C363.5 1309 370 1359.9 386.7 1397.1C387 1397.8 387.3 1398.6 387.3 1399.4C389.7 1422.6 396.8 1450.8 405 1480.9C405.5 1482.6 407.1 1483.9 408.9 1483.9H600.2C602.6 1483.9 604.5 1481.7 604.2 1479.3C602.1 1464.2 600.6 1449.8 599.9 1436C599.8 1434.7 599.8 1433.1 599.8 1431.5C599.8 1396.9 611.8 1363.4 633.5 1336.5C643.5 1324.1 683.4 1282.6 697.1 1271.3C703.1 1266.4 709.4 1261.4 713.5 1254.8C717.8 1248 719.5 1240 720.9 1232.2L721 1231.9C724.3 1213 731.4 1194.9 741.9 1178.8C747.7 1169.9 753 1160.6 757.6 1151C779.7 1104.3 753.7 982.3 723.6 987.6Z" stroke="#9451EB" stroke-width="4" stroke-miterlimit="10"/>
<path d="M137.9 1629.6C133.2 1620.6 121.9 1620.8 117.3 1611.8C126.3 1607.1 130.8 1604.8 139.8 1600.1C144.5 1609.1 155.8 1608.9 160.4 1617.9C151.4 1622.6 146.9 1624.9 137.9 1629.6Z" fill="#9451EB"/>
<path d="M1007.4 1227.7C1016.8 1233 1019.5 1237.1 1020.9 1247.8C1010.2 1249.2 1006.2 1251.9 1000.8 1261.3C991.4 1256 988.7 1251.9 987.3 1241.2C998.1 1239.8 1002.1 1237.1 1007.4 1227.7Z" fill="#9451EB"/>
<path d="M976 1815C976 1826.6 978.3 1837.1 978.3 1848.7C968.3 1845.5 958.4 1842.3 948.4 1839.1C948.4 1827.5 946.1 1817 946.1 1805.4C956 1808.6 966 1811.8 976 1815Z" stroke="#02E2AC" stroke-width="3" stroke-miterlimit="10"/>
<path d="M86.1 1770.8C91.9 1763.3 95.7 1761.4 105.1 1761.5C105 1771 106.9 1774.8 114.4 1780.5C108.6 1788 104.8 1789.9 95.4 1789.8C95.5 1780.4 93.7 1776.6 86.1 1770.8Z" fill="#EBBB51"/>
<path d="M1011.6 1453.6C1013.4 1465.9 1024.4 1474.4 1036.7 1473C1030.2 1481.4 1023.8 1489.8 1017.3 1498.1C1005 1499.5 993.9 1491 992.2 1478.7C998.6 1470.3 1005.1 1461.9 1011.6 1453.6Z" stroke="#9451EB" stroke-width="3" stroke-miterlimit="10"/>
<path d="M801.4 1640.4C796 1635 794.9 1631.8 796 1624.2C803.6 1625.3 806.8 1624.2 812.2 1618.8C817.6 1624.2 818.7 1627.4 817.6 1635C810 1633.9 806.7 1635 801.4 1640.4Z" fill="#02E2AC"/>
<path d="M715.1 1463.4C719.5 1452.6 723.5 1449.1 734.8 1446.2C737.8 1457.5 741.2 1461.5 752 1465.9C747.6 1476.7 743.6 1480.2 732.3 1483.1C729.4 1471.7 725.9 1467.8 715.1 1463.4Z" fill="#EBBB51"/>
<path d="M938.5 1617.3C950.8 1617.7 960.5 1609.4 972.8 1609.8C971 1620.5 969.2 1631.2 967.5 1641.9C955.2 1641.5 945.5 1649.8 933.2 1649.4C935 1638.7 936.8 1628 938.5 1617.3Z" stroke="#EBBB51" stroke-width="3" stroke-miterlimit="10"/>
<path d="M217.8 1452.6C216.8 1438.5 217.9 1434.2 225.4 1422.3C237.4 1429.8 241.6 1430.9 255.7 1429.9C256.7 1444 255.6 1448.3 248.1 1460.2C236.1 1452.7 231.9 1451.7 217.8 1452.6Z" stroke="#02E2AC" stroke-width="3" stroke-miterlimit="10"/>
<path d="M245.6 523.7C235.5 528.2 230.4 537.6 220.3 542.1C217.9 532.7 215.6 523.3 213.2 514C223.3 509.5 228.4 500.1 238.5 495.6C240.8 504.9 243.2 514.3 245.6 523.7Z" fill="#9451EB"/>
<path d="M903.3 1378.5C910.4 1367.7 907.6 1353.4 897 1346C907.8 1343.9 918.7 1341.8 929.5 1339.7C940.1 1347.1 942.9 1361.3 935.8 1372.2C924.9 1374.3 914.1 1376.4 903.3 1378.5Z" stroke="#9451EB" stroke-width="3" stroke-miterlimit="10"/>
<path d="M742.8 1322.9C736.7 1316.6 730.4 1316.4 724 1322.6C724.1 1315.1 724.2 1311.3 724.3 1303.8C730.6 1297.7 737 1297.8 743.1 1304.1C743 1311.6 742.9 1315.3 742.8 1322.9Z" fill="#02E2AC"/>
<path d="M692.7 1725.6C686.6 1719.3 680.3 1719.1 673.9 1725.3C674 1717.8 674.1 1714 674.2 1706.5C680.5 1700.4 686.9 1700.5 693 1706.8C692.9 1714.4 692.9 1718.1 692.7 1725.6Z" stroke="#110F4C" stroke-width="3" stroke-miterlimit="10"/>
<path d="M175.8 1169.3C176.7 1178.5 186.6 1186.2 195.7 1184.8C189.5 1192.7 186.4 1196.7 180.2 1204.7C171.1 1206.1 161.2 1198.4 160.3 1189.2C166.5 1181.2 169.6 1177.3 175.8 1169.3Z" fill="#9451EB"/>
<path d="M84.8 1320.1C83.7 1329 91.4 1338.4 100.3 1339.1C92.7 1345.3 88.9 1348.4 81.3 1354.6C72.3 1354 64.6 1344.5 65.8 1335.6C73.4 1329.4 77.2 1326.3 84.8 1320.1Z" fill="#EBBB51"/>
<path d="M969.2 1003.3C966.4 994.9 960.7 992.1 952.3 994.8C955.7 988.1 957.4 984.7 960.8 977.9C969.2 975.1 974.9 978 977.7 986.4C974.3 993.2 972.6 996.6 969.2 1003.3Z" fill="#02E2AC"/>
<path d="M890.8 1156.1C884.1 1157.2 881.1 1156.3 876.2 1151.6C880.9 1146.6 881.8 1143.7 880.7 1137C887.4 1135.9 890.4 1136.8 895.3 1141.5C890.6 1146.4 889.7 1149.4 890.8 1156.1Z" fill="#EBBB51"/>
<path d="M933.3 344C932.7 329.6 933.9 325.3 942 313.3C954 321.3 958.3 322.5 972.7 322C973.3 336.4 972.1 340.7 964 352.7C952.1 344.6 947.7 343.4 933.3 344Z" fill="#9451EB"/>
<path d="M299.3 1147.3C290.6 1141.4 283.1 1142.8 277.2 1151.5C275.5 1142.7 274.7 1138.2 273 1129.4C278.9 1120.7 286.4 1119.3 295.1 1125.2C296.8 1134.1 297.6 1138.5 299.3 1147.3Z" fill="#02E2AC"/>
<path d="M100.2 1067.9C84.7 1067.9 78.6 1064.8 69.3 1052.4C81.7 1043.1 84.8 1037 84.8 1021.5C100.3 1021.5 106.4 1024.6 115.7 1037C103.3 1046.2 100.2 1052.4 100.2 1067.9Z" stroke="#9451EB" stroke-width="3" stroke-miterlimit="10"/>
<path d="M1038.8 816.4C1040.3 830.2 1039.4 834.4 1032.5 846.5C1020.5 839.6 1016.2 838.7 1002.4 840.2C1000.9 826.4 1001.8 822.2 1008.7 810.1C1020.7 817 1025 817.9 1038.8 816.4Z" fill="#9451EB"/>
<path d="M826.1 1023.9C825.1 1018.2 818.9 1016.4 817.8 1010.8C823.5 1009.8 826.3 1009.2 832 1008.2C833 1013.9 839.2 1015.7 840.3 1021.3C834.6 1022.3 831.8 1022.8 826.1 1023.9Z" fill="#9451EB"/>
<path d="M535.5 795.6C534.1 804.7 541.8 814.5 551 815.3C543.1 821.5 539.2 824.6 531.3 830.8C522.2 830 514.5 820.2 515.8 811.1C523.7 804.9 527.7 801.8 535.5 795.6Z" fill="#EBBB51"/>
<path d="M886.5 530.6C874 530.9 864.6 539.7 852 540C853.3 529 854.5 518 855.8 507.1C868.3 506.8 877.7 498 890.3 497.7C889 508.6 887.8 519.6 886.5 530.6Z" fill="#02E2AC"/>
<path d="M378.2 1757.4C365.7 1757.7 356.3 1766.5 343.7 1766.8C345 1755.8 346.2 1744.8 347.5 1733.9C360 1733.6 369.4 1724.8 382 1724.5C380.7 1735.5 379.5 1746.5 378.2 1757.4Z" fill="#110F4C"/>
<path d="M113.2 871.3C110.8 860.9 111.9 856.2 118.8 848C127 854.9 131.7 856 142.1 853.6C144.5 864 143.4 868.7 136.5 876.9C128.3 870 123.6 868.8 113.2 871.3Z" fill="#9451EB"/>
<path d="M919.3 659.5C932.3 651.7 934 648.7 934.1 633.5C942.8 638.4 951.4 643.4 960.1 648.3C960 663.5 958.3 666.4 945.3 674.3C936.6 669.4 927.9 664.4 919.3 659.5Z" fill="#02E2AC"/>
<path d="M756.5 1870.6C769.5 1862.8 771.2 1859.8 771.3 1844.6C780 1849.5 788.6 1854.5 797.3 1859.4C797.2 1874.6 795.5 1877.5 782.5 1885.4C773.9 1880.5 765.2 1875.6 756.5 1870.6Z" fill="#110F4C"/>
<path d="M765.6 857.9C759.4 848.2 758.8 843.1 762.8 832.4C773.6 836.4 778.7 835.8 788.3 829.6C794.5 839.3 795.1 844.4 791.1 855.1C780.3 851.1 775.2 851.7 765.6 857.9Z" fill="#9451EB"/>
<path d="M644.8 1798.4C638.6 1788.7 638 1783.6 642 1772.9C652.8 1776.9 657.9 1776.3 667.5 1770.1C673.7 1779.8 674.3 1784.9 670.3 1795.6C659.6 1791.6 654.5 1792.2 644.8 1798.4Z" fill="#110F4C"/>
<path d="M223.9 399.6C222.5 406 228.2 410.7 226.8 417.1C220.4 415.7 217.1 415 210.7 413.5C212.1 407.1 206.4 402.4 207.8 396C214.3 397.5 217.5 398.2 223.9 399.6Z" fill="#EBBB51"/>
<path d="M216.9 700.3C207.7 700.9 196.7 695.4 191.6 687.8C199.2 682.7 204.7 671.7 204.1 662.5C213.3 661.9 224.3 667.4 229.4 675C221.7 680.1 216.3 691.1 216.9 700.3Z" fill="#EBBB51"/>
<path d="M90.7 668.9C86.9 681 93.3 693.7 105.3 697.8C95.7 702.7 86 707.5 76.4 712.4C64.4 708.2 58 695.6 61.8 683.5C71.4 678.6 81.1 673.7 90.7 668.9Z" stroke="#9451EB" stroke-width="3" stroke-miterlimit="10"/>
<path d="M884.9 908C880.4 894.9 881.2 888.7 889 877.2C900.5 885 906.6 885.8 919.8 881.3C924.3 894.4 923.5 900.6 915.7 912.1C904.2 904.3 898 903.5 884.9 908Z" stroke="#EBBB51" stroke-width="3" stroke-miterlimit="10"/>
<path d="M982.3 506C985.1 497.6 978 490.5 980.8 482.1C989.2 484.9 993.5 486.3 1001.9 489.1C999.1 497.5 1006.2 504.6 1003.4 513C995 510.2 990.8 508.8 982.3 506Z" stroke="#02E2AC" stroke-width="3" stroke-miterlimit="10"/>
<path d="M743.1 434.3C749 443.5 756.7 445.2 765.9 439.3C763.9 448.4 762.9 453 760.9 462.1C751.7 468 744 466.3 738.1 457.1C740.1 448 741.1 443.5 743.1 434.3Z" stroke="#EBBB51" stroke-width="3" stroke-miterlimit="10"/>
<path d="M506.5 587.6C497.8 587.7 494.3 586 488.9 579.1C495.8 573.8 497.5 570.3 497.4 561.5C506.1 561.4 509.6 563.1 515 570C508.1 575.4 506.4 578.9 506.5 587.6Z" fill="#9451EB"/>
<path d="M379.9 422.4C369.9 423.9 362 435.2 364.1 445.2C355 438.9 350.4 435.7 341.3 429.4C339.2 419.5 347.1 408.2 357.1 406.6C366.3 412.9 370.8 416.1 379.9 422.4Z" stroke="#02E2AC" stroke-width="3" stroke-miterlimit="10"/>
<path d="M87.5 471.8C89.8 464 83.1 457.8 85.3 449.9C93.1 452.2 97.1 453.3 104.9 455.6C102.6 463.4 109.3 469.6 107.1 477.5C99.3 475.2 95.4 474.1 87.5 471.8Z" fill="#02E2AC"/>
<path d="M843.2 235.7C849 226.7 853.2 224.3 863.8 223.6C864.5 234.3 866.9 238.4 875.9 244.2C870.1 253.2 865.9 255.6 855.3 256.3C854.6 245.7 852.1 241.5 843.2 235.7Z" stroke="#02E2AC" stroke-width="3" stroke-miterlimit="10"/>
<path d="M692.5 268.7C702.7 267.1 709.6 259.8 719.8 258.2C719.7 269.1 719.6 274.5 719.4 285.4C709.2 287 702.3 294.3 692.1 295.9C692.3 285 692.3 279.6 692.5 268.7Z" stroke="#9451EB" stroke-width="3" stroke-miterlimit="10"/>
<path d="M680.6 173.7C680.7 180.8 679.3 183.7 673.6 188C669.3 182.4 666.4 181 659.3 181C659.2 173.9 660.6 171 666.3 166.7C670.7 172.4 673.5 173.8 680.6 173.7Z" fill="#EBBB51"/>
<path d="M240.6 212.6C240.8 222.4 250.8 227.1 251 236.9C241.2 237.1 236.3 237.2 226.4 237.5C226.2 227.7 216.2 223 216 213.2C225.8 212.9 230.7 212.8 240.6 212.6Z" fill="#9451EB"/>
<path d="M31.8 215.8C32.6 224.3 31.3 227.9 25 233.7C19.2 227.4 15.6 226 7.09999 226.9C6.29999 218.4 7.59999 214.8 13.9 209C19.7 215.3 23.3 216.6 31.8 215.8Z" fill="#9451EB"/>
<path d="M992.6 99.2C986 86.4 985.3 82 987.5 67.7C1001.7 69.9 1006.2 69.2 1019 62.6C1025.6 75.4 1026.3 79.8 1024.1 94.1C1009.8 91.9 1005.4 92.6 992.6 99.2Z" fill="#9451EB"/>
<path d="M812.1 122.4C820.2 117 822.4 104 816.6 96.3C827.1 98.1 832.3 99 842.7 100.8C848.5 108.6 846.3 121.6 838.2 126.9C827.8 125.1 822.6 124.2 812.1 122.4Z" fill="#02E2AC"/>
<path d="M540.7 151.1C533.9 148.3 531.7 145.8 529.8 138.7C537 136.8 539.4 134.7 542.2 127.8C549 130.6 551.2 133.1 553.1 140.2C545.9 142.1 543.5 144.2 540.7 151.1Z" fill="#9451EB"/>
<path d="M362.3 84.6C353.1 91 351.7 98.9 358.1 108.1C348.7 106.4 344 105.6 334.6 103.9C328.2 94.7 329.6 86.8 338.8 80.4C348.2 82 352.9 82.9 362.3 84.6Z" fill="#02E2AC"/>
<path d="M159 123.1C152 128.8 140.1 130.7 131.7 127.5C134.9 119.1 133 107.2 127.3 100.2C134.3 94.5 146.2 92.6 154.6 95.8C151.5 104.1 153.4 116.1 159 123.1Z" stroke="#EBBB51" stroke-width="3" stroke-miterlimit="10"/>
<path d="M265.3 1857.2C268.1 1848.8 261 1841.7 263.8 1833.3C272.2 1836.1 276.5 1837.5 284.9 1840.3C282.1 1848.7 289.2 1855.8 286.4 1864.2C278 1861.4 273.7 1860 265.3 1857.2Z" stroke="#110F4C" stroke-width="3" stroke-miterlimit="10"/>
</svg>
