<?xml version="1.0" standalone="no"?>
<!DOCTYPE svg PUBLIC "-//W3C//DTD SVG 20010904//EN"
 "http://www.w3.org/TR/2001/REC-SVG-20010904/DTD/svg10.dtd">
<svg version="1.0" xmlns="http://www.w3.org/2000/svg"
 width="620.000000pt" height="620.000000pt" viewBox="0 0 620.000000 620.000000"
 preserveAspectRatio="xMidYMid meet">
<metadata>
Created by potrace 1.11, written by Peter Selinger 2001-2013
</metadata>
<g transform="translate(0.000000,620.000000) scale(0.100000,-0.100000)"
fill="#000000" stroke="none">
<path d="M2758 6195 c-2 -2 -32 -6 -68 -9 -36 -4 -86 -8 -111 -10 -26 -3 -74
-10 -108 -16 -34 -6 -77 -13 -96 -15 -19 -3 -83 -16 -142 -31 -59 -14 -115
-27 -123 -29 -26 -5 -214 -66 -235 -75 -11 -5 -55 -23 -97 -39 -99 -39 -368
-171 -428 -211 -162 -106 -243 -161 -256 -174 -8 -9 -18 -16 -22 -16 -4 0 -21
-13 -39 -28 -17 -15 -51 -43 -75 -62 -44 -36 -258 -248 -314 -310 -17 -19 -58
-71 -93 -115 -34 -44 -69 -88 -77 -98 -8 -9 -14 -21 -14 -26 0 -5 -3 -11 -7
-13 -11 -5 -73 -97 -73 -108 0 -6 -4 -10 -9 -10 -5 0 -13 -9 -16 -20 -3 -11
-12 -26 -18 -33 -35 -38 -219 -424 -230 -481 -2 -8 48 -13 56 -6 1 2 13 4 27
5 14 1 43 5 65 8 22 4 60 9 85 12 25 3 74 10 110 15 36 6 79 12 95 14 128 16
170 23 170 26 0 1 16 3 35 5 19 2 51 6 70 9 19 3 58 8 85 11 28 4 57 8 65 10
8 2 35 7 60 10 25 3 56 8 70 10 14 2 45 7 70 10 25 4 56 8 70 10 14 2 43 7 65
9 22 3 49 7 60 10 11 2 45 7 75 11 30 4 62 8 70 10 8 1 38 6 65 10 28 4 59 9
70 11 11 2 38 6 60 9 39 6 206 32 255 40 58 10 177 27 205 30 17 2 37 5 45 8
8 3 35 8 60 11 106 15 149 21 200 30 14 3 76 12 138 21 62 9 121 18 131 20
261 50 557 13 829 -104 114 -49 211 -105 312 -180 79 -59 232 -206 291 -281
171 -214 298 -523 326 -790 9 -87 9 -305 -1 -370 -4 -25 -9 -58 -11 -75 -9
-67 -42 -197 -62 -245 -4 -8 -7 -17 -8 -20 -13 -53 -92 -217 -141 -296 -37
-59 -138 -194 -146 -194 -4 0 -8 -4 -8 -9 0 -13 -110 -121 -195 -191 -110 -90
-350 -227 -420 -240 -5 -1 -25 -8 -44 -16 -30 -12 -164 -50 -211 -59 -24 -4
-92 -15 -135 -20 -56 -8 -263 -7 -275 0 -6 4 -31 8 -56 10 -25 3 -71 9 -102
14 -31 6 -73 12 -92 15 -98 13 -137 19 -155 23 -24 5 -68 12 -110 18 -16 2
-57 9 -90 15 -33 5 -80 12 -105 15 -25 3 -58 8 -75 11 -16 4 -41 8 -55 10 -14
2 -36 5 -50 7 -14 2 -52 8 -85 13 -33 4 -62 9 -65 9 -3 1 -27 5 -55 9 -27 4
-61 10 -75 12 -14 2 -38 6 -55 9 -16 2 -48 7 -70 10 -22 4 -56 8 -75 11 -19 3
-64 9 -100 15 -79 13 -92 15 -155 23 -27 4 -75 11 -105 16 -54 9 -71 12 -175
25 -27 3 -72 10 -100 15 -27 5 -70 12 -95 15 -25 3 -58 8 -74 10 -15 3 -49 8
-75 10 -25 2 -48 5 -51 6 -9 3 -101 16 -175 25 -22 3 -47 7 -55 9 -8 2 -35 6
-60 9 -25 3 -65 8 -89 11 -24 3 -48 8 -52 11 -12 7 -11 2 8 -42 9 -22 17 -41
18 -44 1 -11 62 -151 98 -225 41 -85 156 -278 169 -283 4 -2 8 -9 8 -15 0 -7
9 -23 20 -37 11 -14 53 -68 92 -121 169 -223 421 -469 623 -606 39 -27 72 -50
75 -54 3 -3 23 -16 45 -29 22 -13 42 -26 45 -29 15 -17 408 -221 425 -221 3 0
25 -8 48 -19 117 -52 361 -131 478 -155 13 -3 35 -8 49 -11 23 -5 71 -15 160
-31 19 -3 49 -8 65 -9 17 -2 44 -5 60 -8 118 -21 599 -30 710 -14 28 4 73 9
100 12 71 6 118 13 170 25 25 6 61 12 81 15 19 2 79 16 132 30 53 15 107 28
118 31 36 7 248 82 309 109 32 14 64 25 71 25 8 0 14 5 14 10 0 6 6 10 14 10
20 0 328 157 338 173 4 6 8 9 8 5 0 -19 289 187 409 291 80 70 233 222 286
286 22 26 45 53 51 59 25 26 154 207 154 215 0 5 4 11 8 13 9 4 92 134 92 144
0 4 6 15 14 23 34 39 146 264 222 446 17 41 73 215 79 243 2 12 6 26 9 30 3 5
7 19 10 33 2 13 14 62 25 109 23 95 24 102 46 249 25 166 30 250 30 496 0 286
-7 362 -59 670 -2 11 -9 38 -15 60 -6 22 -12 49 -14 60 -15 84 -98 342 -128
397 -5 10 -9 22 -9 28 0 31 -231 469 -252 478 -5 2 -8 8 -8 13 0 12 -101 163
-112 167 -4 2 -8 8 -8 13 0 10 -121 167 -180 233 -51 57 -230 239 -230 233 0
-2 -17 12 -37 31 -21 20 -72 62 -113 94 -41 32 -80 62 -86 67 -5 4 -21 14 -35
21 -13 7 -26 16 -29 20 -8 10 -98 70 -105 70 -4 0 -19 9 -33 19 -58 41 -200
115 -342 179 -81 36 -243 94 -345 123 -119 35 -283 72 -370 84 -22 3 -51 8
-65 10 -14 2 -56 7 -94 10 -38 4 -79 9 -90 12 -23 6 -573 13 -578 8z"/>
<path d="M2719 4036 c-2 -2 -24 -6 -49 -9 -70 -9 -208 -55 -280 -94 -256 -140
-422 -369 -477 -660 -9 -47 -10 -255 -1 -303 14 -84 31 -138 69 -225 7 -16 12
-33 11 -37 -1 -5 3 -8 8 -8 6 0 10 -5 10 -11 0 -18 87 -141 140 -197 50 -53
190 -168 190 -155 0 3 8 -1 18 -10 54 -48 267 -116 387 -122 44 -2 82 -5 85
-6 3 -1 8 -1 11 -1 3 1 37 4 75 8 37 3 79 10 91 15 13 5 23 6 23 4 0 -3 16 1
35 9 19 8 35 13 35 11 0 -3 25 6 55 20 30 13 55 21 55 17 0 -4 4 -2 8 3 4 6
27 21 52 34 63 34 145 96 194 146 63 64 96 104 96 114 0 5 4 11 9 13 19 7 98
160 126 244 30 93 43 195 40 314 -4 122 -4 123 -31 222 -25 92 -90 225 -139
285 -5 7 -16 19 -22 27 -7 8 -13 18 -13 21 0 12 -109 114 -166 156 -96 71
-227 132 -334 155 -19 4 -42 9 -50 11 -21 5 -257 13 -261 9z"/>
</g>
</svg>
