<svg width="115" height="34" viewBox="0 0 115 34" fill="none" xmlns="http://www.w3.org/2000/svg">
<path d="M24.4631 10.7464C24.1397 10.7054 23.8164 10.6849 23.4829 10.6849C23.1091 10.6849 22.7352 10.7156 22.3714 10.7669C19.714 11.1257 17.4606 12.7559 16.2178 15.0421C16.0056 15.4317 15.8237 15.8521 15.6721 16.2724C14.3687 14.4578 12.368 13.1865 10.0641 12.8789C9.70037 12.8276 9.3265 12.7969 8.95263 12.7969C8.61918 12.7969 8.29584 12.8174 7.97249 12.8584C7.93207 13.1865 7.91187 13.5145 7.91187 13.8529C7.91187 14.2322 7.94218 14.6115 7.9927 14.9806C8.48782 18.733 11.4181 21.696 15.1063 22.1983C15.1265 22.1983 15.1568 22.2086 15.177 22.2086V29.6518H17.2586V20.1068C17.2788 20.1068 17.3091 20.0966 17.3293 20.0966C21.0275 19.5942 23.9478 16.621 24.4429 12.8789C24.4934 12.5098 24.5237 12.1305 24.5237 11.7511C24.5237 11.4025 24.5035 11.0745 24.4631 10.7464Z" fill="white"/>
<path d="M9.63979 6.08156C9.91262 6.35838 10.337 6.41989 10.6907 6.23535C12.3276 5.35364 14.207 4.85127 16.1875 4.85127C17.8952 4.85127 19.522 5.23061 20.9973 5.89702C21.3307 6.0508 21.7248 5.97904 21.9875 5.71247L23.9781 3.69275C24.4025 3.26215 24.2914 2.54448 23.7659 2.25741C21.5025 1.04763 18.9259 0.350464 16.1875 0.350464C13.1461 0.350464 10.2966 1.21167 7.8614 2.69827C7.36627 3.00584 7.28544 3.69275 7.68962 4.1131L9.63979 6.08156Z" fill="white"/>
<path d="M28.6767 8.16278L26.7265 10.1415C26.4537 10.4183 26.393 10.8489 26.5749 11.2077C27.4439 12.8686 27.939 14.7756 27.939 16.7851C27.939 18.7945 27.4439 20.7015 26.5749 22.3624C26.393 22.711 26.4537 23.1416 26.7265 23.4286L28.6767 25.4073C29.0808 25.8174 29.7679 25.7354 30.0711 25.233C31.5362 22.7622 32.385 19.8813 32.385 16.7953C32.385 13.7093 31.5362 10.8182 30.0711 8.35758C29.7679 7.8347 29.0808 7.74243 28.6767 8.16278Z" fill="white"/>
<path d="M21.9875 27.8372C21.7248 27.5706 21.3307 27.4988 20.9973 27.6526C19.5321 28.319 17.9053 28.6984 16.1875 28.6984C14.207 28.6984 12.3276 28.196 10.6907 27.3143C10.3471 27.1297 9.92272 27.1913 9.63979 27.4681L7.68962 29.4468C7.28544 29.8569 7.36627 30.5541 7.8614 30.8616C10.2966 32.3482 13.136 33.2094 16.1875 33.2094C18.9259 33.2094 21.5025 32.5123 23.7659 31.2922C24.2914 31.0052 24.4025 30.2875 23.9781 29.8569L21.9875 27.8372Z" fill="white"/>
<path d="M5.28467 22.6596C5.54739 22.3931 5.61812 21.9932 5.46655 21.6549C4.80976 20.1683 4.43589 18.5177 4.43589 16.7748C4.43589 15.0319 4.80976 13.3915 5.46655 11.8946C5.61812 11.5563 5.54739 11.1564 5.28467 10.8899L3.30418 8.88041C2.87979 8.44981 2.17247 8.56259 1.88955 9.09572C0.687108 11.382 0 13.9964 0 16.7748C0 19.5532 0.687108 22.1675 1.88955 24.4641C2.17247 24.9972 2.87979 25.11 3.30418 24.6794L5.28467 22.6596Z" fill="white"/>
<path d="M48.8756 16.8465C47.9965 16.0264 46.7435 15.524 45.1571 15.3702C43.8739 15.2369 42.9847 14.9704 42.5199 14.5705C42.0753 14.1912 41.853 13.7401 41.853 13.1762C41.853 12.5918 42.0854 12.1509 42.5704 11.8434C43.1059 11.505 43.8233 11.3307 44.7024 11.3307C45.4199 11.3307 46.0059 11.464 46.4606 11.7306C46.9153 11.9972 47.2993 12.397 47.6024 12.8994C47.7237 13.1249 47.8955 13.2992 48.1178 13.4325C48.33 13.5555 48.5725 13.6273 48.8251 13.6273C49.0777 13.6273 49.3101 13.5658 49.5223 13.4325C49.8659 13.1864 50.0477 12.8481 50.0477 12.4483C50.0477 12.1612 49.9568 11.8639 49.7648 11.5666C49.2192 10.6951 48.5422 10.0082 47.7641 9.53658C46.9659 9.05471 45.9857 8.81891 44.8439 8.81891C43.8132 8.81891 42.8634 8.98295 42.0247 9.31102C41.1658 9.64935 40.4787 10.1415 39.9836 10.7874C39.4784 11.4435 39.2157 12.233 39.2157 13.1249C39.2157 14.386 39.7108 15.4625 40.6808 16.3032C41.6307 17.1234 42.9341 17.6155 44.5509 17.7795C45.6017 17.882 46.3798 18.1691 46.8749 18.6305C47.3599 19.0816 47.5923 19.6044 47.5923 20.2401C47.5923 20.886 47.3195 21.3781 46.7638 21.7575C46.1676 22.1573 45.43 22.3623 44.561 22.3623C43.8132 22.3623 43.1261 22.1983 42.5098 21.8805C41.9136 21.5729 41.5195 21.2038 41.3275 20.7937C41.2164 20.5272 41.0345 20.3119 40.792 20.1478C40.5495 19.9838 40.2969 19.912 40.024 19.912C39.9129 19.912 39.8219 19.9223 39.7512 19.9428C39.4481 20.0145 39.2056 20.1478 39.0136 20.3426C38.8115 20.5579 38.7104 20.8142 38.7104 21.1013C38.7104 21.2551 38.7509 21.4191 38.8317 21.6242C39.2359 22.5981 39.9836 23.3978 41.0547 24.0027C42.1056 24.5871 43.2777 24.8947 44.561 24.8947C45.531 24.8947 46.4606 24.7204 47.3094 24.3821C48.1784 24.0335 48.8857 23.5004 49.4111 22.7929C49.9467 22.0753 50.2195 21.2038 50.2195 20.2093C50.2397 18.8048 49.785 17.6872 48.8756 16.8465Z" fill="white"/>
<path d="M62.7289 12.8583C62.4763 12.602 62.1428 12.4687 61.7386 12.4687C61.3547 12.4687 61.0212 12.602 60.7585 12.8583C60.4958 13.1147 60.3644 13.453 60.3644 13.8631V19.7787C60.3644 20.2196 60.2533 20.6092 60.0209 20.9577C59.7885 21.3166 59.455 21.6036 59.0306 21.8087C58.6062 22.024 58.1212 22.1265 57.5958 22.1265C56.6763 22.1265 55.9689 21.8702 55.4334 21.3473C54.8979 20.8347 54.6351 20.0453 54.6351 19.0098V13.8528C54.6351 13.453 54.5038 13.1249 54.2411 12.8583C53.9784 12.5918 53.655 12.4585 53.2609 12.4585C52.8669 12.4585 52.5435 12.5918 52.2808 12.8583C52.0181 13.1249 51.8867 13.453 51.8867 13.8528V19.0098C51.8867 20.1888 52.1191 21.2243 52.5637 22.065C53.0184 22.916 53.655 23.5824 54.4735 24.0335C55.2717 24.4743 56.1912 24.6999 57.1916 24.6999C57.9191 24.6999 58.6062 24.5666 59.2529 24.3103C59.6874 24.136 60.0815 23.9104 60.4452 23.6336C60.5059 23.8489 60.617 24.0335 60.7787 24.1975C61.0414 24.4641 61.3648 24.5973 61.7588 24.5973C62.163 24.5973 62.4965 24.4641 62.7491 24.1975C63.0017 23.9309 63.133 23.6029 63.133 23.203V13.8528C63.1027 13.453 62.9815 13.1147 62.7289 12.8583Z" fill="white"/>
<path d="M73.7833 18.5689C73.1063 17.9845 72.015 17.5437 70.4488 17.2156C69.7415 17.0618 69.1958 16.9183 68.8321 16.7645C68.4178 16.5902 68.2561 16.4467 68.1854 16.3442C68.0843 16.2109 68.0439 16.0468 68.0439 15.8315C68.0439 15.6675 68.0944 15.4214 68.4784 15.2061C68.8321 15.0113 69.307 14.9191 69.8931 14.9191C70.4084 14.9191 70.8429 14.9806 71.1965 15.1036C71.5401 15.2164 71.8634 15.4317 72.1767 15.7188C72.5202 16.0366 72.9244 16.2006 73.3589 16.2006C73.6621 16.2006 73.9147 16.1186 74.137 15.9546C74.4502 15.6982 74.6018 15.3907 74.6018 15.0523C74.6018 14.755 74.4906 14.4577 74.2582 14.1809C73.8136 13.6273 73.2073 13.1864 72.4495 12.8686C71.7018 12.561 70.853 12.4072 69.9234 12.4072C69.1554 12.4072 68.4279 12.5303 67.7509 12.7866C67.0537 13.0429 66.4777 13.4325 66.0432 13.9451C65.5986 14.4782 65.3662 15.1344 65.3662 15.893C65.3662 17.759 66.791 18.979 69.5899 19.5224C70.56 19.7069 71.2572 19.9325 71.6411 20.1991C71.9746 20.4246 72.1363 20.6912 72.1363 21.009C72.1363 21.3371 71.9746 21.5934 71.6411 21.7984C71.2572 22.0342 70.7014 22.147 69.9739 22.147C69.4282 22.147 68.9028 22.0445 68.4178 21.8497C67.9429 21.6549 67.5892 21.4191 67.3467 21.1525C66.791 20.5886 66.1342 20.5066 65.4167 21.0398C65.0631 21.3063 64.8711 21.6857 64.8711 22.1163C64.8711 22.4546 64.9923 22.7519 65.2349 22.998C65.73 23.5003 66.4272 23.9207 67.2962 24.2282C68.1551 24.5358 69.0746 24.6896 70.0446 24.6896C71.0248 24.6896 71.8735 24.5256 72.5809 24.2077C73.2983 23.8797 73.854 23.4286 74.238 22.8544C74.6119 22.2803 74.8039 21.6241 74.8039 20.927C74.8342 19.9632 74.4805 19.1738 73.7833 18.5689Z" fill="white"/>
<path d="M82.948 22.2599C82.7156 21.9933 82.4125 21.86 82.079 21.86H81.3717C81.0282 21.86 80.7452 21.7165 80.5027 21.4089C80.2501 21.0911 80.1188 20.6913 80.1188 20.2094V15.36H81.5536C81.9275 15.36 82.2306 15.2472 82.4731 15.0217C82.7156 14.7961 82.847 14.4988 82.847 14.1502C82.847 13.7811 82.7257 13.4736 82.4731 13.2378C82.2306 13.0122 81.9275 12.8994 81.5536 12.8994H80.1289V10.2133C80.1289 9.82371 79.9975 9.48538 79.7449 9.22907C79.4923 8.97276 79.1689 8.83948 78.7748 8.83948C78.3808 8.83948 78.0574 8.97276 77.8048 9.22907C77.5522 9.48538 77.4208 9.81346 77.4208 10.2133V12.9097H76.7944C76.4205 12.9097 76.1174 13.0225 75.8748 13.248C75.6323 13.4838 75.501 13.7811 75.501 14.1605C75.501 14.4988 75.6323 14.7961 75.8748 15.0319C76.1174 15.2575 76.4205 15.3703 76.7944 15.3703H77.4208V20.2197C77.4208 21.0399 77.5926 21.7883 77.9362 22.4444C78.2797 23.1108 78.7546 23.644 79.3609 24.0233C79.9672 24.4129 80.6442 24.6077 81.3818 24.6077H81.7557C82.1902 24.6077 82.5539 24.4847 82.8369 24.2386C83.1299 23.9823 83.2916 23.6337 83.2916 23.2339C83.2916 22.8443 83.1703 22.5162 82.948 22.2599Z" fill="white"/>
<path d="M100.843 9.34185C100.51 9.00352 100.116 8.83948 99.661 8.83948C99.2063 8.83948 98.8021 9.01377 98.4788 9.34185C98.1453 9.68017 97.9836 10.08 97.9836 10.5414C97.9836 11.0027 98.1554 11.4128 98.4788 11.7409C98.8122 12.0792 99.2063 12.2433 99.661 12.2433C100.116 12.2433 100.52 12.069 100.843 11.7409C101.177 11.4026 101.338 11.0027 101.338 10.5414C101.338 10.0903 101.177 9.68017 100.843 9.34185Z" fill="white"/>
<path d="M99.6608 13.4735C99.2769 13.4735 98.9434 13.6068 98.6807 13.8631C98.418 14.1194 98.2866 14.4577 98.2866 14.8678V23.2133C98.2866 23.6131 98.418 23.9412 98.6807 24.2078C98.9434 24.4743 99.2668 24.6076 99.6608 24.6076C100.065 24.6076 100.398 24.4743 100.651 24.2078C100.904 23.9412 101.025 23.6131 101.025 23.2133V14.8678C101.025 14.4577 100.894 14.1194 100.641 13.8631C100.398 13.6068 100.065 13.4735 99.6608 13.4735Z" fill="white"/>
<path d="M114.333 15.0216C113.878 14.1604 113.241 13.5042 112.423 13.0531C111.625 12.6123 110.705 12.3867 109.705 12.3867C108.977 12.3867 108.29 12.52 107.643 12.7763C107.209 12.9506 106.815 13.1762 106.461 13.453C106.401 13.2377 106.289 13.0429 106.138 12.8788C105.885 12.6225 105.552 12.4892 105.148 12.4892C104.764 12.4892 104.43 12.6225 104.168 12.8788C103.905 13.1351 103.773 13.4735 103.773 13.8836V23.2338C103.773 23.6336 103.905 23.9617 104.168 24.2283C104.43 24.4948 104.754 24.6281 105.148 24.6281C105.552 24.6281 105.885 24.4948 106.138 24.2283C106.391 23.9617 106.522 23.6336 106.522 23.2338V17.3181C106.522 16.8773 106.633 16.4877 106.865 16.1391C107.098 15.7803 107.431 15.4932 107.856 15.2882C108.28 15.0728 108.765 14.9601 109.29 14.9601C110.21 14.9601 110.917 15.2164 111.453 15.7393C111.988 16.2519 112.251 17.0413 112.251 18.0768V23.2338C112.251 23.6336 112.382 23.9617 112.645 24.2283C112.908 24.4948 113.231 24.6281 113.625 24.6281C114.019 24.6281 114.343 24.4948 114.605 24.2283C114.868 23.9617 115 23.6336 115 23.2338V18.0768C115.01 16.8978 114.777 15.8725 114.333 15.0216Z" fill="white"/>
<path d="M94.7503 12.4892C94.3663 12.4892 94.0329 12.6225 93.7701 12.8788C93.6186 13.0224 93.5074 13.2069 93.4468 13.4017C93.3558 13.3402 93.2548 13.2787 93.1639 13.2172C92.2545 12.684 91.2339 12.4072 90.1224 12.4072C89.0109 12.4072 87.9802 12.684 87.0607 13.2172C86.1412 13.7503 85.4036 14.4987 84.8882 15.4317C84.3628 16.3647 84.1001 17.4207 84.1001 18.5587C84.1001 19.6967 84.3426 20.7424 84.8276 21.6754C85.3126 22.6084 85.9896 23.3568 86.8485 23.8899C87.6973 24.423 88.6673 24.6896 89.7081 24.6896C90.5468 24.6896 91.345 24.5051 92.0827 24.1565C92.5576 23.9207 92.9921 23.6234 93.3862 23.2748C93.3963 23.6541 93.5276 23.9719 93.7802 24.2282C94.043 24.4948 94.3663 24.6281 94.7604 24.6281C95.1545 24.6281 95.4778 24.4948 95.7405 24.2282C96.0032 23.9617 96.1346 23.6336 96.1346 23.2338V19.6147V18.5587V13.8836C96.1346 13.4735 96.0032 13.1351 95.7506 12.8788C95.4879 12.6225 95.1545 12.4892 94.7503 12.4892ZM93.0224 20.4041C92.7395 20.9475 92.3353 21.3781 91.8301 21.6857C91.3248 21.9932 90.7489 22.1573 90.1224 22.1573C89.4959 22.1573 88.92 22.0035 88.4147 21.6857C87.9095 21.3781 87.5053 20.9475 87.2022 20.4041C86.9092 19.8607 86.7576 19.2456 86.7576 18.5587C86.7576 17.8718 86.9092 17.2566 87.2022 16.703C87.4952 16.1596 87.8994 15.7188 88.4046 15.4112C88.9099 15.1036 89.4858 14.9396 90.1123 14.9396C90.7388 14.9396 91.3147 15.0934 91.82 15.4112C92.3252 15.7188 92.7294 16.1596 93.0123 16.703C93.3053 17.2566 93.4468 17.882 93.4468 18.5587C93.467 19.2456 93.3154 19.8607 93.0224 20.4041Z" fill="white"/>
</svg>
