<svg width="156" height="13" viewBox="0 0 156 13" fill="none" xmlns="http://www.w3.org/2000/svg">
<g clip-path="url(#clip0)">
<path d="M15.0117 5.48926C14.3483 4.83441 13.5511 4.50713 12.6197 4.50713H3.38687C3.21539 4.50713 3.06828 4.44696 2.94524 4.32632C2.82219 4.20599 2.76082 4.05922 2.76082 3.88601V3.12966C2.76082 2.96435 2.82219 2.82123 2.94524 2.70059C3.06828 2.58025 3.21539 2.51978 3.38687 2.51978H15.2912C15.321 2.51978 15.345 2.51036 15.3636 2.49152C15.3823 2.47298 15.3917 2.45202 15.3917 2.42953V0.171428C15.3917 0.141344 15.3823 0.118857 15.3636 0.103664C15.345 0.0887737 15.3207 0.0811768 15.2912 0.0811768H3.38687C2.44794 0.0811768 1.64861 0.408755 0.989166 1.06361C0.329722 1.71846 0 2.50854 0 3.43445V3.58122C0 4.51473 0.329722 5.30876 0.989166 5.9636C1.64861 6.61846 2.44794 6.94574 3.38687 6.94574H12.6197C12.7836 6.94574 12.9271 7.00408 13.0499 7.12077C13.1729 7.23746 13.2343 7.3824 13.2343 7.55562V8.31198C13.2343 8.48516 13.1729 8.63011 13.0499 8.74683C12.9269 8.86348 12.7833 8.92181 12.6197 8.92181H0.70427C0.682007 8.92181 0.661249 8.93129 0.642898 8.95011C0.624245 8.96893 0.614919 8.99358 0.614919 9.02367V11.2818C0.614919 11.3042 0.624245 11.3252 0.642898 11.3437C0.66155 11.3626 0.682007 11.372 0.70427 11.372H12.6197C13.5511 11.372 14.3483 11.0429 15.0117 10.3841C15.6747 9.72558 16.0066 8.93338 16.0066 8.00751V7.86039C16.0063 6.93449 15.6747 6.14411 15.0117 5.48926Z" fill="white"/>
<path d="M35.056 0.0811768H32.4739C32.4516 0.0811768 32.4308 0.0887737 32.4125 0.103664C32.3939 0.118857 32.3846 0.141344 32.3846 0.171428V3.0391C32.3846 3.28737 32.2576 3.47578 32.0045 3.60371L26.8517 5.76001L21.6989 3.60371C21.4456 3.47578 21.319 3.28768 21.319 3.0391V0.171428C21.319 0.141344 21.3114 0.118857 21.2967 0.103664C21.2814 0.0887737 21.2591 0.0811768 21.2294 0.0811768H18.6472C18.625 0.0811768 18.6042 0.0887737 18.5859 0.103664C18.5672 0.118857 18.5579 0.141344 18.5579 0.171428V3.45694C18.5579 3.94648 18.6921 4.39409 18.9604 4.80037C19.2287 5.20696 19.5937 5.50779 20.0558 5.70349L25.4658 7.99534V11.2699C25.4658 11.3 25.4751 11.3246 25.4938 11.3434C25.5124 11.3623 25.5365 11.3717 25.5663 11.3717H28.1484C28.1706 11.3717 28.1911 11.3623 28.2098 11.3434C28.2285 11.3246 28.2378 11.3003 28.2378 11.2699V7.99564L33.6478 5.71504C34.1096 5.51174 34.4751 5.20878 34.7431 4.80615C35.0115 4.40351 35.1454 3.95772 35.1454 3.46818V0.171428C35.1454 0.141344 35.136 0.118857 35.1174 0.103664C35.0987 0.0887737 35.0783 0.0811768 35.056 0.0811768Z" fill="white"/>
<path d="M54.2353 0.0811768H51.6532C51.6234 0.0811768 51.6008 0.0905969 51.586 0.109437C51.571 0.128278 51.5638 0.148941 51.5638 0.171428V8.93279H50.4796C50.2783 8.93279 50.1069 8.8425 49.9654 8.6617L44.958 1.26659C44.4212 0.506603 43.6797 0.11126 42.7335 0.0811768H38.4191C38.3894 0.0811768 38.365 0.0905969 38.3464 0.109437C38.3277 0.128278 38.3184 0.148941 38.3184 0.171428V11.2812C38.3184 11.3036 38.3277 11.3246 38.3464 11.3431C38.365 11.362 38.3891 11.3714 38.4191 11.3714H41.0013C41.0235 11.3714 41.044 11.362 41.0626 11.3431C41.0813 11.3246 41.0907 11.3036 41.0907 11.2812V2.51978H42.1749C42.3761 2.51978 42.5473 2.61398 42.689 2.80209L47.6965 10.1972C48.2332 10.9575 48.9745 11.3489 49.9209 11.3714H54.2356C54.2653 11.3714 54.2877 11.362 54.3027 11.3431C54.3174 11.3246 54.3249 11.3036 54.3249 11.2812V0.171428C54.3249 0.148941 54.3174 0.128278 54.3027 0.109437C54.2873 0.0905969 54.265 0.0811768 54.2353 0.0811768Z" fill="white"/>
<path d="M72.898 0.0811768H57.0815C57.0518 0.0811768 57.0292 0.0905969 57.0144 0.109437C56.9994 0.128278 56.9922 0.148941 56.9922 0.171428V2.42953C56.9922 2.45202 56.9994 2.47298 57.0144 2.49152C57.0292 2.51036 57.0518 2.51978 57.0815 2.51978H63.6092V11.2812C63.6092 11.3036 63.6164 11.3246 63.6314 11.3431C63.6462 11.362 63.6688 11.3714 63.6986 11.3714H66.2807C66.3105 11.3714 66.3327 11.362 66.3478 11.3431C66.3625 11.3246 66.37 11.3036 66.37 11.2812V2.51978H72.8977C72.9275 2.51978 72.9516 2.51036 72.9702 2.49152C72.9888 2.47268 72.9982 2.45202 72.9982 2.42953V0.171428C72.9982 0.148941 72.9888 0.128278 72.9702 0.109437C72.9522 0.0905969 72.9278 0.0811768 72.898 0.0811768Z" fill="white"/>
<path d="M92.077 0.0811768H89.4945C89.4723 0.0811768 89.4516 0.0905969 89.4331 0.109437C89.4146 0.128278 89.4058 0.148941 89.4058 0.171428V4.50682H78.9434V0.171428C78.9434 0.148941 78.9338 0.128278 78.9153 0.109437C78.8968 0.0909008 78.8724 0.0811768 78.8429 0.0811768H76.2604C76.2382 0.0811768 76.2175 0.0905969 76.199 0.109437C76.1805 0.128278 76.1709 0.148941 76.1709 0.171428V11.2812C76.1709 11.3036 76.1805 11.3246 76.199 11.3431C76.2175 11.362 76.2382 11.3714 76.2604 11.3714H78.8429C78.8724 11.3714 78.8968 11.362 78.9153 11.3431C78.9338 11.3243 78.9434 11.3036 78.9434 11.2812V6.94574H89.4058V11.2812C89.4058 11.3036 89.4146 11.3246 89.4331 11.3431C89.4523 11.362 89.4723 11.3714 89.4945 11.3714H92.077C92.1066 11.3714 92.131 11.362 92.1495 11.3431C92.1679 11.3243 92.1776 11.3036 92.1776 11.2812V0.171428C92.1776 0.148941 92.1679 0.128278 92.1495 0.109437C92.131 0.0905969 92.1066 0.0811768 92.077 0.0811768Z" fill="white"/>
<path d="M111.188 0.0811768H98.6579C97.7263 0.0811768 96.9286 0.408451 96.2654 1.0633C95.6022 1.71816 95.271 2.50854 95.271 3.43445V8.00684C95.271 8.9404 95.6022 9.7344 96.2654 10.3893C96.9286 11.0441 97.7263 11.3717 98.6579 11.3717H111.188C111.21 11.3717 111.23 11.3623 111.25 11.3434C111.267 11.3246 111.277 11.3039 111.277 11.2815V9.02337C111.277 8.99328 111.268 8.9708 111.25 8.95556C111.23 8.9407 111.21 8.93309 111.188 8.93309H98.6579C98.4864 8.93309 98.3407 8.87289 98.2217 8.75259C98.1027 8.63228 98.0428 8.48912 98.0428 8.32348V6.94574H111.18C111.21 6.94574 111.232 6.93631 111.247 6.91748C111.261 6.89864 111.269 6.87797 111.269 6.85549V4.59738C111.269 4.5673 111.261 4.54481 111.247 4.52962C111.232 4.51473 111.21 4.50713 111.18 4.50713H98.0428V3.12966C98.0428 2.96405 98.1027 2.82123 98.2217 2.70059C98.3407 2.58025 98.4864 2.51978 98.6579 2.51978H111.188C111.21 2.51978 111.23 2.51036 111.25 2.49152C111.267 2.47298 111.277 2.45202 111.277 2.42953V0.171428C111.277 0.148941 111.268 0.128278 111.25 0.109437C111.23 0.0909008 111.21 0.0811768 111.188 0.0811768Z" fill="white"/>
<path d="M130.276 0.0811768H114.46C114.43 0.0811768 114.407 0.0905969 114.392 0.109437C114.378 0.128278 114.37 0.148941 114.37 0.171428V2.42953C114.37 2.45202 114.378 2.47298 114.392 2.49152C114.407 2.51036 114.43 2.51978 114.46 2.51978H120.987V11.2812C120.987 11.3036 120.995 11.3246 121.009 11.3431C121.025 11.362 121.047 11.3714 121.077 11.3714H123.658C123.689 11.3714 123.711 11.362 123.726 11.3431C123.74 11.3246 123.748 11.3036 123.748 11.2812V2.51978H130.275C130.306 2.51978 130.329 2.51036 130.348 2.49152C130.367 2.47268 130.376 2.45202 130.376 2.42953V0.171428C130.376 0.148941 130.367 0.128278 130.348 0.109437C130.33 0.0905969 130.306 0.0811768 130.276 0.0811768Z" fill="white"/>
<path d="M136.288 0.103664C136.272 0.0887737 136.25 0.0811768 136.221 0.0811768H133.639C133.608 0.0811768 133.586 0.0887737 133.571 0.103664C133.557 0.118857 133.549 0.141344 133.549 0.171428V11.2812C133.549 11.3036 133.557 11.3246 133.571 11.3431C133.586 11.362 133.608 11.3714 133.639 11.3714H136.221C136.25 11.3714 136.272 11.362 136.288 11.3431C136.303 11.3243 136.31 11.3036 136.31 11.2812V0.171428C136.31 0.141648 136.303 0.118857 136.288 0.103664Z" fill="white"/>
<path d="M143.417 2.82603C143.305 2.6981 143.167 2.63398 143.003 2.63398H139.65C139.62 2.63398 139.596 2.62456 139.577 2.60572C139.559 2.58719 139.549 2.56622 139.549 2.54373V0.285625C139.549 0.263138 139.559 0.242475 139.577 0.223634C139.596 0.205098 139.62 0.195374 139.65 0.195374H143.193C144.087 0.195374 144.858 0.560633 145.507 1.29054L146.367 2.34044L144.691 4.384L143.417 2.82603ZM149.608 1.2793C150.257 0.556683 151.032 0.195374 151.934 0.195374H155.466C155.496 0.195374 155.518 0.202971 155.533 0.21786C155.548 0.233055 155.555 0.255541 155.555 0.285625V2.54373C155.555 2.56622 155.548 2.58719 155.533 2.60572C155.518 2.62456 155.496 2.63398 155.466 2.63398H152.113C151.948 2.63398 151.811 2.6981 151.699 2.82603L149.228 5.82924L151.71 8.8549C151.822 8.97558 151.956 9.03577 152.113 9.03577H155.466C155.496 9.03577 155.518 9.04518 155.533 9.064C155.548 9.08282 155.555 9.10747 155.555 9.13726V11.3953C155.555 11.4178 155.548 11.4388 155.533 11.4573C155.518 11.4762 155.496 11.4856 155.466 11.4856H151.934C151.032 11.4856 150.261 11.1206 149.62 10.3904L147.563 7.88407L145.507 10.3904C144.858 11.1206 144.083 11.4856 143.182 11.4856H139.65C139.62 11.4856 139.597 11.4762 139.582 11.4573C139.568 11.4385 139.56 11.4142 139.56 11.3838V9.12569C139.56 9.10321 139.568 9.08252 139.582 9.0637C139.597 9.04489 139.62 9.0354 139.65 9.0354H143.003C143.159 9.0354 143.298 8.97162 143.417 8.8434L145.842 5.88546L149.608 1.2793Z" fill="white"/>
</g>
<defs>
<clipPath id="clip0">
<rect width="156" height="11.9487" fill="white" transform="translate(0 0.0811768)"/>
</clipPath>
</defs>
</svg>
